<svg width="11" height="9" viewBox="0 0 11 9" fill="none" xmlns="http://www.w3.org/2000/svg">
<path d="M9.89993 3C7.89993 5.3 7.69993 7.6 6.79993 7.8C5.99993 8.1 6.69993 8.4 5.29993 8.4C3.19993 8.4 4.09993 8 2.29993 5.5C0.799926 3.5 -0.100074 1.8 0.0999262 1.5C0.399926 1.1 1.29993 1 1.79993 1.3C2.29993 1.5 3.49993 3.2 3.69993 3.9C3.79993 4.3 4.89993 5.9 5.19993 6.1C5.29993 6.2 5.39993 6.1 5.39993 6C5.99993 4.7 7.39993 2.3 7.99993 1.8C8.19993 1.6 8.49993 1.4 8.49993 1.2C8.69993 0.9 9.69993 0.9 10.1999 1.2C10.7999 1.5 10.5999 2.1 9.89993 3Z" fill="white"/>
</svg>
