<svg width="218" height="283" viewBox="0 0 218 283" fill="none" xmlns="http://www.w3.org/2000/svg">
<path opacity="0.58" d="M171.6 183.1C173.3 178.7 174.4 173.9 174.9 168.8C175.8 159.8 174.4 150.2 176.1 141.4C181 115.5 206.8 109 215.6 86.9C223.5 66.9 209.8 35.8 197.2 18.2C189.7 7.70002 160.2 0.900024 148.8 0.900024C109.6 0.900024 51.1 5.10003 41.4 25.9C37.6 34.1 22.3 0.100024 14.4 3.80002C-3.19996 12.2 67.9 69.2 64 92.9C62.3 103.1 63.5 114.3 62.5 124.7C62.1 128.6 63.4 132.8 62.7 136.8C61.4 144.8 59.1 152.5 55.7 159.5C49.3 172.8 34 181.3 22.8 189.6C9.80004 199.3 -1.09996 216.5 0.100036 235.5C1.10004 250.5 9.30004 264.1 21.1 273.4C33.2 283 50.6 287.4 64.2 285C79.4 282.3 83.8 261.7 91.3 249.5C97.1 240.1 105.6 232.9 115.6 229.2C130.9 223.4 143.4 221.6 154.9 209.1C161.7 201.5 167.9 193 171.6 183.1Z" fill="#61BB70"/>
</svg>
