<svg width="267" height="191" viewBox="0 0 267 191" fill="none" xmlns="http://www.w3.org/2000/svg">
<path d="M266.862 117.323C256.962 56.7233 268.162 9.82334 257.162 6.52334C242.562 2.02334 215.262 -2.67666 169.662 1.82334C159.762 2.82334 131.562 2.72334 115.162 3.12334C89.1619 3.82334 38.9619 3.62334 20.6619 7.22334C17.5619 7.92334 14.4618 8.02334 11.3618 8.02334C-1.03816 7.82334 10.2619 38.2233 5.06185 59.4233C-0.538149 78.3233 -0.438155 114.723 0.461845 125.323C5.76185 146.523 -3.63814 184.723 5.76186 188.623C21.5619 195.123 84.3618 197.923 128.962 197.723C140.062 197.723 149.462 197.323 155.762 196.623C172.162 194.923 242.662 189.723 253.562 188.223C273.462 185.323 264.762 164.423 266.862 117.323Z" fill="#FDC600"/>
</svg>
