<svg width="272" height="191" viewBox="0 0 272 191" fill="none" xmlns="http://www.w3.org/2000/svg">
<path d="M271.7 99.8625C272.8 75.4625 270.8 33.2625 264.7 9.6625C261.5 6.0625 222.4 7.2625 218.2 5.0625C191.2 0.5625 151.5 -0.9375 123.6 0.5625C99.6 2.0625 36.1 5.0625 8.4 5.6625C4.1 7.7625 4.5 37.8625 4.5 42.7625C5.9 85.4625 0.1 103.162 0 139.262C4.7 189.062 -11.6 197.462 65.7 192.262C89.9 188.162 118.2 194.963 143.4 194.562C161.7 194.262 180.1 194.562 198.3 195.762C227.1 197.762 259.3 198.362 264.7 190.962C273 171.162 272.2 122.062 271.7 99.8625Z" fill="#67BA88"/>
</svg>
