<svg width="37" height="36" viewBox="0 0 37 36" fill="none" xmlns="http://www.w3.org/2000/svg">
<g clip-path="url(#clip0)">
<path d="M1.90011 21.1C1.50011 20.2 1.10011 19 0.800109 17.9C0.600109 17 0.400109 16.1 0.200109 15.2C0.000109255 14.2 0.000109255 13.2 0.100109 12.2C0.100109 10.9 0.400109 9.6 0.700109 8.3C1.00011 7.3 1.40011 6.3 2.00011 5.4C2.40011 4.6 3.00011 3.8 3.80011 3C4.50011 2.4 5.20011 1.8 6.00011 1.4C7.70011 0.4 9.60011 0 11.6001 0C13.0001 0 14.3001 0.4 15.5001 1C15.8001 1.2 16.2001 1.5 16.5001 1.7C16.7001 1.9 16.9001 2 17.2001 2C19.0001 2.4 21.3001 4.1 21.4001 6.7C21.4001 7.2 21.3001 7.8 21.3001 8.3C21.0001 9.7 20.6001 11.1 19.9001 12.4C19.5001 13.1 19.2001 13.9 18.9001 14.7C18.7001 15.2 18.8001 15.8 18.8001 16.3C18.8001 16.6 19.0001 16.8 19.2001 17.1C19.6001 17.8 20.2001 18.3 20.8001 18.8C22.2001 19.8 23.7001 20.3 25.3001 20.6C26.5001 20.8 27.7001 21.1 28.8001 21.3C29.7001 21.5 30.5001 21.7 31.3001 22C32.6001 22.5 33.8001 23.3 34.7001 24.3C35.2001 24.8 35.7001 25.3 36.0001 26C36.7001 27.4 36.8001 28.9 36.0001 30.3C35.8001 30.7 35.5001 31.2 35.1001 31.5C34.9001 31.7 34.7001 31.9 34.4001 31.9C34.2001 31.9 34.1001 32.1 34.1001 32.2C33.8001 33 33.2001 33.6 32.4001 33.9C31.2001 34.5 29.9001 35 28.6001 35.3C27.0001 35.6 25.5001 35.9 23.9001 35.7C22.3001 35.5 20.7001 35.4 19.1001 35C17.7001 34.7 16.4001 34.3 15.1001 33.7C13.9001 33.1 12.7001 32.5 11.5001 31.8C10.4001 31.1 9.40011 30.2 8.40011 29.3C6.90011 27.9 5.40011 26.4 4.20011 24.7C3.30011 23.8 2.60011 22.6 1.90011 21.1ZM17.8001 10.1C17.9001 10 18.0001 9.9 18.0001 9.8C18.2001 9.3 18.4001 8.7 18.7001 8.1C18.8001 7.9 18.8001 7.8 18.8001 7.6C18.8001 7.1 18.8001 6.6 18.8001 6C18.8001 5.5 18.8001 5.1 18.6001 4.7C18.6001 4.6 18.6001 4.5 18.6001 4.3C18.7001 4.4 18.8001 4.4 18.9001 4.5C18.9001 4.5 18.9001 4.5 19.0001 4.4L18.4001 3.8C18.4001 4 18.4001 4.2 18.5001 4.3C18.5001 4.4 18.5001 4.4 18.6001 4.5C19.0001 5.7 19.0001 6.9 18.6001 8.1C18.1001 8.8 18.0001 9.5 17.8001 10.1C17.6001 10.7 17.4001 11.2 17.2001 11.8C17.0001 12.3 16.9001 12.9 16.7001 13.4C16.7001 13.5 16.6001 13.5 16.6001 13.6C16.6001 13.3 16.6001 13.1 16.6001 12.9C16.7001 12.7 16.7001 12.4 16.8001 12.2C16.9001 11.9 16.9001 11.7 17.0001 11.4C17.1001 11.2 17.1001 11 17.2001 10.7C16.3001 12 16.1001 13.5 15.9001 15C15.9001 14.8 15.8001 14.6 15.8001 14.4C15.8001 12.8 16.4001 11.3 16.9001 9.8C17.1001 9.2 17.4001 8.6 17.5001 8C17.7001 7 17.7001 5.9 17.4001 4.9C17.0001 3.8 16.4001 2.8 15.3001 2.2C14.6001 1.8 13.9001 1.5 13.1001 1.2C12.7001 1 12.1001 0.9 11.6001 1C10.9001 1 10.3001 1 9.70011 1.1C8.60011 1.2 7.60011 1.6 6.60011 2.1C5.20011 2.9 4.10011 4 3.10011 5.2C2.60011 5.9 2.10011 6.7 1.80011 7.4C1.60011 7.9 1.40011 8.3 1.30011 8.8C1.10011 9.9 0.900109 10.9 0.900109 12C0.800109 14 1.00011 15.9 1.70011 17.8C2.10011 19 2.70011 20.1 3.20011 21.2C3.40011 21.6 3.60011 22 3.80011 22.4C4.70011 23.9 5.80011 25.2 6.90011 26.5C7.90011 27.6 9.00011 28.7 10.2001 29.6C11.5001 30.6 12.9001 31.5 14.3001 32.3C15.5001 33 16.7001 33.6 18.1001 33.9C19.3001 34.2 20.4001 34.4 21.6001 34.6C22.0001 34.7 22.4001 34.7 22.8001 34.7C23.8001 34.7 24.8001 34.7 25.8001 34.6C26.8001 34.5 27.9001 34.5 28.9001 34.2C29.4001 34 29.8001 33.8 30.3001 33.7C31.1001 33.5 31.9001 33.1 32.7001 32.7C33.2001 32.4 33.7001 32.1 33.9001 31.6C34.4001 30.7 34.6001 29.7 34.4001 28.7C34.3001 27.9 34.2001 27.1 33.7001 26.4V26.3C34.0001 26.5 34.2001 26.7 34.3001 27C34.7001 27.7 34.8001 28.5 34.9001 29.3C34.9001 29.7 34.9001 30.2 34.8001 30.7C35.4001 29.8 35.8001 28.8 35.6001 27.7C35.4001 26.3 34.7001 25.1 33.6001 24.3C31.9001 23.1 30.0001 22.3 28.0001 21.8C26.9001 21.6 25.7001 21.4 24.6001 21.1C23.2001 20.8 21.9001 20.4 20.8001 19.5C19.7001 18.7 19.0001 17.7 18.5001 16.5C18.2001 15.8 18.2001 15 18.4001 14.3C18.6001 13.6 18.9001 12.9 19.2001 12.2C19.7001 11 20.1001 9.9 20.3001 8.7C20.5001 8 20.6001 7.4 20.6001 6.7C20.5001 5.3 19.8001 4.2 18.7001 3.4C18.4001 3.2 18.0001 3.1 17.6001 3C17.7001 3.2 17.8001 3.4 18.0001 3.5C18.5001 3.7 18.8001 4 19.1001 4.4C19.2001 4.5 19.3001 4.6 19.4001 4.7C19.7001 4.9 19.9001 5.2 20.0001 5.5C20.1001 5.8 20.2001 6.2 20.3001 6.5C20.4001 6.7 20.4001 7 20.4001 7.2C20.4001 7.4 20.4001 7.5 20.2001 7.7C20.2001 7.2 20.1001 6.8 20.0001 6.4C19.9001 6.9 19.9001 7.6 19.8001 8.2C19.8001 8.5 19.7001 8.8 19.4001 9C19.3001 9 19.3001 9.1 19.3001 9.2C19.2001 9.4 19.2001 9.5 19.1001 9.7C19.0001 10 18.8001 10.2 18.8001 10.5C18.8001 10.7 18.7001 11 18.5001 11.2C18.5001 10.8 18.6001 10.5 18.7001 10.1C18.9001 9.6 19.1001 9 19.3001 8.5C19.4001 8.4 19.5001 8.2 19.6001 8.1C19.5001 6.6 19.5001 6.5 19.4001 6.2C19.4001 6.6 19.3001 7 19.3001 7.4C19.2001 8.5 19.0001 9.4 18.4001 10.4C18.3001 10.6 18.2001 10.7 18.2001 10.9C18.0001 11.7 17.7001 12.6 17.5001 13.4C17.4001 13.6 17.4001 13.8 17.2001 14C17.1001 13.8 17.1001 13.6 17.2001 13.4C17.3001 12.5 17.6001 11.7 17.9001 10.9C17.8001 10.5 17.8001 10.3 17.8001 10.1Z" fill="#6F7FB5"/>
<path d="M31.2002 24.2C32.0002 24.7 32.8002 25.2 33.3002 26C33.3002 26 33.3002 26.1 33.2002 26.1C33.1002 26.1 33.0002 26 33.0002 26C32.0002 25.3 31.0002 24.6 29.9002 24.2C29.8002 24.2 29.7002 24.1 29.6002 24.1C28.3002 23.7 27.1002 23.3 25.8002 23C24.8002 22.8 23.8002 22.7 22.9002 22.5C22.5002 22.4 22.0002 22.3 21.6002 22.2C21.4002 22.2 21.3002 22.1 21.2002 21.9C21.3002 21.9 21.3002 21.9 21.4002 21.9C22.5002 22.2 23.6002 22.3 24.7002 22.5C25.2002 22.6 25.7002 22.7 26.2002 22.8C27.0002 23 27.7002 23.1 28.5002 23.3C29.1002 23.4 29.6002 23.6 30.2002 23.7C30.1002 23.6 29.9002 23.5 29.7002 23.4C30.0002 23.4 30.3002 23.4 30.5002 23.5C31.4002 23.8 32.3002 24.2 33.1002 24.9C33.2002 25 33.3002 25.1 33.4002 25.2C33.2002 25.3 33.1002 25.2 33.0002 25.1C32.6002 24.8 32.2002 24.6 31.7002 24.3C31.5002 24.2 31.4002 24.2 31.2002 24.2C31.2002 24.2 31.2002 24.1 31.2002 24.2Z" fill="#6F7FB5"/>
<path d="M32.4001 28C32.8001 28.1 32.9 28.4 33 28.7C33.2 29.1 33.2001 29.4 33.2001 29.8C33.2001 30.1 33.2 30.3 33 30.5C32.9 30.8 32.7 31.1 32.8 31.4C32.9 31.3 32.9 31.3 33 31.3C33.5 30.4 33.7 29.4 33.3 28.4C33.1 28 32.9001 27.6 32.7001 27.2C33.3001 27.5 33.8001 28.7 33.9001 29.9C33.9001 29.8 33.9001 29.6 33.9001 29.5C33.9001 29.3 33.9001 29.2 33.9001 29C33.9001 28.8 33.8 28.7 33.8 28.4C34 28.6 34 28.7 34.1 28.9C34.3 29.7 34.2 30.5 33.8 31.2C33.7 31.4 33.6 31.6 33.3 31.7C33.2 31.7 33.1 31.9 33 32C32.7 32.4 32.3 32.6 31.9 32.8C31.8 32.8 31.8001 32.8 31.7001 32.9C31.7001 32.8 31.6 32.8 31.6 32.7C30.5 33.5 29.3 34 27.8 34.1C28 33.8 28.3 33.8 28.5 33.7C29.1 33.5 29.7 33.3 30.3 33.1C30.9 32.8 31.5 32.5 32 32.1C32.2 31.9 32.3001 31.7 32.4001 31.4C32.4001 31.2 32.4 31.1 32.5 30.9C32.6 30.6 32.7 30.2 32.5 29.9C32.4 29.7 32.3001 29.5 32.2001 29.2C32.2001 29.2 32.2 29.2 32.3 29.1C32.5 29.2 32.6 29.4 32.8 29.5C32.8 29.8 32.9001 30.2 32.9001 30.6C33.1001 30.3 33.2 29.9 33 29.4C32.8 28.9 32.6001 28.5 32.4001 28Z" fill="#6F7FB5"/>
<path d="M1.7001 11.2C1.7001 11.4 1.7001 11.6 1.7001 11.8C1.7001 12.5 1.8001 13.1 1.8001 13.8C2.0001 15 2.3001 16.3 2.7001 17.5C3.1001 18.8 3.7001 20.1 4.3001 21.3C4.6001 21.9 5.0001 22.4 5.3001 23C6.0001 23.9 6.8001 25 7.5001 26C7.6001 26.1 7.6001 26.2 7.6001 26.3C7.5001 26.2 7.4001 26.1 7.3001 26C6.5001 25.1 5.7001 24.1 5.1001 23.1C4.4001 22 3.8001 20.9 3.2001 19.8C2.7001 18.8 2.3001 17.7 2.0001 16.6C1.7001 15.5 1.6001 14.4 1.6001 13.3C1.6001 12.8 1.6001 12.3 1.6001 11.8C1.6001 11.6 1.6001 11.4 1.7001 11.2C1.6001 11.2 1.6001 11.2 1.7001 11.2Z" fill="#6F7FB5"/>
<path d="M8.70021 27.2C8.80021 27.3 8.90021 27.4 9.00021 27.5C10.3002 28.7 11.7002 29.7 13.1002 30.6C14.2002 31.3 15.2002 32 16.4002 32.5C17.8002 33.2 19.2002 33.6 20.6002 33.9C20.8002 34 21.1002 34 21.3002 34.2C21.1002 34.3 21.0002 34.3 20.8002 34.3C20.1002 34.3 19.4002 34.1 18.8002 33.9C17.4002 33.5 16.1002 32.9 14.8002 32.1C13.1002 31.1 11.5002 30.1 10.0002 28.8C9.60021 28.5 9.30021 28.1 8.90021 27.8C8.90021 27.6 8.80021 27.5 8.70021 27.2C8.70021 27.3 8.60021 27.3 8.70021 27.2Z" fill="#6F7FB5"/>
<path d="M13.2001 1.80002C12.7001 1.70002 12.2001 1.60002 11.7001 1.60002C11.1001 1.60002 10.5001 1.60002 9.90015 1.60002C9.50015 1.70002 9.10015 1.90002 8.70015 2.10002C8.00015 2.50002 7.30015 2.90002 6.80015 3.50002C6.10015 4.10002 5.60015 4.80002 5.30015 5.60002C5.00015 6.00002 4.80015 6.50002 4.60015 6.90002C4.60015 7.00002 4.50015 7.10002 4.40015 7.20002C4.60015 6.50002 4.70015 5.80002 5.00015 5.10002C5.70015 3.80002 6.80015 2.70002 8.10015 2.00002C8.70015 1.60002 9.40015 1.30002 10.1001 1.20002C10.8001 1.10002 11.5001 1.10002 12.2001 1.30002C12.6001 1.40002 12.9001 1.50002 13.2001 1.80002Z" fill="#6F7FB5"/>
<path d="M2.5 14.5C2.5 14.4 2.6 14.4 2.7 14.3C2.7 14.5 2.8 14.6 2.8 14.8C2.9 15.9 3.2 16.8 3.6 17.8C3.8 18.3 4 18.8 4.2 19.2C5 20.9 5.9 22.5 6.9 24.1C7 24.2 7 24.4 7.1 24.5C7 24.4 6.9 24.4 6.9 24.3C6.5 23.8 6.1 23.3 5.8 22.7C5.3 21.9 4.9 21.1 4.4 20.3C4.2 19.9 4 19.4 3.8 19C3.4 17.9 2.9 16.9 2.7 15.8C2.6 15.4 2.6 15 2.5 14.5C2.6 14.6 2.6 14.6 2.5 14.5Z" fill="#6F7FB5"/>
<path d="M19.8001 33.4C19.3001 33.4 18.9001 33.2 18.5001 33.1C17.0001 32.6 15.5001 31.8 14.1001 30.9C13.3001 30.4 12.6001 29.8 11.8001 29.3C11.5001 29.1 11.3001 28.8 11.0001 28.5C10.9001 28.4 10.9001 28.3 10.9001 28.2C11.0001 28.3 11.2001 28.4 11.3001 28.5C13.1001 30 15.0001 31.3 17.1001 32.2C17.8001 32.5 18.4001 32.7 19.1001 33C19.4001 33.1 19.6001 33.2 19.8001 33.4Z" fill="#6F7FB5"/>
<path d="M22.5 23.3C22.2 23.4 22 23.3 21.8 23.3C21.4 23.2 21 23 20.7 22.9C19.4 22.3 18.2 21.6 17.2 20.6C16.9 20.3 16.7 20.1 16.5 19.7C18.3 21.1 20.3 22.4 22.5 23.3Z" fill="#6F7FB5"/>
<path d="M20.4 21.6C20.1 21.4 19.7 21.2 19.4 21C18.4 20.3 17.6 19.4 16.9 18.4C16.4 17.7 16.2 17 16 16.2C16 16 16 15.8 16.1 15.6C16.3 16.2 16.5 16.8 16.7 17.3C16.9 17.9 17.3 18.4 17.7 18.9C18.1 19.4 18.5 19.8 19 20.3C19.5 20.8 20 21.1 20.4 21.6C20.5 21.6 20.5 21.6 20.4 21.6Z" fill="#6F7FB5"/>
<path d="M11.1001 27.2C11.3001 27.2 11.4001 27.3 11.6001 27.4C12.5001 28.1 13.5001 28.9 14.4001 29.6C14.9001 29.9 15.4001 30.2 15.8001 30.5C16.0001 30.6 16.1001 30.7 16.3001 30.8C16.2001 30.9 16.0001 30.9 15.9001 30.8C15.5001 30.7 15.2001 30.5 14.8001 30.3C13.6001 29.5 12.4001 28.7 11.3001 27.7C11.3001 27.6 11.2001 27.5 11.1001 27.2Z" fill="#6F7FB5"/>
<path d="M15.6 9.29999C15.6 9.39999 15.6 9.39999 15.6 9.39999V9.49999C15 11 14.9 12.5 14.5 14.1C14.5 14.1 14.5 14.2 14.4 14.3C14.4 14.1 14.3 13.9 14.3 13.8C14.3 12.6 14.5 11.4 14.9 10.3C15 9.99999 15.1 9.79999 15.3 9.49999C15.4 9.39999 15.5 9.39999 15.6 9.29999Z" fill="#6F7FB5"/>
<path d="M3.70005 8.29999C3.50005 9.09999 3.40005 9.89999 3.30005 10.7C3.20005 11.5 3.20005 12.3 3.10005 13.1C2.90005 13 2.90005 13 2.90005 13C2.90005 12.8 2.80005 12.6 2.80005 12.4C2.80005 11.5 2.80005 10.5 3.00005 9.59999C3.10005 9.19999 3.30005 8.89999 3.40005 8.49999C3.50005 8.39999 3.60005 8.39999 3.70005 8.29999Z" fill="#6F7FB5"/>
<path d="M21 32C20.8 32 20.6 32 20.5 32C20.3 32 20.1 31.9 19.9 31.9C18.8 31.6 17.8 31.1 16.8 30.5C16.7 30.4 16.5 30.3 16.5 30.1C16.7 30.2 16.8 30.2 16.9 30.2C17.3 30.4 17.6 30.5 17.9 30.7C18.7 31.1 19.6 31.4 20.5 31.7C20.6 31.7 20.7 31.8 20.8 31.8C20.8 31.9 20.8 31.9 21 32Z" fill="#6F7FB5"/>
<path d="M6.80005 4.40001C7.90005 2.70001 10.5 1.40001 11.9 1.90001L11.8 2.00001C10.8 2.00001 10 2.20001 9.20005 2.60001C8.70005 2.90001 8.20005 3.30001 7.70005 3.60001C7.30005 3.90001 7.10005 4.10001 6.80005 4.40001Z" fill="#6F7FB5"/>
<path d="M22.0001 33.4C20.6001 33.2 19.3001 32.8 18.1001 32.2C17.6001 31.9 17.5001 31.9 17.4001 31.6H17.5001C18.9001 32.2 20.4001 32.7 21.9001 33.2C22.0001 33.2 22.0001 33.3 22.0001 33.4C22.0001 33.3 22.1001 33.3 22.0001 33.4Z" fill="#6F7FB5"/>
<path d="M5.8 3.50001C4.8 4.60001 4.4 6.00001 3.9 7.40001C3.8 7.40001 3.8 7.40001 3.7 7.40001C3.7 7.50001 3.6 7.50001 3.6 7.60001H3.5C3.5 7.40001 3.6 7.20001 3.6 7.00001C3.9 6.00001 4.4 5.20001 4.9 4.30001C5.1 3.90001 5.4 3.70001 5.8 3.50001C5.7 3.50001 5.7 3.40001 5.8 3.50001Z" fill="#6F7FB5"/>
<path d="M7.7 4.40002C7.6 4.50002 7.5 4.60002 7.4 4.70002C6.4 5.60002 5.8 6.70002 5.4 8.00002C5.3 8.40002 5.2 8.80002 5 9.20002C5 9.10002 5 9.10002 5 9.00002C5.3 7.60002 5.6 6.30002 6.6 5.20002C6.9 4.90002 7.2 4.60002 7.7 4.40002C7.6 4.40002 7.6 4.40002 7.7 4.40002Z" fill="#6F7FB5"/>
<path d="M14.3001 3.00002C14.1001 2.70002 13.9001 2.30002 13.6001 1.90002C13.7001 1.90002 13.8001 1.90002 13.9001 2.00002C14.1001 2.20002 14.4001 2.40002 14.5001 2.70002C15.0001 3.40002 15.5001 4.10002 15.7001 5.00002C15.7001 5.20002 15.8001 5.40002 15.8001 5.60002H15.7001C15.6001 5.50002 15.6001 5.40002 15.5001 5.30002C15.3001 4.50002 14.8001 3.80002 14.3001 3.00002Z" fill="#6F7FB5"/>
<path d="M4.90005 18.8C4.80005 18.6 4.60005 18.3 4.50005 18.1C3.90005 16.7 3.50005 15.2 3.30005 13.6C3.30005 13.3 3.30005 13.3 3.40005 12.9C3.40005 13.1 3.50005 13.2 3.50005 13.3C3.60005 15 4.10005 16.5 4.70005 18C4.80005 18.3 4.90005 18.5 5.00005 18.8C5.00005 18.8 5.00005 18.8 4.90005 18.8Z" fill="#6F7FB5"/>
<path d="M14.3002 3C14.5002 3.5 14.8002 3.9 14.9002 4.4C15.0002 4.7 15.0002 5.1 14.9002 5.4C14.9002 5.5 14.8002 5.5 14.8002 5.6C14.8002 5.3 14.7002 5 14.7002 4.7C14.5002 3.9 14.1002 3.3 13.6002 2.7C13.4002 2.5 13.3002 2.3 13.2002 2C13.5002 2.1 13.9002 2.4 14.1002 2.7C14.1002 2.8 14.2002 2.9 14.3002 3Z" fill="#6F7FB5"/>
<path d="M10.3001 26.2C8.8001 25.3 7.7001 24 7.1001 22.3C7.2001 22.4 7.3001 22.5 7.3001 22.6C7.7001 23 8.0001 23.5 8.3001 24C8.7001 24.6 9.2001 25.1 9.8001 25.6C10.0001 25.7 10.2001 25.9 10.3001 26.2C10.3001 26.2 10.4001 26.1 10.3001 26.2Z" fill="#6F7FB5"/>
<path d="M6.2 5.09998C6.1 5.29998 6.1 5.39998 6 5.49998C5.6 6.09998 5.4 6.59998 5.2 7.29998C5.1 7.69998 4.9 8.09998 4.8 8.49998C4.8 8.59998 4.7 8.79998 4.5 8.79998C4.5 8.69998 4.5 8.59998 4.5 8.49998C4.7 7.59998 4.9 6.59998 5.5 5.79998C5.6 5.59998 5.7 5.49998 5.9 5.29998C5.9 5.19998 6 5.09998 6.2 5.09998Z" fill="#6F7FB5"/>
<path d="M20.6002 31.1C19.8002 31.1 19.1002 30.9 18.4002 30.6C17.4002 30.1 16.5002 29.5 15.6002 28.9C15.4002 28.8 15.3002 28.6 15.2002 28.5C15.4002 28.5 15.6002 28.7 15.7002 28.8C16.5002 29.3 17.2002 29.9 18.1002 30.3C18.8002 30.6 19.5002 30.9 20.2002 31C20.4002 31 20.5002 31 20.6002 31.1C20.6002 31 20.6002 31 20.6002 31.1Z" fill="#6F7FB5"/>
<path d="M28.3 24.1C26.7 23.8 25.2 23.4 23.5 22.9C24.3 22.7 27.6 23.6 28.3 24.1Z" fill="#6F7FB5"/>
<path d="M16.7002 20.9H16.8002C17.8002 21.7 19.0002 22.4 20.1002 23C20.1002 23 20.1002 23 20.1002 23.1C19.8002 23.1 19.4002 23 18.6002 22.6C17.9002 22.1 17.2002 21.7 16.7002 20.9Z" fill="#6F7FB5"/>
<path d="M16.9001 16.7C17.4001 17.3 17.8001 18 18.3001 18.6C18.8001 19.2 19.4001 19.7 20.0001 20.3C19.0001 20 17.3001 18 16.9001 16.7Z" fill="#6F7FB5"/>
<path d="M22.5 30.1C23.3 30.2 24 30.4 24.7 30.5C25.4 30.6 26.1 30.6 26.9 30.7C26.8 30.7 26.7 30.8 26.7 30.8C26.6 30.8 26.4 30.9 26.3 30.9C25.2 30.9 24.2 30.8 23.2 30.5C22.7 30.4 22.7 30.4 22.5 30.1Z" fill="#6F7FB5"/>
<path d="M13.8002 13C13.8002 12.9 13.7002 12.7 13.7002 12.6C13.7002 11.8 13.9002 11.1 14.2002 10.4C14.2002 10.3 14.3002 10.2 14.5002 10.1C14.5002 10.4 14.5002 10.7 14.4002 10.9C14.3002 11.4 14.1002 11.9 14.0002 12.3C14.0002 12.6 14.0002 12.8 13.9002 13C13.9002 13 13.9002 13 13.8002 13Z" fill="#6F7FB5"/>
<path d="M7.90015 24.8C8.70015 25.6 9.50015 26.5 10.4001 27.4C10.1001 27.4 9.90015 27.2 9.80015 27.1C9.00015 26.3 8.30015 25.7 7.90015 24.8Z" fill="#6F7FB5"/>
<path d="M22.6001 34C23.3001 34 24.0001 34 24.7001 34C25.4001 34 26.1001 33.9 26.8001 33.8C26.7001 33.9 26.6001 33.9 26.5001 34C25.3001 34.3 24.2001 34.3 23.0001 34.2C22.8001 34.1 22.7001 34.1 22.6001 34Z" fill="#6F7FB5"/>
<path d="M15.1 13.9C15 12.8 15.5 10.5 16 10C16 10.1 16 10.1 16 10.2C15.7 11.4 15.4 12.6 15.1 13.9Z" fill="#6F7FB5"/>
<path d="M18.2001 11.7C18.1001 12.7 17.8001 13.7 17.6001 14.6C17.5001 14.4 17.5001 14.1 17.6001 13.9C17.7001 13.2 17.8001 12.4 18.2001 11.7Z" fill="#6F7FB5"/>
<path d="M15.2002 15.1C15.3002 15.3 15.7002 17.4 15.7002 18C15.6002 17.8 15.5002 17.8 15.5002 17.7C15.2002 17 15.1002 16.2 15.1002 15.4C15.1002 15.3 15.0002 15.2 15.2002 15.1Z" fill="#6F7FB5"/>
<path d="M3.6 5.5C3.5 6 2.8 7.8 2.6 8.1C2.6 8 2.5 7.9 2.5 7.9C2.7 7.2 2.8 6.4 3.3 5.8C3.4 5.7 3.5 5.6 3.6 5.5Z" fill="#6F7FB5"/>
<path d="M29.2002 33.2C29.2002 33.1 29.3002 33.1 29.3002 33.1C30.1002 32.7 30.8002 32.2 31.5002 31.6C31.4002 32.3 30.0002 33.2 29.2002 33.2Z" fill="#6F7FB5"/>
<path d="M2.3002 11.3C2.2002 11.1 2.2002 11 2.2002 10.8C2.3002 9.99998 2.4002 9.29998 2.8002 8.59998C2.9002 8.89998 2.8002 9.19998 2.7002 9.49998C2.7002 9.79998 2.6002 10.1 2.5002 10.4C2.5002 10.7 2.5002 11 2.3002 11.3Z" fill="#6F7FB5"/>
<path d="M15 2.79999C15.5 3.09999 16.4 4.79999 16.5 5.49999C16.2 5.09999 15.1 3.19999 15 2.79999Z" fill="#6F7FB5"/>
<path d="M25.1001 32C24.7001 32.2 24.3001 32.2 23.8001 32.2C23.2001 32.2 22.8001 32 22.6001 31.8C22.8001 31.7 23.0001 31.8 23.2001 31.9C23.4001 31.9 23.6001 32 23.9001 32C24.1001 32 24.3001 32 24.5001 32C24.7001 32 24.9001 32 25.1001 32C25.1001 31.9 25.1001 32 25.1001 32Z" fill="#6F7FB5"/>
<path d="M4.20012 9C4.20012 9.5 4.00012 11.9 4.00012 12.1C3.70012 11.6 3.80012 9.7 4.20012 9Z" fill="#6F7FB5"/>
<path d="M16 3.5C16.5 3.9 16.7 4.5 17 5C17.2 5.4 17.2 5.6 17 6C16.8 5 16.4 4.3 16 3.5Z" fill="#6F7FB5"/>
<path d="M2.5001 14.5C2.6001 14.6 2.6001 14.6 2.5001 14.5C2.4001 14.6 2.4001 14.6 2.3001 14.6C2.1001 13.9 2.1001 13.2 2.1001 12.5C2.1001 12.4 2.2001 12.3 2.2001 12.2C2.4001 12.3 2.3001 12.4 2.3001 12.5C2.5001 13.3 2.5001 13.9 2.5001 14.5Z" fill="#6F7FB5"/>
<path d="M8.50016 4.20001C8.00016 4.80001 7.50016 5.50001 7.00016 6.10001C6.90016 5.90001 7.00016 5.70001 7.10016 5.60001C7.50016 5.00001 7.80016 4.40001 8.50016 4.20001Z" fill="#6F7FB5"/>
<path d="M7.5 7.10001C7.5 6.50001 8.1 5.40001 8.7 5.20001C8.4 5.90001 8 6.40001 7.7 7.00001C7.7 7.10001 7.6 7.10001 7.5 7.10001Z" fill="#6F7FB5"/>
<path d="M4.30021 12.8C4.40021 13.6 4.50021 14.3 4.60021 15.1C4.20021 14.7 4.00021 13.4 4.30021 12.8Z" fill="#6F7FB5"/>
<path d="M18.5001 23.2C17.9001 23.1 16.8001 22.4 16.6001 21.8C17.0001 22 17.3001 22.2 17.6001 22.4C17.9001 22.7 18.3001 22.9 18.5001 23.2Z" fill="#6F7FB5"/>
<path d="M9 23.2C9.6 23.9 10.2 24.7 10.8 25.4C10.4 25.2 9.3 24 9 23.2Z" fill="#6F7FB5"/>
<path d="M23.8 23.7C24.3 23.6 25.4 23.7 25.9 23.9C25.8 23.9 25.7001 24 25.7001 24C25.2001 24 24.7001 23.9 24.2001 23.9C24.0001 23.9 23.9 23.9 23.8 23.7Z" fill="#6F7FB5"/>
<path d="M9.1002 5.90002C9.0002 6.50002 8.5002 7.50002 8.2002 7.70002C8.2002 7.20002 8.6002 6.30002 9.1002 5.90002Z" fill="#6F7FB5"/>
<path d="M14.4 16.6C14 16.1 14 15.6 14.1 15C14.3 15.1 14.3 15.2 14.4 15.4C14.4 15.8 14.5 16.2 14.4 16.6Z" fill="#6F7FB5"/>
<path d="M5.3001 12.2C5.4001 12.5 5.4001 13.8 5.3001 14.5C5.1001 14.1 5.1001 13.7 5.1001 13.3C5.2001 12.9 5.1001 12.5 5.3001 12.2Z" fill="#6F7FB5"/>
<path d="M1.7001 10.2C1.6001 9.6 1.7001 9.1 2.0001 8.5C2.2001 8.9 2.0001 9.8 1.7001 10.2Z" fill="#6F7FB5"/>
<path d="M6.5 16.7C6.6 16.8 6.6 16.8 6.6 16.8C6.9 17.6 7.2 18.3 7.5 19.2C7.4 19.2 7.4 19.2 7.4 19.1C7 18.4 6.7 17.7 6.5 17C6.5 16.9 6.5 16.8 6.5 16.7Z" fill="#6F7FB5"/>
<path d="M28.2 25.6C27.7 25.5 27.2 25.3 26.6 25.2C26.1 25.1 25.6 25 25 25C25.5 24.8 27.5 25.2 28.2 25.6Z" fill="#6F7FB5"/>
<path d="M27.1001 22.5C27.5001 22.4 28.5001 22.6 29.3001 22.9C28.9001 23 28.6001 22.8 28.2001 22.8C27.8001 22.7 27.5001 22.6 27.1001 22.5Z" fill="#6F7FB5"/>
<path d="M24.1001 24.3C24.5001 24.1 25.5001 24.3 25.9001 24.5C25.5001 24.6 24.5001 24.4 24.1001 24.3Z" fill="#6F7FB5"/>
<path d="M11.5001 2.49998C10.7001 2.69998 10.0001 2.89998 9.40015 3.09998C9.50015 2.89998 9.50015 2.89998 10.3001 2.59998C10.7001 2.49998 11.0001 2.39998 11.5001 2.49998Z" fill="#6F7FB5"/>
<path d="M15.0001 17.6C14.7001 17.2 14.6001 16.5 14.7001 16C14.9001 16.2 15.1001 17.3 15.0001 17.6Z" fill="#6F7FB5"/>
<path d="M30.7 31.4C30.7 31.7 30.5 31.8 30.4 31.9C30.1 32.1 29.8 32.2 29.5 32.2C29.5 32.2 29.5 32.1 29.6 32.1C29.7 32 29.7 32 29.8 32C30.1 31.8 30.4 31.6 30.7 31.4Z" fill="#6F7FB5"/>
<path d="M12.8 2.09998C13.2 2.49998 13.4 2.89998 13.6 3.39998C13.3 3.29998 12.9 2.59998 12.8 2.09998Z" fill="#6F7FB5"/>
<path d="M15.5 29.9C14.9 29.6 14.3 29.3 13.8 28.9V28.8C14.4 29.1 15 29.4 15.5 29.9C15.6 29.8 15.6 29.8 15.5 29.9Z" fill="#6F7FB5"/>
<path d="M32.1002 30.3C32.3002 30.5 32.2002 30.7 32.1002 31C32.0002 31.2 31.9002 31.3 31.7002 31.3C31.7002 31 31.9002 30.5 32.1002 30.3Z" fill="#6F7FB5"/>
<path d="M15.4001 26.7C15.9001 26.9 16.4001 27.2 16.9001 27.4C16.3001 27.4 15.8001 27.1 15.4001 26.7C15.4001 26.7 15.4001 26.8 15.4001 26.7Z" fill="#6F7FB5"/>
<path d="M6.4 8C6.4 8.4 6.3 8.9 6 9.2C6 8.8 6.1 8.4 6.4 8Z" fill="#6F7FB5"/>
<path d="M13.0001 11.7C12.9001 11.2 13.1001 10.8 13.4001 10.4C13.4001 10.9 13.2001 11.3 13.0001 11.7Z" fill="#6F7FB5"/>
<path d="M10.2001 23.5C9.80015 23.4 9.60015 23.1 9.40015 22.5C9.80015 22.8 10.1001 23.2 10.2001 23.5Z" fill="#6F7FB5"/>
<path d="M5.90005 19.8C5.60005 19.4 5.50005 19.1 5.30005 18.7C5.60005 18.9 5.90005 19.4 5.90005 19.8Z" fill="#6F7FB5"/>
<path d="M8.00016 15.9C7.80016 15.6 7.80016 15.3 7.90016 14.9C8.00016 15.2 8.00016 15.5 8.00016 15.9Z" fill="#6F7FB5"/>
<path d="M17 15.3C17 15.1 17 14.8 17.1 14.6C17.2 14.8 17.1 15 17 15.3Z" fill="#6F7FB5"/>
</g>
<defs>
<clipPath id="clip0">
<rect width="36.5" height="36" fill="white"/>
</clipPath>
</defs>
</svg>
