<svg width="42" height="40" viewBox="0 0 42 40" fill="none" xmlns="http://www.w3.org/2000/svg">
<path d="M39.7 25C39.2 26.2 38.5 27.4 37.8 28.6C37.3 29.4 36.7 30.1 36.1 30.9C35 32.3 33.7 33.4 32.2 34.5C31.6 34.9 31 35.4 30.4 35.8C29.3 36.6 28.1 37.2 26.9 37.7C26.3 38 25.6 38.3 25 38.6C24.1 39 23.1 39.2 22.1 39.4C21.8 39.5 21.6 39.5 21.3 39.6C20.1 39.8 19 39.8 17.8 39.6C16.6 39.4 15.4 39.1 14.2 38.8C13.4 38.6 12.7 38.3 11.9 38C11.1 37.7 10.3 37.3 9.50001 36.9C8.60001 36.4 7.70001 35.8 6.90001 35.2C5.70001 34.4 4.80001 33.3 3.80001 32.2C3.50001 31.6 3.00001 31 2.60001 30.4C2.30001 29.9 2.00001 29.4 1.80001 28.9C1.40001 28 1.10001 27 1.00001 26C0.900014 24.9 0.900014 23.9 1.30001 22.9C1.50001 22.4 1.70001 22 2.10001 21.5C2.60001 21 3.10001 20.7 3.70001 20.4C4.90001 19.8 6.20001 19.4 7.60001 19.3C8.40001 19.2 9.10001 19.4 9.90001 19.5C10.9 19.7 11.8 20 12.7 20.4C13.6 20.7 14.4 21.1 15.3 21.4C16.6 21.8 17.9 21.9 19.2 21.7C19.5 21.7 19.8 21.5 20 21.3C20.6 20.7 21 20 21.4 19.3C21.7 18.7 21.8 18 22 17.3C22.2 16.6 22.3 16 22.4 15.3C22.4 15.2 22.4 15.1 22.4 15C22.4 14.3 22.5 13.6 22.4 12.9C22.3 12.1 22.2 11.4 22 10.6C21.8 9.8 21.8 8.9 21.9 8.1C22 7.2 22.2 6.2 22.7 5.4C23 4.8 23.5 4.3 23.9 3.7C24.1 3.5 24.2 3.3 24.4 3.1C24.8 2.7 25.3 2.4 25.7 2C26 1.8 26.3 1.6 26.6 1.4C27.4 0.9 28.2 0.7 29 0.5C29.9 0.3 30.9 0.3 31.8 0.5C31.9 0.5 32 0.5 32.1 0.4C32.5 0.1 33.1 0 33.7 0C34.5 0 35.1 0.3 35.7 0.7C36.4 1.2 37.1 1.7 37.8 2.3C38.3 2.8 38.7 3.3 39 3.9C39.7 5.2 40.3 6.5 40.8 7.8C41.1 8.8 41.3 9.8 41.5 10.7C41.8 12.3 41.9 13.9 41.8 15.6C41.7 16.5 41.7 17.4 41.6 18.2C41.5 18.9 41.4 19.6 41.2 20.3C41.1 20.9 40.9 21.6 40.7 22.2C40.4 23.2 39.9 24.5 39.7 25ZM39.5 11.1C39.5 11 39.5 10.9 39.5 10.8C39.3 10.1 39.1 9.5 38.9 8.8C38.8 8.4 38.6 7.9 38.4 7.5C38.5 7.6 38.5 7.7 38.6 7.8C38.6 7.7 38.6 7.6 38.5 7.5C38.3 7 38.1 6.6 37.8 6.1C37.7 5.9 37.5 5.7 37.4 5.4C37.4 5.3 37.3 5.3 37.3 5.3C37.3 5.3 37.3 5.4 37.4 5.4C37.7 5.9 37.9 6.4 38.2 7C38.5 7.8 38.8 8.7 39 9.6C39.3 10.7 39.5 11.8 39.7 12.9C39.7 12.7 39.7 12.5 39.7 12.4C39.7 12.3 39.8 12.3 39.8 12.2C39.8 12 39.8 11.8 39.8 11.6C39.6 11.5 39.6 11.3 39.5 11.1ZM26.2 35.5C26.1 35.5 26 35.5 26 35.5C25.4 35.7 24.7 35.9 24.1 36.2C24.1 36.2 24 36.2 24 36.3C24.6 36.1 25.6 35.8 26.2 35.5C26.3 35.5 26.3 35.5 26.4 35.4C26.3 35.5 26.2 35.6 26.1 35.7C29.5 34.3 32.3 32.1 34.6 29.3C34.4 29.4 34.3 29.6 34.1 29.8C33.4 30.4 32.8 31 32.1 31.6C31.3 32.3 30.4 33 29.5 33.6C28.5 34.3 27.5 34.8 26.4 35.3C26.3 35.4 26.3 35.5 26.2 35.5ZM24.3 35.2C24.4 35.2 24.6 35.1 24.7 35.1C24.7 35.1 24.7 35.1 24.7 35C24.6 35.1 24.4 35.1 24.3 35.2H24.2C23.7 35.3 23.2 35.4 22.7 35.6C22 35.8 21.2 35.9 20.4 35.9C19.5 36 18.7 35.9 17.8 35.8C17.5 35.8 17.3 35.7 17 35.7C17.3 35.7 17.5 35.7 17.8 35.7C19 35.8 20.3 35.8 21.5 35.6C22.8 35.4 24.1 35.1 25.3 34.6C27.2 33.9 29 32.8 30.6 31.5C32.5 30 34 28.2 35.3 26.1C36.4 24.3 37.3 22.4 37.9 20.3C38.4 18.4 38.7 16.4 38.7 14.4C38.7 14.2 38.7 14.1 38.6 13.9C38.6 13.8 38.6 13.8 38.5 13.7C38.3 12.7 38.1 11.7 38 10.7C38 10.6 38 10.5 38 10.5C38 10.6 38.1 10.7 38.1 10.7C37.7 9.1 37.1 7.5 36.2 6C36.1 6.1 36 6.1 36 6C35.9 5.8 35.8 5.7 35.7 5.5C35.6 5.4 35.5 5.2 35.4 5.1C35.4 5.3 35.5 5.5 35.6 5.6C35.6 5.8 35.7 5.9 35.8 6C36 6.3 36.3 6.6 36.4 7C36.8 7.8 37.1 8.6 37.4 9.4C37.8 10.4 38 11.5 38.2 12.6C38.4 14.3 38.4 15.9 38.2 17.6C37.9 19.6 37.3 21.6 36.4 23.5C36.3 23.8 36.1 24.1 36 24.4C35.8 24.8 35.6 25.3 35.5 25.7C35.5 25.8 35.4 25.9 35.4 26C35.5 25.7 35.6 25.5 35.7 25.3C35 26.5 34.2 27.7 33.2 28.8C33.2 28.8 33.1 28.9 33.2 28.9C33.3 29.1 33.1 29.2 33 29.3C32.9 29.4 32.8 29.6 32.6 29.7C32 30.2 31.4 30.7 30.8 31.2C30 31.9 29.1 32.5 28.1 33.1L27.4 33.5C27.7 33.4 28 33.2 28.4 33.1C28.1 33.3 27.8 33.5 27.5 33.7C26.7 34.1 25.9 34.4 25.1 34.8C24.5 35 23.9 35.2 23.3 35.3C23.2 35.3 23.1 35.3 23 35.3C24 35.1 24.9 34.7 25.7 34.3C25.2 34.4 24.8 34.6 24.3 34.7C23.9 34.8 23.4 35 22.9 35.1C22.4 35.2 22 35.3 21.5 35.3C21.6 35.3 21.6 35.3 21.7 35.2C21.8 35.2 21.8 35.2 21.9 35.2C23.9 34.8 25.9 34.1 27.7 33.1C29.2 32.2 30.6 31.2 31.8 30C33.3 28.5 34.6 26.9 35.6 25C35.9 24.5 36.2 24 36.3 23.4C36.3 23.2 36.4 23.1 36.5 22.9V23C36.5 22.9 36.6 22.9 36.6 22.8C36.8 22.3 37 21.9 37.1 21.4C37.5 20.4 37.7 19.4 37.9 18.3C38.1 17 38.3 15.6 38.1 14.3C38 13.6 37.9 13 37.8 12.3C38 13.4 38 14.4 38 15.5C37.9 17.3 37.6 19 37.1 20.7C36.5 22.6 35.6 24.4 34.5 26C33.4 27.6 32.2 29.1 30.7 30.3C29 31.7 27.3 32.9 25.2 33.6C24.8 33.8 24.3 33.9 23.9 34C23.7 34.1 23.5 34.1 23.3 34.1C23.4 34 23.5 34 23.6 34C25.1 33.6 26.5 32.9 27.9 32.1C29.8 31 31.4 29.5 32.9 27.9C34.1 26.5 35.1 25 35.9 23.3C36.8 21.5 37.4 19.6 37.7 17.7C38 16 38 14.3 37.8 12.6V12.5C37.8 12.5 37.8 12.5 37.7 12.5C37.7 12.7 37.7 12.9 37.7 13.2C37.7 13.2 37.7 13.2 37.6 13.2C37.6 13.1 37.5 13.1 37.5 13C37.4 12.6 37.4 12.1 37.4 11.7C37.4 11.6 37.4 11.5 37.4 11.4C37.5 11.2 37.5 11.1 37.4 11C37.4 10.8 37.3 10.7 37.3 10.5C36.8 8.7 36.1 7.1 35.1 5.5C35.1 5.4 35 5.4 35 5.3C35 5.1 34.9 5 34.8 4.8C34.7 4.5 34.5 4.2 34.3 3.9C34.3 3.8 34.2 3.7 34.2 3.6C34.6 4.2 34.8 4.6 35 5C35.1 5.2 35.2 5.3 35.1 5.5V5.6C35.4 6.2 35.8 6.7 36.1 7.3C36.6 8.3 37 9.3 37.3 10.4C37.3 10.6 37.3 10.8 37.5 10.9C37.6 10.9 37.6 11 37.6 11.1C37.6 11.2 37.7 11.3 37.7 11.4C37.7 11.4 37.7 11.4 37.7 11.3C37.5 10.4 37.4 9.5 36.8 8.7C36.7 8.5 36.6 8.3 36.6 8.1C36.4 7.5 36.1 6.9 35.8 6.3C35.5 5.7 35.2 5.2 34.9 4.6C34.9 4.5 34.8 4.5 34.8 4.4H34.9C35 4.5 35.1 4.6 35.2 4.7C35.1 4.4 35 4.2 34.8 4C34.7 3.8 34.5 3.6 34.3 3.4C34.4 3.4 34.4 3.4 34.4 3.4C35.2 4.3 35.9 5.2 36.5 6.2C36.5 6.1 36.4 6 36.4 5.9C36.3 5.7 36.2 5.6 36.2 5.4C36.2 5.2 36 5 35.9 4.8C35.8 4.6 35.6 4.4 35.4 4.2C35.4 4.1 35.3 4.1 35.3 4C35.4 4.1 35.6 4.2 35.7 4.4C35.7 4.4 35.7 4.3 35.7 4.2C36.2 4.5 36.5 5 36.8 5.5C37.1 5.9 37.4 6.4 37.7 6.9C37.5 6.3 37.2 5.9 36.9 5.4C36.7 5.1 36.4 4.8 36.3 4.5C36.2 4.2 35.9 4 35.7 3.8C35.6 3.7 35.5 3.6 35.4 3.6L35.3 3.5C35.3 3.5 35.4 3.5 35.4 3.4C35.5 3.4 35.6 3.5 35.7 3.5C36 3.7 36.3 3.9 36.6 4.2C37.2 4.8 37.7 5.4 38 6.2C38.1 6.5 38.3 6.7 38.5 6.8C38.5 6.7 38.5 6.7 38.4 6.6C38 5.6 37.4 4.7 36.6 3.9C36.2 3.5 35.9 3.1 35.5 2.8C35.5 2.7 35.4 2.7 35.4 2.6C35.5 2.6 35.5 2.6 35.6 2.6C35.8 2.7 35.9 2.8 36.1 2.9C37.2 3.8 38 4.8 38.6 6.1C39 7 39.3 7.8 39.7 8.7C40 9.4 40.2 10.2 40.4 11C40.5 11.3 40.5 11.5 40.5 11.8C40.7 13.4 40.8 15 40.7 16.6C40.7 16.7 40.7 16.9 40.7 17C40.7 17.1 40.7 17.3 40.7 17.4C40.7 17.3 40.7 17.3 40.7 17.3C40.9 15.7 41.1 14 40.9 12.4C40.8 11.2 40.6 10 40.2 8.9C39.9 8.2 39.7 7.4 39.5 6.6C39.4 6.2 39.2 5.8 39 5.5C38.4 4.4 37.7 3.2 36.7 2.3C36.1 1.7 35.5 1.2 34.7 0.9C34.1 0.6 33.4 0.6 32.8 0.8C32.4 0.9 31.9 1.1 31.5 1.3C31.4 1.3 31.3 1.3 31.2 1.4C31.2 1.2 31.2 1.2 31.6 0.9C31.5 0.9 31.5 0.9 31.4 0.9C31 0.9 30.5 1 30.1 1C28.9 1 27.8 1.4 26.8 2C25.7 2.7 24.6 3.5 23.8 4.5C23.2 5.2 22.7 6 22.5 6.9C22.3 7.6 22.3 8.3 22.4 8.9C22.5 9.9 22.5 10.9 22.7 11.8C22.8 12.5 22.8 13.2 22.7 13.9C22.7 14.8 22.5 15.7 22.3 16.5C22.2 17.1 22 17.7 21.9 18.3C21.7 19.1 21.4 19.9 20.9 20.6C20.6 21 20.3 21.3 20 21.6C19.7 21.9 19.2 22.1 18.8 22.2H18.7C18.7 22.2 18.7 22.2 18.7 22.3C19 22.2 19.4 22.2 19.7 22.1C20.8 21.8 21.9 21.3 22.9 20.8C23 20.8 23 20.7 23.1 20.7C22.3 21.3 21.4 21.7 20.4 22.1C21.4 21.9 22.2 21.5 23.1 20.9C23.1 21 23.1 21.2 23 21.2C22.8 21.4 22.6 21.5 22.4 21.6C22.2 21.8 21.9 21.9 21.6 22C21.2 22.3 20.7 22.4 20.2 22.5C19.6 22.6 19 22.7 18.4 22.6C17.5 22.6 16.7 22.6 15.9 22.3C15.6 22.2 15.3 22.1 14.9 21.9C15 21.9 15 21.9 15 21.9C14.3 21.7 13.7 21.5 13.1 21.2C12.7 21 12.2 20.8 11.7 20.7C10.9 20.4 10 20.2 9.20001 19.9C8.20001 19.6 7.20001 19.5 6.20001 19.8C5.50001 19.9 4.90001 20.1 4.20001 20.2C3.60001 20.3 3.20001 20.6 2.70001 20.9C1.80001 21.6 1.30001 22.4 1.20001 23.5C0.900014 25.4 1.30001 27.2 2.20001 28.9C3.00001 30.5 4.10001 31.8 5.40001 32.9C7.00001 34.3 8.30001 35.2 9.80001 36C10.6 36.4 11.4 36.8 12.3 37.1C13 37.3 13.6 37.6 14.3 37.9C15.2 38.2 16.2 38.4 17.1 38.7C17.8 38.9 18.5 39 19.1 39C20.2 39 21.2 38.9 22.2 38.7C23.3 38.5 24.3 38.2 25.3 37.7C26.3 37.3 27.3 36.8 28.3 36.3C29.6 35.6 30.8 34.8 32 33.9C33.1 33 34.2 32.1 35.2 31C36.2 29.8 37.1 28.6 37.9 27.2C38.3 26.5 38.6 25.8 38.9 25.1C39.1 24.7 39.2 24.2 39.3 23.8C39.6 22.9 39.8 22 40 21.2C40.1 21 40.1 20.8 40.1 20.6C40.1 20.4 40.2 20.2 40.2 20C40.2 20 40.1 20.1 40.1 20.2C39.8 21.1 39.6 21.9 39.3 22.8C39.1 23.4 38.8 24 38.6 24.6C38.3 25.4 38 26.1 37.5 26.8C37.3 27.1 37 27.4 36.8 27.8C36.6 28.1 36.5 28.3 36.3 28.6C34.8 30.8 33 32.7 30.8 34.3C29.7 35.1 28.5 35.9 27.2 36.5C25.6 37.3 24 37.8 22.3 38.3C22 38.4 21.7 38.4 21.4 38.5C21.3 38.5 21.2 38.5 21 38.4C21.2 38.4 21.3 38.4 21.4 38.3C21.5 38.3 21.6 38.2 21.8 38.2C19.8 38.5 17.9 38.5 15.9 38.1C14 37.7 12.1 37 10.5 36C12.4 37 14.4 37.6 16.6 38C16.6 37.8 16.5 37.8 16.4 37.8C16.1 37.7 15.8 37.7 15.5 37.6C15.5 37.6 15.5 37.6 15.5 37.5C16.4 37.6 17.3 37.8 18.2 37.8C18 37.7 17.7 37.7 17.5 37.5C18.3 37.6 19.1 37.6 19.8 37.6C19.3 37.6 18.9 37.6 18.4 37.6C19.2 37.5 19.9 37.5 20.7 37.4C21.5 37.3 22.7 37.1 22.9 37C22.3 37.1 21.6 37.1 21 37.2C20 37.3 19.1 37.2 18.1 37.1C16.5 37 14.9 36.6 13.3 36.1C12.5 35.8 11.6 35.4 10.8 35C10.2 34.7 9.60001 34.4 9.10001 34C8.80001 33.8 8.60001 33.6 8.30001 33.4C8.30001 33.4 8.20001 33.3 8.20001 33.2C8.30001 33.2 8.30001 33.2 8.30001 33.2C8.40001 33.2 8.40001 33.3 8.50001 33.3C9.90001 34.3 11.4 35 12.9 35.6C13.1 35.7 13.3 35.8 13.5 35.8L13.6 35.9C13.6 36.1 13.7 36.1 13.8 36.1C14 36.2 14.2 36.2 14.5 36.3C15.7 36.6 16.8 36.8 18 36.9C19 37 20 36.9 21 36.8C21.2 36.8 21.4 36.7 21.6 36.7C21.5 36.7 21.4 36.7 21.3 36.7C20.8 36.7 20.4 36.7 19.9 36.7C19.7 36.7 19.6 36.6 19.4 36.6L19.3 36.5H19.5C20 36.6 20.4 36.5 20.8 36.4H20.9C20.7 36.3 20.5 36.4 20.4 36.2C20.6 36.2 20.8 36.2 20.9 36.2C22.5 35.8 23.4 35.5 24.3 35.2ZM32.3 30.3C32.9 29.8 33.5 29.4 34 28.8C34.4 28.2 34.9 27.7 35.3 27.1C35.7 26.5 36.1 25.9 36.4 25.2C36.6 24.8 36.7 24.4 36.9 24.1C36.9 24 37 23.9 37 23.9C37.1 23.9 37.2 23.8 37.2 23.7C37.5 22.9 37.8 22.2 38.1 21.4C38.7 19.6 39 17.8 39.1 15.9C39.2 14.4 39.1 12.9 38.8 11.5C38.5 9.8 37.9 8.2 37.1 6.6C37 6.5 37 6.3 36.9 6.2C36.9 6.4 36.8 6.5 36.9 6.7C37.1 7 37.2 7.3 37.4 7.6C38.1 9.2 38.6 10.8 38.8 12.5C39 14.2 39 16 38.8 17.7C38.7 18.1 38.7 18.5 38.6 18.9C38.6 19.2 38.5 19.6 38.5 19.9C38.5 20.1 38.4 20.3 38.3 20.5C38.2 20.4 38.2 20.4 38.2 20.4C37 24.2 35 27.5 32.3 30.3ZM38.7 20C38.6 20.1 38.6 20.1 38.6 20.2C38.3 21.3 37.9 22.4 37.5 23.4C37.1 24.2 36.7 25 36.3 25.8C36.1 26.1 35.9 26.4 35.8 26.8C35.7 26.9 35.7 27 35.6 27C35.4 27 35.4 27.1 35.3 27.2C34.7 28 34.2 28.8 33.5 29.5C32.7 30.4 31.9 31.2 31 31.9C29.8 32.8 28.6 33.7 27.3 34.3C27.1 34.4 26.9 34.4 26.9 34.6L26.8 34.7C26.7 34.8 26.5 34.9 26.3 34.9L26.2 35C26.3 35 26.3 34.9 26.4 34.9C27.5 34.3 28.6 33.7 29.6 33C31.1 32 32.5 30.9 33.7 29.6C35.4 27.7 36.7 25.7 37.7 23.4C38 22.6 38.4 21.9 38.5 21.1C38.5 20.9 38.6 20.4 38.7 20ZM37.3 6.5C37.5 6.7 37.6 6.9 37.7 7.1C37.8 7.6 38 8 38.2 8.5C38.4 9.1 38.5 9.8 38.7 10.5C39.3 12.9 39.4 15.3 39.1 17.8C39 18.3 38.9 18.8 39 19.3C39 19.4 39 19.6 39 19.8V19.7C39.4 17.9 39.6 16.1 39.6 14.3C39.6 12.9 39.3 11.6 39 10.2C38.6 8.8 38.1 7.5 37.4 6.2L37.3 6.1C37 6.1 37 6 37 5.8C36.9 5.6 36.8 5.5 36.7 5.3C36.5 5 36.3 4.8 36.1 4.5C36.5 5.2 36.9 5.9 37.4 6.6C37.3 6.6 37.3 6.6 37.3 6.5ZM39.2 19.5C38.8 21.4 38.1 23.2 37.2 24.9C37.1 25.1 37.1 25.3 37 25.4C36.8 25.9 36.5 26.5 36.1 26.9C35.9 27.1 35.7 27.3 35.6 27.6C35.3 27.9 35.1 28.3 34.8 28.6C34.7 28.7 34.6 28.9 34.5 29C34.6 29 34.6 29 34.6 29C35.2 28.4 35.8 27.8 36.2 27.1C37.2 25.5 38 23.9 38.6 22.2C39 21.3 39.1 20.4 39.2 19.5ZM40.3 14.3C40.2 14.5 40.1 14.7 40.1 14.9C40.1 16 40 17.2 39.9 18.3C39.7 19.4 39.5 20.4 39.2 21.4C39.1 21.9 38.9 22.4 38.8 22.9C39.1 22.4 39.6 20.8 39.7 20.1C39.8 19.4 39.9 18.8 40 18.1C40 18 40 17.9 40.1 17.8C40.1 17.7 40.2 17.6 40.2 17.5C40.3 16.8 40.3 16 40.3 15.3C40.3 14.9 40.3 14.6 40.3 14.3ZM39.4 19.3C39.5 19.3 39.5 19.3 39.4 19.3C39.8 17.5 40 15.6 39.8 13.8C39.8 13.9 39.8 14 39.7 14.1C39.7 14.2 39.7 14.3 39.6 14.3C39.5 14.4 39.5 14.5 39.5 14.7C39.5 15.4 39.5 16 39.4 16.7C39.4 17 39.3 17.3 39.3 17.6C39.3 18.1 39.2 18.6 39.2 19.1C39.5 19.2 39.4 19.3 39.4 19.3ZM34.3 30.1C34.7 29.7 35.1 29.3 35.5 28.9C36.5 27.7 37.3 26.4 37.9 25C38.1 24.5 38.3 24 38.4 23.5C38.4 23.6 38.3 23.6 38.3 23.7C38 24.3 37.7 24.9 37.4 25.5C37.3 25.7 37.2 25.9 37.1 26.1C37 26.4 36.9 26.6 36.7 26.9C36.6 27.1 36.4 27.3 36.2 27.5C35.7 28.2 35.1 28.9 34.6 29.7C34.5 29.8 34.4 30 34.3 30.1ZM31.9 31C30.9 31.7 29.9 32.5 28.7 33.2C27.6 33.8 26.5 34.4 25.3 34.9C25.4 34.9 25.6 34.8 25.7 34.8C26.3 34.6 26.9 34.3 27.6 34C27.8 33.9 28 33.9 28.2 33.8C29.2 33.3 30 32.6 30.9 32C31.2 31.6 31.5 31.3 31.9 31ZM39 23.2C38.2 25.1 37.3 27 36 28.6C34.8 30.3 33.4 31.8 31.8 33.1C31.8 33.1 31.8 33.1 31.9 33.1C32 33.1 32 33 32.1 33C33.3 32 34.4 30.8 35.4 29.6C36.3 28.5 37.1 27.3 37.7 26.1C38.2 25.1 38.7 24.2 39 23.2ZM40.1 13.5C40 12.7 40.1 11.9 39.9 11.1C39.7 10.4 39.5 9.6 39.3 8.9C39.3 9.3 39.4 9.7 39.5 10C39.7 10.9 39.9 11.7 40 12.6C40 12.9 40 13.2 40.1 13.5ZM32.5 32.1C31.8 32.6 31.1 33.2 30.4 33.7C29.7 34.2 28.9 34.7 28.2 35.2C29.1 34.8 32.2 32.6 32.5 32.1ZM23.4 37.4C24.4 37.3 27.8 36 28.2 35.5C26.7 36.3 25.1 36.9 23.4 37.4ZM39.7 9.4C40 10.9 40.4 12.3 40.5 13.8C40.5 12.3 40.2 10.8 39.7 9.4ZM23.8 36.9C24.6 36.8 25.4 36.5 26.1 36.1C26 36.1 25.9 36.1 25.9 36.1C25.4 36.3 25 36.4 24.5 36.6C24.2 36.7 24 36.8 23.8 36.9ZM39.9 20.5C40.2 19.3 40.5 18.2 40.5 17C40.3 18.1 40.1 19.3 39.9 20.5ZM20.2 37.8C19.1 37.8 18.1 37.7 17.1 37.6C18.1 37.8 19.1 37.9 20.2 37.8ZM40.6 15C40.5 15.5 40.5 16 40.5 16.5C40.6 16 40.6 15.5 40.6 15ZM26.2 33.9L25.8 34C25.9 34 26 33.9 26.2 33.9Z" fill="#6F7FB5"/>
<path d="M34.9 7.1C35.2 7.5 35.4 8 35.6 8.4L34.4 5C34.4 5.1 34.5 5.2 34.5 5.3C35 6.2 35.5 7 35.9 7.9C36.8 9.7 37.3 11.5 37.4 13.5C37.5 15.3 37.4 17.1 37 18.9C36.6 20.5 36.1 22 35.4 23.5C34.8 24.7 34.1 25.8 33.3 26.8C32.2 28.3 30.8 29.6 29.3 30.7C28 31.7 26.5 32.5 25 33.1C24.8 33.2 24.5 33.3 24.3 33.4C22.9 34.1 21.4 34.4 19.8 34.4C19.6 34.4 19.5 34.4 19.3 34.3C20.4 34.3 21.4 34.1 22.4 33.8C22.3 33.8 22.3 33.8 22.2 33.7C22.4 33.6 22.6 33.6 22.8 33.6C25.1 33 27.1 32.1 29 30.7C30.7 29.5 32.1 28 33.4 26.3C35 24.1 36.2 21.7 36.8 19C37.2 17.5 37.3 16 37.3 14.5C37.3 13.2 37.1 12 36.8 10.7C36.5 9.6 36.2 8.6 35.7 7.6C35.7 7.6 35.7 7.5 35.6 7.5C35.6 7.6 35.6 7.7 35.7 7.7C36 8.7 36.4 9.8 36.6 10.9C37 12.8 37.2 14.7 36.9 16.7C36.7 18 36.5 19.3 36 20.5C35.4 22.4 34.5 24.2 33.3 25.8C32.7 26.6 32.2 27.4 31.5 28.1C30.4 29.2 29.3 30.1 28 31C28 31 28 31 27.9 31.1C28 31.1 28.1 31 28.3 31C28.1 31.5 26.3 32.4 25.5 32.5C25.9 32.2 26.3 32.1 26.7 31.8C24.7 32.8 22.5 33.5 20.2 33.5C20.3 33.5 20.5 33.5 20.6 33.4C20.7 33.4 20.9 33.4 21 33.3C22 33.2 22.9 33 23.8 32.7C25.2 32.3 26.4 31.6 27.7 30.9C29.5 29.8 31 28.4 32.3 26.7C32.8 26.1 33.2 25.4 33.5 24.6C33.6 24.5 33.6 24.3 33.7 24.1C33.4 24.6 33.1 25 32.8 25.5C32.1 26.5 31.3 27.5 30.4 28.4C30 28.8 29.5 29.1 29.1 29.5C27.9 30.5 26.6 31.3 25.2 31.9C23.9 32.4 22.6 32.8 21.2 33C20 33.1 18.8 33.1 17.7 32.9C17.3 32.8 16.9 32.7 16.5 32.7C16.4 32.7 16.3 32.7 16.3 32.6C16.4 32.6 16.5 32.6 16.7 32.7C17.9 33 19.2 33 20.4 33C21.4 32.9 22.4 32.8 23.3 32.5C25.6 31.8 27.7 30.7 29.5 29.1C30.8 28 31.9 26.8 32.8 25.4C33 25.1 33.2 24.7 33.4 24.4C33.5 24.3 33.5 24.2 33.6 24.1C33.6 24.2 33.6 24.3 33.6 24.4C34 23.7 34.4 23 34.7 22.3C35.5 20.6 36 18.8 36.2 17C36.5 14.8 36.3 12.6 35.7 10.5C35.7 10.5 35.7 10.4 35.6 10.4C35.6 10.6 35.6 10.8 35.7 11C35.7 10.9 35.6 10.8 35.6 10.7C35.5 10.1 35.3 9.6 35.2 9C35.1 8.8 35 8.6 35 8.4C35 8.3 34.9 8.3 35 8.2V8.1C35 8 34.9 7.8 34.9 7.6C34.9 7.7 35 7.8 35 7.9C35.2 8.7 35.5 9.4 35.8 10.2C36.2 11.4 36.4 12.7 36.5 14C36.7 16.7 36.2 19.2 35.1 21.7C35 22 34.8 22.3 34.7 22.6C34.7 22.7 34.6 22.7 34.6 22.8C34.5 23.1 34.4 23.4 34.3 23.7C34.2 24 34.1 24.2 34 24.5C34 24.5 34 24.5 34.1 24.5C34.2 24.3 34.3 24.2 34.4 24C35.5 22.1 36.2 20.1 36.6 17.9C36.9 16.3 37 14.8 36.8 13.2C36.8 13.1 36.8 12.9 36.8 12.8C36.6 12.2 36.6 11.5 36.4 10.8C36.2 10.2 36 9.5 35.8 8.9C35.6 8.3 35.3 7.8 35 7.3C34.8 7.2 34.8 7.1 34.9 7.1C34.8 7.1 34.8 7.1 34.9 7.1Z" fill="#6F7FB5"/>
<path d="M34.8 10.9C35.1 11.7 35.2 12.5 35.3 13.4C35.4 14.9 35.4 16.4 35.1 17.9C34.8 19.5 34.3 21 33.5 22.5C33.1 23.2 32.7 23.9 32.3 24.6C32 25 31.8 25.4 31.5 25.8C31.1 26.3 30.7 26.7 30.3 27.1C29.8 27.6 29.3 28.1 28.7 28.6C28.6 28.7 28.5 28.8 28.4 28.9C28 29.3 27.6 29.7 27.2 30C26.8 30.3 26.5 30.5 26.1 30.8C26.2 30.8 26.3 30.7 26.4 30.7C27.4 30.1 28.4 29.5 29.3 28.7C30.4 27.8 31.3 26.8 32.1 25.6C32.5 25 33 24.3 33.4 23.7C34.1 22.4 34.7 21.1 35.1 19.7C35.4 18.7 35.6 17.6 35.7 16.5C35.9 14.9 35.8 13.3 35.4 11.7C35.3 11.2 35.1 10.7 35 10.3C35 10.3 35 10.2 34.9 10.2C34.9 10.3 34.9 10.5 34.9 10.6C34.9 10.6 34.9 10.6 34.8 10.6V10.5C34.6 9 34.1 7.7 33.7 6.2C33.7 6.2 33.7 6.2 33.7 6.1C33.9 6.2 34 6.3 34 6.3C34.2 7 34.5 7.8 34.7 8.5C34.9 9 35 9.6 35.2 10.1C35.6 11.4 35.9 12.8 35.9 14.2C36 15.7 35.8 17.1 35.5 18.5C35.2 19.9 34.7 21.3 34 22.6C33.5 23.6 33 24.5 32.3 25.4C32 25.9 31.7 26.3 31.3 26.8C31 27.2 30.6 27.6 30.1 27.9C29.8 28.1 29.5 28.4 29.2 28.7C28 29.8 26.6 30.6 25.1 31.3C24.1 31.8 23 32.1 21.9 32.3C20.8 32.5 19.6 32.6 18.4 32.4H18.3C18.3 32.4 18.3 32.4 18.2 32.4C18.3 32.4 18.3 32.4 18.4 32.4C19 32.4 19.6 32.4 20.2 32.4C21.1 32.4 21.9 32.2 22.7 32C23.2 31.9 23.6 31.7 24.1 31.5C24.6 31.3 25 31.1 25.4 30.8C25.8 30.6 26.2 30.3 26.6 30C26.9 29.8 27.1 29.6 27.3 29.4C25.5 30.6 23.5 31.5 21.3 31.7L21.6 31.6C21.7 31.6 21.8 31.5 21.9 31.5C22.8 31.3 23.7 31 24.6 30.6C24.7 30.6 24.8 30.5 24.8 30.4C24.8 30.3 24.9 30.3 25 30.3C25.7 29.9 26.5 29.5 27.1 28.9C27.3 28.8 27.4 28.6 27.6 28.5C27.7 28.4 27.7 28.4 27.8 28.4C27.7 28.7 27.4 28.9 27.2 29.1C27.4 28.9 27.7 28.8 27.9 28.6C29 27.7 30.1 26.8 30.9 25.6C31.2 25.2 31.5 24.8 31.7 24.3C31.8 24.2 31.8 24.1 31.9 24.1C32 24.1 32 24 32 23.9C32.8 22.7 33.4 21.5 33.8 20.2C34.3 18.8 34.6 17.4 34.7 16C34.8 14.6 34.8 13.2 34.5 11.8C34.5 11.7 34.5 11.5 34.4 11.4C34.9 11.3 34.8 11.1 34.8 10.9Z" fill="#6F7FB5"/>
<path d="M32.6 1.6C32.5 1.7 32.5 1.7 32.4 1.8C32.2 1.8 31.9 1.8 31.6 1.9C30.7 2 29.9 2.4 29.1 3C28.6 3.4 28.1 3.8 27.8 4.3C27.5 4.8 27.3 5.2 27.1 5.8C26.7 7.1 26.6 8.4 26.5 9.7C26.5 10.4 26.6 11.1 26.8 11.8C27 12.7 27.2 13.6 27.2 14.6C27.2 15.6 27.1 16.7 26.6 17.6C26.4 18 26.1 18.4 25.7 18.8C25.4 19.1 25.2 19.3 24.9 19.6C24.9 19.6 24.9 19.6 24.8 19.6C24.9 19.5 24.9 19.5 25 19.4C25.3 19 25.7 18.6 26 18.1C26.5 17.4 26.7 16.7 26.8 15.9C26.9 15.1 26.9 14.2 26.7 13.4C26.5 12.6 26.4 11.8 26.3 10.9C26.2 10.3 26 9.7 26 9C26 8.3 26.2 7.6 26.3 6.8C26.4 6.2 26.5 5.6 26.8 5.1C27.2 4.2 27.7 3.4 28.5 2.9C29.4 2.3 30.4 1.8 31.4 1.6C31.7 1.5 32 1.6 32.3 1.6C32.5 1.5 32.5 1.5 32.6 1.6Z" fill="#6F7FB5"/>
<path d="M26.1 6.1C26 6.6 25.9 7 25.9 7.4C25.8 8.2 25.8 9.1 25.9 9.9C25.9 10 25.9 10.1 26 10.2C26.2 10.9 26.3 11.6 26.3 12.4C26.3 13.1 26.4 13.8 26.3 14.5C26.1 15.5 25.9 16.4 25.4 17.3C25.4 17.4 25.3 17.4 25.3 17.5C25.3 17.4 25.4 17.2 25.4 17.1C25.8 16.1 26 15 26.1 13.9C26.1 13.4 26.1 12.8 26 12.3C25.9 11.8 25.8 11.2 25.7 10.7C25.6 10.1 25.5 9.5 25.5 8.9C25.5 8.8 25.5 8.7 25.6 8.6C25.6 8.7 25.7 8.7 25.8 8.8C25.5 7.8 25.6 6.9 26.1 6.1Z" fill="#6F7FB5"/>
<path d="M33.9 14.8C33.9 14.9 33.9 15.1 33.9 15.2C33.8 16.5 33.6 17.8 33.3 19C32.9 20.2 32.4 21.4 31.8 22.5C31.1 23.6 30.4 24.7 29.5 25.6C28.3 26.9 26.9 28 25.3 28.8C24.1 29.4 22.9 29.8 21.6 30C21.3 30 21 30.1 20.7 30.1C21.1 30 21.5 29.9 21.9 29.9C23.7 29.5 25.4 28.7 26.9 27.7C28.8 26.3 30.4 24.6 31.6 22.6C32.8 20.5 33.5 18.3 33.7 16C33.7 15.7 33.8 15.4 33.8 15.1C33.9 14.9 33.9 14.8 33.9 14.8Z" fill="#6F7FB5"/>
<path d="M34.6 14.5C34.6 15 34.6 15.6 34.6 16.1C34.4 18.6 33.6 20.9 32.4 23C31.7 24.2 30.9 25.3 29.9 26.4C29.6 26.7 29.3 27 29 27.3C28.5 27.8 28 28.2 27.5 28.6C27.2 28.8 26.9 29 26.5 29.1C26.2 29.2 25.9 29.4 25.6 29.6C24.6 30.1 23.5 30.5 22.3 30.7C22.3 30.7 22.3 30.7 22.2 30.7C25.9 29.8 28.8 27.7 31.1 24.7C33.3 21.7 34.5 18.3 34.6 14.5Z" fill="#6F7FB5"/>
<path d="M5.90001 20.3C6.10001 20.3 6.30001 20.2 6.40001 20.2C7.50001 20.1 8.50001 20.2 9.50001 20.4C10.5 20.6 11.6 20.9 12.5 21.3C13.1 21.6 13.6 21.9 14.2 22.1C14.5 22.3 14.9 22.4 15.3 22.6C15.3 22.6 15.3 22.6 15.3 22.7C15 22.6 14.7 22.5 14.4 22.4C13.7 22.2 13.1 21.9 12.4 21.7C11.5 21.4 10.5 21 9.50001 20.8C8.50001 20.5 7.50001 20.4 6.50001 20.5C6.40001 20.4 6.20001 20.4 5.90001 20.3Z" fill="#6F7FB5"/>
<path d="M22.1 29.2C25.1 28.4 27.6 26.8 29.6 24.4C31.6 22 32.8 19.3 33.2 16.3V16.5C33.1 17.9 32.7 19.2 32.1 20.5C31.3 22.4 30.1 24.1 28.7 25.6C27.5 26.8 26.2 27.7 24.7 28.5C23.9 28.9 23.1 29.2 22.2 29.3C22.2 29.2 22.2 29.3 22.1 29.2Z" fill="#6F7FB5"/>
<path d="M25.9 4.8C25.5 5.5 25.3 6.3 25.1 7C25.1 7 25.2 7 25.2 6.9C25.2 7 25.2 7.1 25.2 7.2C25.1 8.2 25.1 9.2 25.3 10.2C25.5 11.4 25.6 12.6 25.6 13.8C25.6 14.6 25.5 15.3 25.3 16C25.2 16.2 25.1 16.5 25 16.7C25.1 16.3 25.2 15.9 25.3 15.5C25.4 14.9 25.5 14.4 25.5 13.8C25.4 12.7 25.4 11.7 25.3 10.6C25.2 9.9 25.2 9.2 25.1 8.5C25.1 8.4 25.1 8.2 25.1 8.1C25.1 7.7 25.2 7.4 25.1 7C25.1 6.6 25.2 6.3 25.3 5.9C25.4 5.5 25.6 5.2 25.7 4.9C25.6 4.9 25.7 4.8 25.9 4.8Z" fill="#6F7FB5"/>
<path d="M23 28.2C24.7 27.5 26.3 26.6 27.7 25.3C29.1 24 30.2 22.5 31.1 20.9C31.1 21 31 21.1 31 21.3C30.9 21.4 30.9 21.6 30.8 21.7C30 23 29 24.3 27.9 25.3C26.9 26.3 25.7 27.1 24.5 27.7C24.1 27.9 23.7 28 23.3 28.2C23.2 28.2 23.1 28.2 23 28.2Z" fill="#6F7FB5"/>
<path d="M5.80001 20.8C5.90001 20.8 6.00001 20.7 6.10001 20.7C6.80001 20.5 7.50001 20.5 8.20001 20.6C9.00001 20.7 9.80001 20.9 10.6 21.2C11 21.3 11.4 21.5 11.7 21.6C12 21.7 12.2 21.8 12.5 22C12.2 22 11.9 21.9 11.7 21.8C11.2 21.6 10.7 21.5 10.2 21.3C9.40001 21 8.70001 20.9 8.00001 20.9C7.40001 20.9 6.70001 20.9 6.10001 20.9C6.00001 20.9 5.90001 20.9 5.80001 20.8Z" fill="#6F7FB5"/>
<path d="M7.20001 31.5C7.10001 31.4 6.90001 31.4 6.80001 31.3C5.50001 30.3 4.30001 29.2 3.40001 27.9C3.20001 27.7 3.10001 27.4 3.00001 27.2C3.00001 27 3.00001 26.9 2.90001 26.8C2.90001 26.8 2.90001 26.8 3.00001 26.8C3.10001 26.9 3.20001 27.1 3.20001 27.2C3.90001 28.4 4.90001 29.4 6.00001 30.4C6.40001 30.7 6.70001 31 7.10001 31.3C7.10001 31.3 7.20001 31.4 7.20001 31.5Z" fill="#6F7FB5"/>
<path d="M24.2 15.9C24.3 15.2 24.3 14.4 24.3 13.7C24.3 12.9 24.2 12.2 24.2 11.4C24.1 10.7 24 10 24 9.2C24.1 9.3 24.1 9.4 24.2 9.5C24.3 10 24.4 10.5 24.4 11C24.5 12.2 24.6 13.3 24.5 14.5C24.5 14.9 24.4 15.3 24.3 15.7C24.3 15.8 24.2 15.9 24.2 15.9Z" fill="#6F7FB5"/>
<path d="M7.00001 30.7C6.90001 30.7 6.90001 30.6 6.80001 30.6C6.20001 30.2 5.60001 29.6 5.10001 29.1C4.40001 28.4 3.80001 27.6 3.30001 26.8C3.20001 26.7 3.10001 26.5 3.10001 26.4C3.10001 26.3 3.10001 26.2 3.10001 26.1C4.10001 27.8 5.50001 29.2 7.00001 30.7C7.00001 30.6 7.10001 30.6 7.00001 30.7Z" fill="#6F7FB5"/>
<path d="M9.40001 28.3C7.90001 28.2 4.60001 26.1 4.40001 25.1C4.50001 25.2 4.60001 25.2 4.60001 25.3C5.10001 25.9 5.70001 26.4 6.30001 26.8C6.90001 27.2 7.50001 27.5 8.10001 27.8C8.60001 27.9 9.00001 28.1 9.40001 28.3Z" fill="#6F7FB5"/>
<path d="M12.8 35.6C12.7 35.6 12.6 35.6 12.6 35.6C11.8 35.3 11.1 35 10.3 34.6C9.70001 34.3 9.00001 33.9 8.50001 33.4C8.40001 33.3 8.20001 33.2 8.10001 33H8.20001C9.60001 34.1 11.2 34.8 12.8 35.6Z" fill="#6F7FB5"/>
<path d="M11.1 21.8C11 21.8 10.9 21.7 10.8 21.7C10.4 21.6 10 21.5 9.50001 21.4C9.20001 21.3 8.90001 21.2 8.60001 21.2C7.90001 21.1 7.20001 21.2 6.50001 21.2C6.30001 21.2 6.10001 21.2 6.00001 21.2C6.00001 21.2 6.00001 21.2 6.00001 21.1C6.10001 21.1 6.30001 21 6.40001 21C7.50001 21 8.70001 21 9.90001 21.3C10.3 21.4 10.6 21.5 10.9 21.7C11 21.7 11 21.7 11.1 21.8Z" fill="#6F7FB5"/>
<path d="M3.90001 25.1C4.10001 25.4 4.40001 25.7 4.60001 25.9C5.20001 26.5 5.90001 27 6.60001 27.4C7.30001 27.8 7.90001 28.1 8.60001 28.5C8.70001 28.5 8.70001 28.6 8.80001 28.7C8.60001 28.7 8.50001 28.6 8.30001 28.6C7.70001 28.3 7.10001 28 6.60001 27.7C5.90001 27.3 5.20001 26.8 4.70001 26.3C4.40001 26 4.20001 25.7 4.00001 25.4C3.90001 25.3 3.90001 25.2 3.90001 25.1C3.80001 25.1 3.80001 25.1 3.90001 25.1Z" fill="#6F7FB5"/>
<path d="M13.3 30.9C12.9 30.8 12.4 30.7 12 30.6C11 30.4 10.1 30 9.20001 29.7C8.70001 29.5 8.20001 29.3 7.80001 29L7.70001 28.9C7.90001 28.9 8.00001 29 8.10001 29C9.30001 29.6 10.7 30.1 12 30.4C12.4 30.5 12.7 30.6 13.1 30.7C13.2 30.8 13.2 30.8 13.3 30.9Z" fill="#6F7FB5"/>
<path d="M14 34.2C13.8 34.3 13.7 34.2 13.6 34.2C13.3 34.1 13 34 12.7 33.9C11.5 33.4 10.3 32.9 9.20001 32.1C9.00001 32 8.90001 31.8 8.70001 31.7C8.70001 31.7 8.70001 31.7 8.60001 31.6C9.50001 32.1 10.3 32.6 11.2 33.1C12.1 33.5 13.1 33.9 14 34.2Z" fill="#6F7FB5"/>
<path d="M26.7 4.2C27.1 3.1 30 1.2 30.8 1.3C30.7 1.3 30.7 1.4 30.6 1.4C29.3 1.9 28.2 2.6 27.3 3.6C27.2 3.8 27 4.1 26.7 4.2Z" fill="#6F7FB5"/>
<path d="M26.7 14C26.7 15 26.6 16 26.3 16.9C26.1 17.5 25.8 18 25.4 18.4C25.4 18.4 25.4 18.4 25.3 18.4C25.3 18.3 25.3 18.3 25.4 18.2C25.5 17.9 25.7 17.7 25.8 17.4C26.2 16.7 26.3 15.9 26.5 15C26.6 14.7 26.6 14.4 26.6 14.1C26.6 14.1 26.6 14 26.7 14C26.7 13.9 26.6 13.9 26.7 14Z" fill="#6F7FB5"/>
<path d="M12.7 36.2C11.8 36.1 8.30001 34.2 7.80001 33.4C8.60001 34 9.30001 34.5 10.2 35C11 35.3 11.8 35.7 12.7 36.2Z" fill="#6F7FB5"/>
<path d="M25.6 3.3C25.4 3.5 25.3 3.7 25.1 3.9C24.7 4.3 24.5 4.8 24.2 5.3C24 5.7 23.9 6.1 23.7 6.6C23.7 6.5 23.6 6.4 23.7 6.3C23.7 6.1 23.7 6 23.8 5.8C24 4.9 24.5 4.2 25.2 3.6C25.3 3.5 25.4 3.4 25.5 3.4C25.4 3.3 25.5 3.3 25.6 3.3Z" fill="#6F7FB5"/>
<path d="M11.6 31.9C11.7 31.9 11.8 32 11.9 32C12.4 32.2 12.8 32.4 13.3 32.6C13.9 32.8 14.5 33 15.1 33.2C15.3 33.3 15.4 33.3 15.6 33.4C15 33.6 12.2 32.6 11.6 31.9Z" fill="#6F7FB5"/>
<path d="M24.6 15.9C24.8 13.9 24.8 12 24.6 10C24.6 10.1 24.6 10.2 24.7 10.3C24.9 11.3 24.9 12.3 24.9 13.2C24.9 13.9 24.8 14.6 24.8 15.4C24.8 15.5 24.7 15.7 24.6 15.9Z" fill="#6F7FB5"/>
<path d="M31 7.8C30.8 9.6 30.9 11.3 31 13.1C31 13 30.9 12.9 30.9 12.8C30.8 12 30.7 11.2 30.7 10.4C30.7 9.6 30.7 8.9 30.9 8.1C30.9 8 30.9 7.9 31 7.8Z" fill="#6F7FB5"/>
<path d="M30.7 7.7C30.7 9.3 30.5 10.8 30.6 12.4C30.5 12.4 30.4 12.2 30.4 12.1C30.4 11.8 30.4 11.5 30.4 11.3C30.4 10.2 30.5 9.1 30.6 8C30.6 7.9 30.6 7.8 30.7 7.7Z" fill="#6F7FB5"/>
<path d="M25.8 4.5C25.8 4.4 25.9 4.3 25.9 4.3C26.2 3.7 26.7 3.3 27.1 2.8C27.5 2.4 27.9 2.1 28.3 1.9C28.6 1.8 28.7 1.7 28.9 1.7C28.6 1.9 28.3 2.1 28 2.3C27.7 2.5 27.5 2.7 27.2 3C26.9 3.2 26.7 3.5 26.5 3.7C26.3 4 26 4.3 25.8 4.5Z" fill="#6F7FB5"/>
<path d="M6.50001 31.8C6.40001 31.7 6.30001 31.7 6.20001 31.6C5.20001 30.9 4.30001 30 3.60001 29C3.40001 28.7 3.40001 28.6 3.30001 28.3C4.20001 29.7 5.30001 30.7 6.50001 31.8Z" fill="#6F7FB5"/>
<path d="M18 23.6C17.9 23.6 17.8 23.7 17.7 23.7C17.2 23.8 16.8 23.7 16.3 23.6C15.5 23.5 14.7 23.3 13.9 23C13.8 23 13.7 22.9 13.6 22.9C13.7 22.9 13.7 22.9 13.8 22.9C14.3 23 14.9 23.1 15.4 23.2C16.1 23.3 16.8 23.5 17.6 23.5C17.7 23.5 17.8 23.5 18 23.6Z" fill="#6F7FB5"/>
<path d="M23.1 10C23.1 10.3 23.1 10.6 23.1 10.8C23.1 11.1 23.1 11.4 23.1 11.8C23.1 11.9 23.1 12 23 12.1V12C22.9 10.7 22.8 9.4 22.7 8.1C22.7 7.8 22.7 7.6 22.7 7.3C22.7 7.3 22.7 7.3 22.8 7.3C22.8 7.4 22.8 7.5 22.8 7.6C22.9 8.4 22.9 9.1 23 9.9C23.1 9.9 23.1 10 23.1 10Z" fill="#6F7FB5"/>
<path d="M24.9 4.7C24.5 5.3 24.3 5.9 24.1 6.6C23.9 7.3 23.9 7.9 23.8 8.6C23.8 8.6 23.8 8.6 23.7 8.6C23.7 8.5 23.6 8.4 23.6 8.3C23.6 7.9 23.6 7.5 23.7 7.1C23.8 6.5 24 6 24.2 5.5C24.3 5.3 24.4 5.1 24.6 4.9C24.6 4.8 24.7 4.7 24.9 4.7Z" fill="#6F7FB5"/>
<path d="M14.2 33.8C14 33.9 13.8 33.8 13.6 33.7C12.8 33.4 12 33.1 11.2 32.7C10.8 32.5 10.5 32.3 10.2 32.1C10.1 32 10 31.9 10 31.8C11.3 32.6 12.7 33.2 14.2 33.8Z" fill="#6F7FB5"/>
<path d="M23.2 13.1C23.4 14.2 22.9 17.2 22.4 17.8C22.5 17.6 22.5 17.4 22.6 17.2C22.9 16.3 23 15.4 23 14.4C23 14 23.1 13.7 23.1 13.3C23.2 13.3 23.2 13.2 23.2 13.1Z" fill="#6F7FB5"/>
<path d="M29.1 9.8C28.8 9.2 29.4 6.2 29.8 5.7C29.7 6.4 29.5 7 29.4 7.7C29.3 8.4 29.2 9.1 29.1 9.8Z" fill="#6F7FB5"/>
<path d="M29.6 5.5C29.3 6.1 29.2 6.8 29.1 7.4C29 8 28.8 8.7 28.8 9.4C28.7 9.3 28.6 9.2 28.6 9C28.6 8.5 28.7 8.1 28.8 7.6C28.9 7 29 6.4 29.3 5.8C29.4 5.7 29.4 5.6 29.6 5.5Z" fill="#6F7FB5"/>
<path d="M6.20001 22.4C6.90001 22.2 10.1 23.1 11.1 23.7C11 23.7 10.9 23.7 10.8 23.6C9.40001 23.1 7.90001 22.6 6.40001 22.4C6.40001 22.4 6.30001 22.4 6.20001 22.4Z" fill="#6F7FB5"/>
<path d="M23.9 14.4C24 12.9 23.8 11.4 23.7 9.9C24 11.4 24.2 12.9 23.9 14.4Z" fill="#6F7FB5"/>
<path d="M30.1 6.2C29.8 7.6 29.6 9 29.4 10.4C29.3 10.2 29.3 10.1 29.3 10C29.4 9.3 29.4 8.6 29.5 7.9C29.6 7.4 29.7 6.9 29.8 6.4C29.9 6.4 30 6.3 30.1 6.2Z" fill="#6F7FB5"/>
<path d="M9.90001 24.1L13.8 25.6C13.1 25.6 10.7 24.7 9.90001 24.1Z" fill="#6F7FB5"/>
<path d="M6.60001 29.8C5.60001 29.2 3.60001 26.8 3.60001 26C4.40001 27.4 5.40001 28.6 6.60001 29.8Z" fill="#6F7FB5"/>
<path d="M31.5 8.1C31.5 8.9 31.4 9.8 31.5 10.6C31.5 11.4 31.6 12.3 31.6 13.1C31.2 12.3 31.2 8.8 31.5 8.1Z" fill="#6F7FB5"/>
<path d="M16.6 23.2C15.3 23 14.1 22.6 12.9 22.1C13.2 22.1 13.4 22.1 13.6 22.2C14.5 22.5 15.5 22.8 16.4 23.1C16.4 23.1 16.5 23.2 16.6 23.2Z" fill="#6F7FB5"/>
<path d="M33.7 7C34.1 7.4 34.5 9.8 34.4 10.5C34.2 9.3 33.9 8.2 33.7 7Z" fill="#6F7FB5"/>
<path d="M14.7 24.2C16.2 24.4 16.4 24.4 18.3 24.3C17.5 24.7 15.4 24.7 14.7 24.2Z" fill="#6F7FB5"/>
<path d="M23.3 20.2C22.9 20.7 20.9 21.5 20.5 21.4C20.9 21.1 21.5 21 21.9 20.8C22.3 20.7 22.8 20.5 23.3 20.2Z" fill="#6F7FB5"/>
<path d="M25.5 4.7C25 5.5 24.7 6.4 24.6 7.4C24.5 7.3 24.5 7.1 24.5 7C24.6 6.6 24.6 6.3 24.7 5.9C24.8 5.5 25 5.2 25.2 4.9C25.3 4.8 25.3 4.8 25.5 4.7Z" fill="#6F7FB5"/>
<path d="M25 4.9C24.8 5.3 24.6 5.8 24.5 6.2C24.4 6.7 24.3 7.1 24.2 7.6C24.2 7.5 24.2 7.4 24.1 7.4C24.1 6.9 24.2 6.5 24.3 6C24.4 5.7 24.6 5.4 24.8 5C24.9 5 24.9 4.9 25 4.9Z" fill="#6F7FB5"/>
<path d="M9.80001 21.8H9.90001C10.5 21.8 11 21.9 11.5 22.1C11.8 22.2 12.1 22.3 12.4 22.4C12.5 22.4 12.5 22.5 12.5 22.5C11.6 22.4 10.7 22.1 9.80001 21.8Z" fill="#6F7FB5"/>
<path d="M11.8 26.4C12.9 26.6 14 26.9 15.1 27.1C14 27.1 12.9 26.9 11.8 26.4Z" fill="#6F7FB5"/>
<path d="M11.1 30.8C10.5 30.8 8.10001 29.7 7.80001 29.3C8.90001 29.8 10 30.2 11.1 30.8C11.1 30.7 11.1 30.7 11.1 30.8Z" fill="#6F7FB5"/>
<path d="M9.70001 27.8C9.10001 27.8 6.60001 26.5 6.30001 26C6.90001 26.3 7.40001 26.7 7.90001 26.9C8.50001 27.3 9.10001 27.5 9.70001 27.8Z" fill="#6F7FB5"/>
<path d="M9.80001 21.8C9.60001 21.8 9.40001 21.8 9.20001 21.8C8.60001 21.7 7.90001 21.7 7.30001 21.6C7.20001 21.6 7.10001 21.6 7.10001 21.6C7.10001 21.6 7.10001 21.6 7.10001 21.5C7.20001 21.5 7.20001 21.5 7.30001 21.5C8.10001 21.4 8.80001 21.5 9.60001 21.7C9.60001 21.7 9.70001 21.7 9.80001 21.8Z" fill="#6F7FB5"/>
<path d="M32.8 5.6C33 6 33.2 8.8 33.2 9.1C33 8.8 32.7 6.2 32.8 5.6Z" fill="#6F7FB5"/>
<path d="M16.4 38C17.6 38.4 18.8 38.4 20 38.4C18.8 38.6 17.6 38.5 16.4 38Z" fill="#6F7FB5"/>
<path d="M13.8 26.1C12.8 25.9 11.8 25.6 10.9 25.1C11.2 25.1 13.3 25.9 13.8 26.1Z" fill="#6F7FB5"/>
<path d="M6.90001 26C7.90001 26.5 8.90001 26.9 9.90001 27.3C9.90001 27.3 9.90001 27.3 9.90001 27.4C9.80001 27.4 9.70001 27.4 9.70001 27.4C8.70001 27 7.80001 26.6 6.90001 26Z" fill="#6F7FB5"/>
<path d="M7.70001 29.5C8.20001 29.8 8.60001 30.1 9.00001 30.3C9.40001 30.5 9.90001 30.7 10.3 31C9.80001 31 8.10001 30 7.70001 29.5Z" fill="#6F7FB5"/>
<path d="M23.1 10C23.1 9.9 23.1 9.8 23.1 9.7C23.3 10.2 23.6 12.2 23.5 12.7C23.5 12.6 23.4 12.5 23.4 12.4C23.3 11.7 23.2 11 23.1 10.3C23.1 10.2 23.1 10.1 23.1 10Z" fill="#6F7FB5"/>
<path d="M33.6 9.4C33.4 8.5 33.2 7.5 33.2 6.5C33.5 7.5 33.6 8.4 33.6 9.4Z" fill="#6F7FB5"/>
<path d="M22.8 18.3C23 17.4 23.1 16.4 23.3 15.5C23.5 15.9 23.2 17.6 22.8 18.3Z" fill="#6F7FB5"/>
<path d="M25.4 6.6C25.3 6.1 25.5 5.7 25.7 5.2C25.8 5 25.9 4.7 26.2 4.6C25.9 5.4 25.6 6 25.4 6.6Z" fill="#6F7FB5"/>
<path d="M8.50001 22.4C7.80001 22.3 7.00001 22.2 6.30001 22.1C6.20001 22.1 6.10001 22 6.00001 22C6.40001 21.8 8.20001 22.1 8.50001 22.4Z" fill="#6F7FB5"/>
<path d="M23.8 4.7C23.5 5.5 23.2 6.2 22.9 6.9C22.8 6.6 23.4 5.1 23.8 4.7Z" fill="#6F7FB5"/>
<path d="M14.4 27.8C13.8 27.9 12.2 27.6 11.9 27.2C12.8 27.4 13.6 27.6 14.4 27.8Z" fill="#6F7FB5"/>
<path d="M5.30001 21.8C6.20001 21.6 7.10001 21.6 8.00001 21.9L5.30001 21.8Z" fill="#6F7FB5"/>
<path d="M10.3 24.7C9.40001 24.4 8.60001 24.1 7.70001 23.9C8.60001 23.9 9.50001 24.1 10.3 24.7Z" fill="#6F7FB5"/>
<path d="M19.3 23.7C18.2 24 17.2 24.1 16 24C17.1 23.9 18.2 23.8 19.3 23.7Z" fill="#6F7FB5"/>
<path d="M7.40001 23.1C7.90001 22.9 9.50001 23.4 10 23.9C9.60001 23.8 9.20001 23.6 8.80001 23.5C8.30001 23.3 7.90001 23.2 7.40001 23.1Z" fill="#6F7FB5"/>
<path d="M13.5 23.2C14.3 23.4 15.1 23.5 15.9 23.7C15.5 23.9 13.9 23.5 13.5 23.2Z" fill="#6F7FB5"/>
<path d="M23.2 19.7C23 20.1 21.7 20.7 21.3 20.7C21.4 20.6 21.4 20.6 21.5 20.5C21.7 20.4 21.9 20.3 22.1 20.2C22.4 20 22.7 19.9 23 19.7C23.1 19.8 23.2 19.8 23.2 19.7Z" fill="#6F7FB5"/>
<path d="M38.7 5.7C38.3 4.8 37.6 4.2 36.9 3.4C37.5 3.6 38.7 5.2 38.7 5.7Z" fill="#6F7FB5"/>
<path d="M28.7 5.7C28.8 5 29.7 4.1 30.5 3.9L30.4 4C29.8 4.4 29.2 4.9 28.9 5.6C28.8 5.6 28.7 5.6 28.7 5.7Z" fill="#6F7FB5"/>
<path d="M6.30001 32.6C5.40001 32 4.70001 31.3 4.10001 30.4C4.80001 31.2 5.50001 31.9 6.30001 32.6Z" fill="#6F7FB5"/>
<path d="M9.30001 22.4C10.3 22.6 11.1 22.9 12 23.3C11.1 23.1 10.1 22.8 9.30001 22.4C9.20001 22.5 9.20001 22.5 9.30001 22.4Z" fill="#6F7FB5"/>
<path d="M30.9 3.1C30.6 3.3 30.2 3.5 29.9 3.7C29.6 3.9 29.3 4.2 29 4.4C29 4.3 29 4.2 29.1 4.2C29.2 4.1 29.3 3.9 29.5 3.8C29.9 3.4 30.4 3.2 30.9 3.1C30.9 3 30.9 3 30.9 3.1Z" fill="#6F7FB5"/>
<path d="M10 31.2C9.50001 31.2 8.00001 30.4 7.80001 30C8.20001 30.2 8.50001 30.5 8.90001 30.7C9.30001 30.8 9.60001 31 10 31.2Z" fill="#6F7FB5"/>
<path d="M31.8 7.4C31.6 6.7 31.8 6 31.9 5.4C32 6 31.9 6.7 31.8 7.4Z" fill="#6F7FB5"/>
<path d="M12.7 26.2C12 26 11.2 25.9 10.6 25.4C11.4 25.6 12.1 25.9 12.7 26.2Z" fill="#6F7FB5"/>
<path d="M5.40001 27.4C6.10001 27.9 6.80001 28.3 7.50001 28.8C7.10001 28.8 5.70001 27.9 5.40001 27.4Z" fill="#6F7FB5"/>
<path d="M24.6 7.6C24.7 7.8 24.7 9.2 24.6 9.4C24.4 9.2 24.4 8 24.6 7.6Z" fill="#6F7FB5"/>
<path d="M31.7 4.8C31.6 5.6 31.5 6.4 31.4 7.2C31.2 6.9 31.5 5.2 31.7 4.8Z" fill="#6F7FB5"/>
<path d="M2.60001 25.3C2.20001 24.8 2.20001 23.3 2.60001 23C2.60001 23.4 2.50001 23.7 2.50001 24.1C2.40001 24.5 2.50001 24.9 2.60001 25.3Z" fill="#6F7FB5"/>
<path d="M9.90001 25C9.20001 24.8 8.50001 24.7 7.80001 24.4C8.10001 24.3 9.20001 24.6 9.90001 25Z" fill="#6F7FB5"/>
<path d="M15.4 25.3C14.6 25.4 13.9 25.3 13.2 24.9C14 25 14.7 25.1 15.4 25.3Z" fill="#6F7FB5"/>
<path d="M31.1 5.3C31.2 5.1 31.2 5 31.3 4.8C31.1 5.5 31 6.3 30.8 7C30.8 6.9 30.8 6.8 30.8 6.8C30.8 6.5 30.9 6.1 30.9 5.8C30.9 5.6 31 5.4 31.1 5.3Z" fill="#6F7FB5"/>
<path d="M32.4 8.2C32.3 7.5 32.2 6.7 32.3 6C32.4 6.7 32.4 7.4 32.4 8.2Z" fill="#6F7FB5"/>
<path d="M23.2 18C23.3 17.3 23.5 16.6 23.6 15.9C23.8 16.3 23.6 17.3 23.2 18Z" fill="#6F7FB5"/>
<path d="M31.1 5.3C31 5.5 31 5.6 30.9 5.8C30.8 6 30.8 6.2 30.7 6.4C30.6 6 31.1 4.6 31.5 4.3C31.4 4.6 31.3 4.8 31.2 5C31.1 5.1 31.1 5.2 31.1 5.3Z" fill="#6F7FB5"/>
<path d="M32.3 10.4C32.4 10.7 32.4 12.3 32.4 12.6C32.2 12.2 32.2 10.7 32.3 10.4Z" fill="#6F7FB5"/>
<path d="M3.80001 21.6C4.00001 21.3 5.00001 21 5.30001 21.1C5.10001 21.3 4.00001 21.6 3.80001 21.6Z" fill="#6F7FB5"/>
<path d="M29 4.2C28.9 3.7 29.6 3 30 3C29.6 3.3 29.3 3.8 29 4.2Z" fill="#6F7FB5"/>
<path d="M23.5 18.1C23.6 17.5 23.7 17 23.8 16.4C24 16.7 23.8 17.8 23.5 18.1Z" fill="#6F7FB5"/>
<path d="M4.90001 23C5.10001 23 6.00001 23.7 6.10001 23.8C5.80001 23.9 5.00001 23.4 4.90001 23Z" fill="#6F7FB5"/>
<path d="M25.9 6.1C25.8 5.8 26.1 4.9 26.4 4.7C26.5 4.9 26.1 5.7 25.9 6.1Z" fill="#6F7FB5"/>
<path d="M30.9 19C30.9 19.7 30.6 20.2 30.3 20.7C30.3 20.7 30.3 20.7 30.2 20.7C30.3 20.4 30.4 20.1 30.6 19.8C30.7 19.6 30.8 19.3 30.9 19Z" fill="#6F7FB5"/>
<path d="M23.1 8.3C23 7.6 23.1 7 23.4 6.4C23.4 7 23.2 7.7 23.1 8.3Z" fill="#6F7FB5"/>
<path d="M26.9 25.3C27.3 24.8 27.8 24.3 28.2 23.8C28.2 24.2 27.3 25.2 26.9 25.3Z" fill="#6F7FB5"/>
<path d="M3.70001 23.3C4.10001 23.7 4.60001 24.2 5.00001 24.6C4.30001 24.3 4.00001 23.8 3.70001 23.3Z" fill="#6F7FB5"/>
<path d="M32.9 11.1C33 11.3 33.1 12.4 33 12.7C32.9 12.4 32.8 11.3 32.9 11.1Z" fill="#6F7FB5"/>
<path d="M16.4 24.9C15.6 24.9 14.8 24.9 14 24.6C14.8 24.7 15.6 24.8 16.4 24.9Z" fill="#6F7FB5"/>
<path d="M18.6 23C18 23.1 17.5 23.1 16.9 23C17 22.9 18.2 22.9 18.6 23Z" fill="#6F7FB5"/>
<path d="M10.5 22.4C11.2 22.6 11.9 22.8 12.6 23.2C11.8 23 11.1 22.7 10.5 22.4Z" fill="#6F7FB5"/>
<path d="M32.2 17.6C32.3 17 32.3 16.4 32.4 15.7C32.5 16.1 32.4 17.3 32.2 17.6Z" fill="#6F7FB5"/>
<path d="M32.6 10.8C32.7 11.4 32.7 12 32.7 12.6C32.6 12 32.6 11.4 32.6 10.8Z" fill="#6F7FB5"/>
<path d="M14.3 26.4C14.9 26.5 15.4 26.5 16 26.6C15.4 26.6 14.8 26.6 14.3 26.4Z" fill="#6F7FB5"/>
<path d="M5.50001 24.4C4.90001 24.1 4.50001 23.7 4.10001 23.2C4.50001 23.6 5.00001 24 5.50001 24.4Z" fill="#6F7FB5"/>
<path d="M23.2 19.3C23.1 19.6 22.6 19.9 22.2 19.8C22.5 19.6 22.9 19.5 23.2 19.3Z" fill="#6F7FB5"/>
<path d="M32.9 14.8C32.8 14.6 32.8 13.6 32.9 13.5C33.1 13.7 33.1 14.6 32.9 14.8Z" fill="#6F7FB5"/>
<path d="M3.40001 24.9C3.10001 24.7 3.00001 24.1 3.20001 23.7C3.20001 24.1 3.30001 24.5 3.40001 24.9Z" fill="#6F7FB5"/>
<path d="M26 3.2C25.7 3.6 25.5 3.9 25.2 4.3C25.2 4 25.7 3.3 26 3.2Z" fill="#6F7FB5"/>
<path d="M35.4 2.1C35 2 34.7 1.8 34.3 1.6C34.6 1.5 35.2 1.8 35.4 2.1Z" fill="#6F7FB5"/>
<path d="M4.70001 23.3C5.10001 23.6 5.50001 23.8 5.90001 24.1C5.60001 24.2 4.90001 23.7 4.70001 23.3Z" fill="#6F7FB5"/>
<path d="M4.20001 21.7C4.50001 21.4 4.90001 21.4 5.30001 21.4C5.30001 21.4 5.30001 21.4 5.30001 21.5C4.90001 21.6 4.60001 21.7 4.20001 21.7C4.20001 21.8 4.20001 21.8 4.20001 21.7Z" fill="#6F7FB5"/>
<path d="M25.7 4C26 3.5 26.4 3.1 26.9 2.7C26.4 3.2 26.1 3.6 25.7 4Z" fill="#6F7FB5"/>
<path d="M34.9 2.2C34.6 2 34.3 1.9 34 1.7C34 1.7 34 1.7 34 1.6C34.4 1.7 34.7 1.9 34.9 2.2Z" fill="#6F7FB5"/>
<path d="M8.30001 34.2C8.80001 34.5 9.30001 34.9 9.90001 35.2C9.90001 35.2 9.90001 35.2 9.90001 35.3C9.30001 34.9 8.80001 34.6 8.30001 34.2Z" fill="#6F7FB5"/>
<path d="M26.3 5.7C26.3 5.4 26.5 4.9 26.6 4.9C26.6 5 26.4 5.5 26.3 5.7Z" fill="#6F7FB5"/>
<path d="M11 24.1C11.4 24.2 11.8 24.4 12.2 24.5C12.2 24.5 12.2 24.5 12.2 24.6C11.8 24.5 11.4 24.3 11 24.1Z" fill="#6F7FB5"/>
<path d="M33.8 11C33.9 11.4 34 11.8 34 12.2C34 12.2 34 12.2 33.9 12.2C33.8 11.9 33.7 11.5 33.8 11C33.7 11 33.7 11 33.8 11Z" fill="#6F7FB5"/>
<path d="M31.7 15.1C31.8 15.5 31.7 15.8 31.6 16.2C31.7 15.8 31.7 15.4 31.7 15.1Z" fill="#6F7FB5"/>
<path d="M9.80001 26.8C9.40001 26.7 9.10001 26.6 8.80001 26.4C9.20001 26.5 9.50001 26.6 9.80001 26.8Z" fill="#6F7FB5"/>
<path d="M2.80001 23.9C2.80001 24.2 2.90001 24.5 2.90001 24.9C2.80001 24.5 2.70001 24.2 2.80001 23.9Z" fill="#6F7FB5"/>
<path d="M12.2 27.8C12.5 27.9 12.7 27.9 13 28C13 28 13 28 13 28.1C12.7 28 12.4 28 12.2 27.8Z" fill="#6F7FB5"/>
<path d="M8.10001 24.8C8.40001 24.8 8.70001 25 9.00001 25.2L8.10001 24.8Z" fill="#6F7FB5"/>
<path d="M3.50001 23.9C3.60001 24.1 3.60001 24.2 3.70001 24.4C3.40001 24.4 3.30001 24.2 3.50001 23.9Z" fill="#6F7FB5"/>
<path d="M12.6 24.3C12.4 24.2 12.1 24.1 11.9 24.1C11.9 24.1 11.9 24.1 11.9 24C12.1 24.1 12.4 24.1 12.6 24.3Z" fill="#6F7FB5"/>
<path d="M24.2 8.4C24.3 8.6 24.3 8.7 24.2 9C24.1 8.7 24.1 8.6 24.2 8.4Z" fill="#6F7FB5"/>
<path d="M39.5 11.1C39.5 11.3 39.5 11.5 39.6 11.7C39.6 11.7 39.6 11.7 39.5 11.7C39.4 11.4 39.3 11 39.2 10.7C39.2 10.7 39.2 10.7 39.3 10.7C39.4 10.8 39.5 11 39.5 11.1Z" fill="#6F7FB5"/>
</svg>
