<svg width="319" height="404" viewBox="0 0 319 404" fill="none" xmlns="http://www.w3.org/2000/svg">
<path d="M277.7 5C260.8 14.2 251.1 32.1 244.2 49.5C237.2 66.9 227.5 82.8 220.5 91.8C203.9 113.1 170.2 123.5 151.8 129.9C132.6 136.6 112.4 139.6 92.5999 144.1C64.3999 150.5 42.6999 152.9 19.2999 170.9C0.199911 185.6 -6.60009 217.5 7.59991 237.1C11.3999 242.3 16.7999 247.1 22.8999 249.4C45.8999 258 71.0999 249.5 95.0999 248.7C119.4 247.9 130.8 258.4 145.8 276.9C155.3 288.6 160 303.9 170.2 315C177 322.3 189.5 324.6 199.4 325.4C208.2 326.1 218.8 322.6 226.8 326.7C244.3 335.7 247.9 366.1 260.5 380.5C268 389.1 278.6 394.6 288.9 399.9C298.4 404.8 308.6 405 318.2 402.1L301 198.6L298.9 0.200001C291.6 -0.599999 284.1 1.4 277.7 5Z" fill="#F5B7C9"/>
</svg>
