<svg width="178" height="49" viewBox="0 0 178 49" fill="none" xmlns="http://www.w3.org/2000/svg">
<path d="M177 29.7C176.7 25.2 176.4 9.4 177.7 1.2C177.7 0.8 177.8 0.4 177.8 0C176.4 0 175 0 173.5 0L41.2 1.5C41.1 1.5 41 1.5 40.9 1.5C33.5 2.1 24.7 2.5 18.5 1.8C12.7 1.2 8.5 1.2 4.1 0.6C2.4 0.4 0.8 1.5 0.6 3L0.2 5.5C0.2 5.6 0.2 5.8 0.2 5.9L0 39.3C0 39.4 0 39.5 0 39.6L0.5 45.1C0.6 46.5 1.9 47.6 3.5 47.7C12 48 22.5 49.2 30.2 48.6C30.8 48 45.6 49.1 52.4 48.4C57.1 47.8 107.4 49.8 134.8 47.5C153 46.2 159 47.7 177.2 48.4C177.3 42.9 177.9 35.3 177 29.7Z" fill="white"/>
</svg>
