<svg width="89" height="50" viewBox="0 0 89 50" fill="none" xmlns="http://www.w3.org/2000/svg">
<path d="M45.8001 48.6C46.0001 48.6 66.9001 48.8 67.1001 48.8C72.6001 48.8 78.2001 49.3 82.5001 49.3C84.8001 49.3 86.6001 48.2 86.9001 46.8C87.3001 44.8 88.6001 41.9 88.5001 41C87.5001 27.3 88.5001 12.9 88.9001 3C89.0001 1.4 87.0001 -1.02911e-07 84.5001 0.0999999C65.2001 0.4 37.2001 0.7 2.50011 0.5C2.50011 0.8 2.40011 1.2 2.30011 1.6C0.500106 9.8 0.900106 25.5 1.30011 30.1C2.60011 35.8 1.80011 43.3 1.60011 49C16.5001 49.4 31.2001 49.5 45.8001 48.6Z" fill="#234386"/>
</svg>
