<svg xmlns="http://www.w3.org/2000/svg" viewBox="0 0 26.97 1.81"><defs><style>.cls-1{fill:#145195;}</style></defs><title>Fichier 1</title><g id="Calque_2" data-name="Calque 2"><g id="Calque_1-2" data-name="Calque 1"><path class="cls-1" d="M.39.21c-.48.09-.53.9-.08,1.32s1.88.17,2.44.17c1.84,0,3.7,0,5.56,0,4,0,8,.12,12,.1a21.06,21.06,0,0,0,2.25-.07,13.06,13.06,0,0,1,2.94.07c2.45.11,1.6-1.39-.14-1.6a13.56,13.56,0,0,0-2.7.16A17.92,17.92,0,0,1,19.52.15C17,0,14.35.15,11.81.1A106,106,0,0,0,.39.21Z"/></g></g></svg>