<svg width="328" height="417" viewBox="0 0 328 417" fill="none" xmlns="http://www.w3.org/2000/svg">
<path d="M308.742 87.7344C296.61 63.8138 278.659 43.327 256.539 28.1573C234.42 12.9877 208.842 3.62214 182.157 0.921583C170.085 -0.289616 157.923 -0.289616 145.851 0.921583C119.167 3.62391 93.5891 12.9892 71.4688 28.157C49.3485 43.3249 31.3949 63.8087 19.2576 87.7264C3.98708 118.244 -1.9113 152.598 2.3054 186.461C6.5221 220.325 20.6653 252.183 42.9536 278.024L151.64 410.165C153.141 411.991 155.028 413.461 157.165 414.471C159.302 415.481 161.636 416.005 164 416.005C166.364 416.005 168.698 415.481 170.835 414.471C172.972 413.461 174.859 411.991 176.36 410.165L285.046 278.024C307.334 252.185 321.478 220.328 325.694 186.466C329.911 152.603 324.013 118.251 308.742 87.7344ZM164 224C151.342 224 138.968 220.246 128.444 213.214C117.919 206.182 109.716 196.186 104.872 184.492C100.028 172.797 98.7603 159.929 101.23 147.514C103.699 135.099 109.795 123.696 118.745 114.745C127.696 105.795 139.099 99.6992 151.514 97.2297C163.929 94.7603 176.797 96.0277 188.492 100.872C200.186 105.716 210.182 113.919 217.214 124.443C224.246 134.968 228 147.342 228 160C227.98 176.968 221.231 193.235 209.233 205.233C197.235 217.231 180.968 223.98 164 224Z" fill="white"/>
</svg>
