<svg id="Calque_1" data-name="Calque 1" xmlns="http://www.w3.org/2000/svg" viewBox="0 0 2000 2000"><defs><style>.cls-1{fill:#fff;}.cls-2{fill:#1a428a;}</style></defs><ellipse class="cls-1" cx="1000" cy="1000.17" rx="1000" ry="999.83"/><path class="cls-2" d="M1593.94,405.28a21.28,21.28,0,0,0-30.09,0L1161.31,807.75c9-64.7-9.5-136-56-188.51-107.25,77.63-188.09,223.09-92.51,337l-43.17,43.17c-87.15-81.47-248.64-6-320.68,69.28C603.64,1127,712.3,1169.83,819,1150L405,1563.93A21.28,21.28,0,0,0,435.1,1594L1593.94,435.37A21.28,21.28,0,0,0,1593.94,405.28Z"/><path class="cls-2" d="M1315,793.93c-110.4,73.36-202.22,256.59-83.92,376.9C1367.05,1119.44,1411.75,902.34,1315,793.93Z"/><path class="cls-2" d="M439.06,928.17c48,38.58,117.61,52.82,174.87,54.57,58.18-24.92,188.47-101.37,127.68-152.11C644.42,764.92,472.81,817.05,439.06,928.17Z"/><path class="cls-2" d="M676.07,717.8c97.62,34.55,9-179.81-31.91-196.44-29-42.46-266.5-137.89-209-28.21C450.47,604.57,544.71,744.56,676.07,717.8Z"/><path class="cls-2" d="M1193.09,1210.86c-72.6-78-212.25-77.53-286.79-5.93a286.42,286.42,0,0,1-44.87,35.66c-112.88,71.46,82.32,117.1,156.81,114.44C1099,1341.3,1158,1283.76,1193.09,1210.86Z"/><path class="cls-2" d="M1217.08,1355.84a7.67,7.67,0,0,0-2.36,1.13c-32,22.61-121.06,64.89-152,110.72-15.08,22.36-5.13,53.32,19.7,63.85,146.65,62.21,249.45,16.41,322.23-124.71a7.66,7.66,0,0,0-4.13-10.62C1341.67,1373.68,1284.77,1336.51,1217.08,1355.84Z"/><path class="cls-2" d="M1440.74,1075c-5.78,8.88-13.26,16.43-20.57,24.1-8.5,8.91-11.59,26-20,38.25-9.11,13.25-16.8,27.51-20.4,43.19-4.07,17.76-5.72,35-2.45,51.21-2.2,5.09-2.35,8.94-.8,12.19,5.61,11.71,10.8,23.57,13.79,36.2,51.89,218.6,301.74-105.64,120-289C1491.25,1024.33,1458.56,1047.58,1440.74,1075Z"/><path class="cls-2" d="M851.07,765.28c87.42-40.15,152-137.93,109.24-230.73,4.44-16.94-37.86-112.59-57.92-89.31C842.72,508.07,777.1,581,791.94,673.65,811.41,700.08,810.94,763.81,851.07,765.28Z"/></svg>