<svg id="Calque_1" data-name="Calque 1" xmlns="http://www.w3.org/2000/svg" viewBox="0 0 2000 2000"><defs><style>.cls-1{fill:#fff;}.cls-2{fill:#1a428a;}</style></defs><ellipse class="cls-1" cx="1000" cy="1000.17" rx="1000" ry="999.83"/><path class="cls-2" d="M1557.46,461.76a21.28,21.28,0,0,0-30.09,0L1233.89,755.19c-26.81-95.58-73.44-188-101.69-283.5-3.71-12.55-15.92-21.26-29.83-21.26H887.22c-13.76,0-25.88,8.58-29.73,20.94-7.28,23.36-13.78,44.23-19.88,63.82-13.92,44.68-29.8,88.75-49.36,131.27C767.8,710.92,738,807,740.55,986c1,70-1.52,140-6,209.85-1.36,20.94-2.63,41.68-3.82,62.42l-288.15,288.1a21.28,21.28,0,0,0,30.09,30.09l255-255c-2.12,51.75-3,104.14-1.28,159.35,2.27,70.56,86.78,119.26,165,123.19,67.2,3.39,134.87,3.38,202.08.19,84.43-4,172.87-56.63,178.09-133.94,8.6-127.28-2.11-254.79-12.71-384.53-2.3-29.2-4.13-200.33-4.13-200.33-.24-27.64-4.06-54.72-9.28-81.58l312.09-312A21.28,21.28,0,0,0,1557.46,461.76Zm-359,1041c-28.9,45.91-139.72,61.7-188.21,51.57l-125.71-13.87c-52.17-10.89-90.05-64.52-89.06-126l2.34-163.08,176.65-176.62a21.27,21.27,0,0,0-30.09-30.08L798.75,1190.26l5.69-396.49c-.24-21.22,14.65-38,32.89-37.54,39.58,1.08,107.09,12.58,161.2,71,58.3,62.93,52.55,107.22,164.18,144,26.77,8.81,45.78,36.81,47,69.07l13.77,366.21C1224.79,1441.05,1216,1475,1198.51,1502.74Z"/><path class="cls-2" d="M861,409.61c42.43,8.84,88.45,2.53,133,2.53,0,.28,0,.56,0,.84,41.92,0,85.75,7,125.11-2.47,25.81-6.18,39-33.46,44.24-56.16,3.74-16.15-12.33-56.85-32.26-58.24a1967.14,1967.14,0,0,0-274.46.15c-19.79,1.39-36,26-35.78,46.46C821,361.83,838,404.83,861,409.61Z"/></svg>