<svg width="2000" height="2000" viewBox="0 0 2000 2000" fill="none" xmlns="http://www.w3.org/2000/svg">
<path d="M1000 1999.6C1552.28 1999.6 2000 1551.97 2000 999.8C2000 447.626 1552.28 0 1000 0C447.715 0 0 447.626 0 999.8C0 1551.97 447.715 1999.6 1000 1999.6Z" fill="white"/>
<path d="M725.3 1243.8L405.5 1563.6C397.2 1571.9 397.2 1585.4 405.5 1593.7C409.7 1597.9 415.1 1599.9 420.5 1599.9C426 1599.9 431.4 1597.8 435.5 1593.7L763.7 1265.5C750.2 1260 737.2 1252.7 725.3 1243.8Z" fill="#234386"/>
<path d="M1594.5 404.901C1586.2 396.601 1572.7 396.601 1564.4 404.901L1102.1 867.101C1114.2 875.101 1126.1 883.301 1138.4 891.001L1594.5 435.001C1602.8 426.701 1602.8 413.301 1594.5 404.901Z" fill="#234386"/>
<path d="M1025.8 1120.9C1035.5 1147.7 1053.6 1165.8 1076.5 1179.3C1102.2 1194.4 1128.6 1208.4 1154.4 1223.3C1167 1230.6 1179.2 1238.8 1191.1 1247.3C1232.2 1276.5 1251.9 1317.5 1255.3 1367C1256.1 1378.3 1256.9 1389.7 1257.2 1401C1257.8 1424.4 1265.3 1445.4 1278.7 1464.5C1286.2 1475.3 1293.2 1486.5 1299.7 1497.8C1305.5 1507.9 1304.3 1512.7 1293 1515.7C1270.8 1521.4 1248.4 1528.4 1225.8 1529.5C1181.7 1531.7 1137.3 1531.8 1093.2 1529.7C1049.5 1527.7 1010.7 1509.4 974.7 1485.3C940.6 1462.5 912.6 1433 885.4 1402.7C881.8 1398.7 878 1394.9 874.6 1390.7C842.3 1351.6 802.2 1322.7 758.1 1298.4C720.3 1277.6 688.7 1248.9 660.2 1216.6C632.2 1185 616 1147.4 602.7 1108.2C595.5 1087 587.8 1066 581.3 1044.6C569.9 1007.2 550.7 974.099 527.6 942.999C516.2 927.699 505.4 911.799 494 896.499C457.7 847.799 443.3 793.499 445.4 732.599C448.2 652.099 464.3 574.499 486.7 497.799C489.1 489.599 493.3 481.899 497 474.099C499.8 468.199 504.1 466.599 510 470.799C518.5 476.899 527.5 482.299 535.8 488.599C552.1 500.999 570.6 506.999 590.8 507.499C622.8 508.399 654.8 508.199 686.7 509.599C709.6 510.599 732.7 511.999 755.3 515.899C795.1 522.699 824.2 547.899 849.6 577.199C873.5 604.699 895.8 633.599 918.5 662.099C944.4 694.799 976.8 716.499 1018.7 722.599C1036.1 725.099 1053.5 728.299 1070.9 730.999C1122.1 738.999 1162.2 766.199 1196.5 803.299C1208.9 816.699 1220.9 830.399 1232.8 844.199C1259 874.699 1291.8 889.999 1332.2 891.899C1366.1 893.499 1400.2 896.799 1433.7 902.299C1488.2 911.299 1528.1 941.799 1553.9 990.699C1559.9 1002.1 1565.6 1013.5 1571.6 1024.9C1581.9 1044.5 1597 1059.3 1615.8 1070.8C1626.5 1077.3 1637.1 1084.1 1647 1091.7C1655.2 1097.9 1655.4 1101.3 1647.7 1108.2C1636.9 1118 1626 1128 1613.8 1135.9C1571.2 1163.9 1525 1184.8 1476.8 1201.4C1419.8 1221 1362.6 1219.5 1306.2 1200.7C1273.5 1189.8 1241.2 1176.6 1210.1 1161.7C1170.4 1142.6 1129.2 1131.6 1085.6 1128.3C1065.7 1126.8 1046.3 1123.5 1025.8 1120.9ZM931.8 1117.5C931.4 1113.1 931.3 1105 929.7 1097.1C917.4 1037.6 880.8 997.699 826.2 974.599C809.4 967.499 789.5 963.199 771.4 964.299C706.4 967.999 661.6 1027 673.4 1091.3C684 1149.1 717.1 1190.4 769 1216.6C794.2 1229.3 821 1233.8 849 1228.1C901 1217.4 932 1177.2 931.8 1117.5ZM742.7 786.799C739.5 770.799 738 754.199 732.9 738.799C718.4 694.499 692.9 658.599 648.4 639.999C590.1 615.599 532.9 642.599 515.6 702.099C509.3 723.899 507.9 746.299 511.2 768.699C520.1 828.699 549.6 873.599 607.8 895.799C657 914.599 705.8 893.899 728 846.099C736.6 827.599 740.9 807.799 742.7 786.799ZM945.7 1329.6C947 1339 947.5 1348.7 949.8 1357.9C965.9 1423.3 1037.1 1471.8 1106 1464.6C1149.4 1460.1 1179 1436.7 1188.2 1399.1C1195 1371.3 1190.5 1344.6 1175.9 1320.6C1144.3 1268.4 1098.8 1240.5 1036.1 1241.4C985.1 1242 946.5 1278.7 945.7 1329.6Z" fill="#234386"/>
</svg>
