<svg id="Calque_1" data-name="Calque 1" xmlns="http://www.w3.org/2000/svg" viewBox="0 0 2000 2000"><defs><style>.cls-1{fill:#fff;}.cls-2{fill:#1a428a;}</style></defs><ellipse class="cls-1" cx="1000" cy="1000.17" rx="1000" ry="999.83"/><path class="cls-2" d="M1563.89,515.35a18.53,18.53,0,0,0-13.55-13.54,263.49,263.49,0,0,0-93.66-5.57C1380.92,505,1306.42,542.54,1247,602s-97,133.88-105.72,209.63a266.56,266.56,0,0,0,3.25,83.36c-.22.27-.5.54-.77.82-81.44,96.79-136.61,201.87-173.39,305.91C938.83,1079.25,891.75,966.55,830,866.14c-92-149.58-217.54-273.72-373.09-369a18.48,18.48,0,0,0-22.14,29.39c188.92,172.93,336.72,361,410.34,584.36,30.95,94.08,57.46,260.65,57.46,507.38a18.47,18.47,0,0,0,18.5,18.5h79a18.5,18.5,0,0,0,18.5-18.5c0-13.36,0-27.13-.16-41.18-.94-184.31-2.15-417.67,157.81-654.94a267.73,267.73,0,0,0,46.08,4,282.93,282.93,0,0,0,31.83-1.81c75.76-8.75,150.2-46.31,209.67-105.72s97-133.87,105.72-209.62A264.82,264.82,0,0,0,1563.89,515.35ZM1312.47,872.52a282.8,282.8,0,0,1-62.65,15,234.79,234.79,0,0,1-49.61.51c60-81,139.58-162.29,245.29-242a18.53,18.53,0,0,0,3.59-25.94s-87.2,44.05-176.34,127.68c-35.07,35.45-67.38,71.74-95.84,109.33,0,0,25.95-263.92,327.19-303.6C1504.18,561.73,1504.59,783.26,1312.47,872.52Z"/></svg>