<svg id="Calque_1" data-name="Calque 1" xmlns="http://www.w3.org/2000/svg" viewBox="0 0 2000 2000"><defs><style>.cls-1{fill:#fff;}.cls-2{fill:#1a428a;}</style></defs><ellipse class="cls-1" cx="1000" cy="1000.17" rx="1000" ry="999.83"/><path class="cls-2" d="M1596.7,403.5a21.28,21.28,0,0,0-30.09,0L1208,762a.74.74,0,0,1,0,.14c5.51,14.69,10.62,29.56,15.19,44.78L796.19,1234c109.26,29.77,223.45,27.86,329.88-11.82,138.3-93.59,142.43-264.75,97.2-415.18L1596.7,433.59A21.28,21.28,0,0,0,1596.7,403.5Z"/><path class="cls-2" d="M750.59,1219.45l-.05,0L407.76,1562.15a21.28,21.28,0,0,0,30.1,30.09L796.19,1234l-.08,0C780.82,1229.77,765.66,1224.85,750.59,1219.45Z"/><path class="cls-2" d="M462.1,1017.8a179.84,179.84,0,0,0,38.24,41.83l-.29,0c73.61,73,159.69,127.3,250.49,159.84L1208,762c-39.17-104.43-99.27-193.16-149.71-229C953.28,389.47,841,409.28,795.9,425.16c-82.53,30-142.14,113.77-138.11,194.43,2.65,50.79-55.19,89-117,129.82-78.93,53-177.78,118.29-107.8,224.24Zm100.72-235c65.9-43.51,140.12-93.43,136.32-167.9-2.22-50.16,28.76-104.13,75.16-134.77a157.32,157.32,0,0,1,34.11-17.08c78.74-28.45,161.48,12,227.29,111.66,67.49,102.18-50,257.64-193.91,352.65-74,48.85-150.38,79.37-216.54,85.93-71.46,7.32-124.18-14-156.68-63.21C422.75,880.75,472.46,843.41,562.82,782.84Z"/><path class="cls-2" d="M629.48,956.62c54.2-5.61,119.74-31.64,183.75-73.9C930.35,805.38,1029.58,678.66,984,609.62c-51.79-77-111.33-110.1-165-91.08C811.43,521,804,525,797,529.67c-30.73,20.28-51.77,56.59-49.91,87.26,5,96.67-82,154.15-150.74,200.4-96.89,64.84-91.74,72.63-75.08,97.85C543,948.19,578.64,961.75,629.48,956.62ZM834.82,600.91c25.18-16.64,59.41-10.77,75,12.85,16.1,24.38,8.37,56.85-17.63,74s-59.4,10.76-75-12.86C801.1,650.54,809.63,617.54,834.82,600.91Z"/><path class="cls-2" d="M1448.9,1301.35l-4.81,6c-8.4,9.61-19.21,15.61-31.21,15.61-12,1.2-24-3.6-32.42-12L1246,1175.29c-8.41,13.21-18.23,24-28.82,37.22-16.41,20.54-36.93,30.78-50.13,39.18L1315.62,1377c8.4,8.4,12,20.41,12,32.41-1.2,12-7.2,24-15.6,31.22l-4.81,3.6a82.26,82.26,0,0,0-1.2,117.65,83.36,83.36,0,0,0,117.67,0c18-18,26.42-44.42,22.82-70.83-3.6-27.61-9.29-55.74,49.23-49.22,26.41,4.8,51.63-3.6,70.84-22.81a83.2,83.2,0,1,0-117.67-117.65Z"/></svg>