<svg xmlns="http://www.w3.org/2000/svg" viewBox="0 0 164.11 75.58"><defs><style>.cls-1{fill:#fff;}</style></defs><title>Fichier 2</title><g id="Calque_2" data-name="Calque 2"><g id="contenu"><path class="cls-1" d="M77.83,75.39a.35.35,0,0,1-.07-.21v-.24c0-.13,0-.13,0-.25s0-.13,0-.26v-.25c0-.12,0-.12,0-.25s0-.12,0-.24,0-.13,0-.26,0-.12,0-.25v-.25c0-.13,0-.13,0-.24s0-.13,0-.26,0-.12,0-.25,0-.12,0-.25,0-.13,0-.25,0-.12,0-.25v-.25c0-.12,0-.12,0-.25s0-.13,0-.25v-.25c0-.12,0-.12,0-.25a.35.35,0,0,0-.12-.24.32.32,0,0,0-.24-.13h-.26c-.14,0-.14,0-.26,0h-.27c-.13,0-.13,0-.26,0h-.26a.3.3,0,0,1-.21-.07.29.29,0,0,1-.09-.21v-.35a.35.35,0,0,1,.1-.2.34.34,0,0,1,.2-.09c.13,0,.13,0,.25,0s.13,0,.26,0h.26c.12,0,.12,0,.25,0h.26c.13,0,.13,0,.25,0h.26c.13,0,.13,0,.26,0h1.54c.12,0,.12,0,.25,0h.26c.13,0,.13,0,.25,0a.27.27,0,0,1,.2.09.28.28,0,0,1,.09.2c0,.18,0,.18,0,.35a.23.23,0,0,1-.08.2.26.26,0,0,1-.2.1h-1c-.14,0-.14,0-.26,0a.33.33,0,0,0-.26.09.34.34,0,0,0-.1.26c0,.13,0,.13,0,.25v.5c0,.13,0,.13,0,.25s0,.13,0,.25,0,.13,0,.26v.24c0,.13,0,.13,0,.25s0,.13,0,.25,0,.13,0,.26,0,.12,0,.24,0,.13,0,.25,0,.13,0,.25v.26c0,.12,0,.12,0,.25s0,.12,0,.24v.25c0,.13,0,.13,0,.26s0,.12,0,.25,0,.12,0,.24a.31.31,0,0,1-.09.21.29.29,0,0,1-.21.06H78a.32.32,0,0,1-.21-.08"/><path class="cls-1" d="M85.42,75.25c0-.13,0-.13,0-.26v-.25c0-.13,0-.13,0-.26s0-.13,0-.25,0-.13,0-.25,0-.13,0-.26,0-.12,0-.26,0-.12,0-.25,0-.13,0-.25a.33.33,0,0,0-.09-.23.36.36,0,0,0-.23-.09h-.76c-.13,0-.13,0-.26,0s-.12,0-.25,0-.14,0-.26,0-.13,0-.25,0h-.52a.32.32,0,0,0-.22.07.33.33,0,0,0-.09.23v.25c0,.13,0,.13,0,.25v.26c0,.13,0,.13,0,.26v1c0,.13,0,.13,0,.26a.26.26,0,0,1-.25.24c-.13,0-.13,0-.28,0h-.28a.23.23,0,0,1-.24-.21c0-.13,0-.13,0-.26v-.26c0-.12,0-.12,0-.25s0-.13,0-.25,0-.14,0-.26,0-.13,0-.26,0-.12,0-.25V73.2c0-.13,0-.13,0-.25s0-.13,0-.25v-.52c0-.12,0-.12,0-.26v-.5c0-.13,0-.13,0-.27s0-.12,0-.25v-.25c0-.12,0-.12,0-.26s0-.13,0-.25,0-.13,0-.26,0-.12,0-.26v-.5a.23.23,0,0,1,.22-.24h.56a.23.23,0,0,1,.23.24v.25c0,.13,0,.13,0,.25s0,.14,0,.26,0,.13,0,.26,0,.12,0,.26v.25c0,.13,0,.13,0,.25s0,.13,0,.26,0,.13,0,.26a.35.35,0,0,0,.3.3h1.28c.13,0,.13,0,.26,0h.76a.31.31,0,0,0,.23-.08.35.35,0,0,0,.08-.22c0-.13,0-.13,0-.26s0-.13,0-.26,0-.12,0-.25,0-.12,0-.26,0-.13,0-.25,0-.13,0-.26v-.26c0-.12,0-.12,0-.25s0-.13,0-.25a.23.23,0,0,1,.24-.23h.56a.23.23,0,0,1,.24.24c0,.12,0,.12,0,.25v.77c0,.12,0,.12,0,.26s0,.13,0,.25v1.28c0,.13,0,.13,0,.25s0,.13,0,.25v.27c0,.12,0,.12,0,.25s0,.12,0,.25v1c0,.12,0,.12,0,.25s0,.13,0,.25V75c0,.13,0,.13,0,.26a.24.24,0,0,1-.24.24c-.14,0-.14,0-.28,0s-.13,0-.28,0a.22.22,0,0,1-.21-.23"/><path class="cls-1" d="M92.36,69.35v.22a.26.26,0,0,1-.09.16.23.23,0,0,1-.16.08h-.5c-.11,0-.11,0-.24,0h-.24c-.12,0-.12,0-.25,0h-1.7a.36.36,0,0,0-.23.08.34.34,0,0,0-.09.24c0,.12,0,.12,0,.25v.25c0,.13,0,.13,0,.25s0,.13,0,.26v.25a.32.32,0,0,0,.1.22.28.28,0,0,0,.23.09c.13,0,.13,0,.25,0h.77c.12,0,.12,0,.25,0s.13,0,.25,0h1a.27.27,0,0,1,.17.08A.24.24,0,0,1,92,72v.43a.24.24,0,0,1-.07.18.26.26,0,0,1-.17.07h-.51c-.13,0-.13,0-.25,0H90.7c-.12,0-.12,0-.25,0H89.18a.37.37,0,0,0-.23.1.35.35,0,0,0-.1.24c0,.12,0,.12,0,.25s0,.12,0,.26v.76a.34.34,0,0,0,.33.33h.49c.12,0,.12,0,.24,0h1.22c.12,0,.12,0,.25,0h.73a.27.27,0,0,1,.17.06.23.23,0,0,1,.06.18c0,.1,0,.1,0,.21s0,.11,0,.22a.26.26,0,0,1-.07.17.26.26,0,0,1-.16.07H91.6c-.12,0-.12,0-.25,0s-.12,0-.25,0h-.25c-.13,0-.13,0-.26,0H89.33c-.12,0-.12,0-.24,0h-.51c-.12,0-.12,0-.25,0s-.12,0-.25,0a.24.24,0,0,1-.17-.07.22.22,0,0,1-.07-.17c0-.13,0-.13,0-.26s0-.12,0-.25,0-.12,0-.25,0-.13,0-.26,0-.13,0-.25v-.51c0-.13,0-.13,0-.26s0-.13,0-.25v-.76c0-.13,0-.13,0-.26s0-.13,0-.25,0-.13,0-.25v-.52c0-.12,0-.12,0-.25s0-.13,0-.25v-.77c0-.13,0-.13,0-.25s0-.13,0-.25A.22.22,0,0,1,87.9,69a.26.26,0,0,1,.18-.09c.13,0,.13,0,.25,0h.51c.12,0,.12,0,.25,0s.13,0,.25,0,.13,0,.24,0h.51c.13,0,.13,0,.25,0h.25c.13,0,.13,0,.26,0h1.26a.26.26,0,0,1,.18.07.24.24,0,0,1,.06.18c0,.1,0,.1,0,.21"/><path class="cls-1" d="M99.63,71.78a1.22,1.22,0,0,1-.12.19,1.1,1.1,0,0,1-.15.16l-.16.17-.21.12a.84.84,0,0,1-.21.11,1.19,1.19,0,0,1-.23.07l-.24,0a1,1,0,0,1-.23,0h-.25c-.13,0-.13,0-.25,0h-.25c-.13,0-.13,0-.26,0h-.5a.41.41,0,0,0-.24.08.36.36,0,0,0-.09.23c0,.13,0,.13,0,.26s0,.11,0,.24v.25c0,.13,0,.13,0,.25s0,.13,0,.26,0,.12,0,.24,0,.13,0,.25,0,.13,0,.25,0,.13,0,.26a.23.23,0,0,1-.08.16.26.26,0,0,1-.16.09h-.54a.29.29,0,0,1-.18-.07.24.24,0,0,1-.05-.18c0-.13,0-.13,0-.26s0-.13,0-.26,0-.12,0-.25,0-.13,0-.25,0-.13,0-.25,0-.13,0-.26,0-.12,0-.25,0-.12,0-.26,0-.13,0-.25,0-.13,0-.25,0-.13,0-.26,0-.12,0-.25,0-.13,0-.25,0-.13,0-.25V69.91c0-.13,0-.13,0-.26s0-.13,0-.25,0-.13,0-.25a.21.21,0,0,1,.08-.17.25.25,0,0,1,.16-.08h1.82c.13,0,.13,0,.26,0h.51a1,1,0,0,1,.23,0,1.12,1.12,0,0,1,.22,0,1.11,1.11,0,0,1,.22.07,1.24,1.24,0,0,1,.2.1l.22.12.18.17.17.18.13.21a1.6,1.6,0,0,1,.1.23,1.09,1.09,0,0,1,.07.24,2,2,0,0,1,0,.24,2.11,2.11,0,0,1,0,.26,2.45,2.45,0,0,1,0,.27c0,.09,0,.17,0,.26a1,1,0,0,1-.08.25,1.8,1.8,0,0,1-.08.21m-.7-.51A1.55,1.55,0,0,0,99,71a2,2,0,0,0,0-.25.86.86,0,0,0,0-.24.52.52,0,0,0-.06-.23.69.69,0,0,0-.13-.2.9.9,0,0,0-.19-.15.73.73,0,0,0-.26-.09,1,1,0,0,0-.28,0H96.57a.38.38,0,0,0-.24.08.4.4,0,0,0-.1.24c0,.12,0,.12,0,.25s0,.13,0,.26,0,.13,0,.25,0,.14,0,.26,0,.13,0,.26a.3.3,0,0,0,.1.22.33.33,0,0,0,.23.1h1.5a1,1,0,0,0,.26,0,.84.84,0,0,0,.25-.09.7.7,0,0,0,.2-.15.62.62,0,0,0,.15-.2"/><path class="cls-1" d="M101.8,69.1c0,.13,0,.13,0,.24v.25c0,.12,0,.12,0,.25v.49c0,.12,0,.12,0,.24v.24c0,.13,0,.13,0,.26s0,.11,0,.24,0,.11,0,.24v.24c0,.13,0,.13,0,.25s0,.12,0,.24,0,.13,0,.25,0,.12,0,.25,0,.11,0,.24,0,.12,0,.24,0,.13,0,.25v.25c0,.12,0,.12,0,.24v.25a.3.3,0,0,0,.1.2.3.3,0,0,0,.22.1c.12,0,.12,0,.24,0s.12,0,.24,0h.73c.11,0,.11,0,.23,0h1a.22.22,0,0,1,.22.23c0,.11,0,.11,0,.23s0,.12,0,.24a.23.23,0,0,1-.22.23H104c-.13,0-.13,0-.25,0h-1c-.13,0-.13,0-.25,0s-.13,0-.26,0-.12,0-.25,0h-.5c-.13,0-.13,0-.25,0s-.12,0-.25,0a.22.22,0,0,1-.23-.21c0-.13,0-.13,0-.25v-.25c0-.12,0-.12,0-.24s0-.13,0-.25V74c0-.12,0-.12,0-.24s0-.13,0-.24v-.25c0-.12,0-.12,0-.25s0-.12,0-.24,0-.13,0-.25,0-.12,0-.25,0-.12,0-.24v-.49c0-.13,0-.13,0-.25s0-.12,0-.24v-.25c0-.12,0-.12,0-.24s0-.13,0-.25,0-.12,0-.25v-.24c0-.13,0-.13,0-.24s0-.13,0-.26V69.1a.23.23,0,0,1,.23-.23h.57a.23.23,0,0,1,.23.23"/><path class="cls-1" d="M111.5,75.4a.13.13,0,0,1-.12,0h-.25c-.13,0-.13,0-.26,0s-.13,0-.26,0a.09.09,0,0,1-.1-.07,1.93,1.93,0,0,1-.13-.24c-.06-.13-.07-.12-.14-.25s0-.13-.09-.26-.07-.11-.13-.24a.2.2,0,0,0-.18-.12c-.13,0-.13,0-.26,0s-.13,0-.26,0-.13,0-.27,0h-.26c-.13,0-.13,0-.26,0s-.13,0-.26,0H108c-.14,0-.14,0-.26,0s-.14,0-.26,0H107a.23.23,0,0,0-.19.13,2.72,2.72,0,0,1-.11.25l-.13.24a2,2,0,0,1-.1.26l-.12.25a.14.14,0,0,1-.13.07h-.25c-.13,0-.13,0-.25,0h-.3a.14.14,0,0,1-.08-.18l.1-.22a2.53,2.53,0,0,0,.12-.23,2,2,0,0,0,.09-.22c.06-.12.07-.11.13-.23a2.18,2.18,0,0,1,.09-.23,1.51,1.51,0,0,1,.11-.22c.06-.12.07-.12.12-.22a2.44,2.44,0,0,0,.1-.24,2.14,2.14,0,0,0,.1-.22,2.53,2.53,0,0,1,.12-.23,1.09,1.09,0,0,1,.09-.23c0-.11,0-.11.1-.23s.06-.11.11-.22.06-.11.11-.23a2.39,2.39,0,0,0,.12-.22c0-.11,0-.12.09-.24s.06-.1.12-.22,0-.11.1-.23.06-.11.11-.22a1.57,1.57,0,0,0,.09-.23,1.5,1.5,0,0,0,.11-.22,2.53,2.53,0,0,1,.12-.23l.11-.23c0-.1,0-.11.1-.22s.06-.12.11-.23a1.57,1.57,0,0,0,.09-.23,2.53,2.53,0,0,0,.12-.23c0-.1.06-.1.12-.21a.1.1,0,0,1,.1-.07s.1,0,.12.06,0,.12.09.23l.11.23.12.22c0,.11,0,.12.09.24s.07.1.12.21l.11.23c.06.12,0,.12.09.23a1.67,1.67,0,0,1,.12.23,2.26,2.26,0,0,0,.11.22,2.39,2.39,0,0,0,.12.22c.05.12,0,.12.09.23a2.29,2.29,0,0,1,.1.23c.06.12,0,.12.1.23s.07.11.12.22,0,.13.1.24.06.1.11.22.06.11.12.23,0,.11.09.22a2.53,2.53,0,0,1,.12.23c0,.11.06.1.11.22a2.29,2.29,0,0,0,.1.23l.11.22a1.7,1.7,0,0,0,.09.24c.05.11.06.1.11.22l.1.23a1.6,1.6,0,0,1,.1.23,2.39,2.39,0,0,0,.12.22,2.39,2.39,0,0,0,.12.22.2.2,0,0,1,0,.13m-2-2.16c-.06-.12-.07-.11-.13-.23a2.34,2.34,0,0,0-.09-.24l-.12-.25c-.05-.11-.06-.1-.12-.22s0-.13-.09-.24l-.13-.24-.12-.23c-.06-.12,0-.13-.1-.25s-.11-.19-.19-.19-.15.12-.18.19a1.09,1.09,0,0,0-.09.23l-.11.21a1.5,1.5,0,0,0-.11.22c0,.11-.07.11-.12.22a1.45,1.45,0,0,1-.09.22c0,.11-.06.1-.12.22s0,.11-.08.21a1.15,1.15,0,0,0-.1.23,2.39,2.39,0,0,0-.12.22l0,.08a.09.09,0,0,0,.09.12H109c.12,0,.12,0,.26,0s.2,0,.23,0,0-.18,0-.24"/><path class="cls-1" d="M117.8,69.14c0,.12,0,.12,0,.25v.24c0,.13,0,.13,0,.25s0,.13,0,.26,0,.12,0,.25,0,.13,0,.24,0,.13,0,.25,0,.13,0,.26v.75c0,.12,0,.12,0,.25s0,.12,0,.24,0,.13,0,.25,0,.13,0,.25,0,.13,0,.26,0,.11,0,.24,0,.13,0,.25,0,.13,0,.26,0,.12,0,.24,0,.12,0,.25v.25c0,.13,0,.13,0,.25s0,.12,0,.25a.21.21,0,0,1-.15.2.23.23,0,0,1-.24,0l-.18-.18c-.09-.09-.08-.1-.17-.19s-.1-.07-.19-.16-.07-.1-.16-.19-.1-.07-.19-.16-.08-.1-.17-.19l-.18-.17-.17-.18-.18-.17c-.09-.1-.1-.09-.19-.18s-.07-.1-.16-.19-.1-.07-.19-.16a1.45,1.45,0,0,0-.17-.18l-.17-.18-.18-.17-.19-.17-.18-.17c-.08-.09-.09-.09-.17-.17L114,72l-.18-.18a.29.29,0,0,0-.33-.07.28.28,0,0,0-.17.27v.26c0,.12,0,.12,0,.25V73c0,.13,0,.13,0,.26s0,.12,0,.25,0,.12,0,.25,0,.13,0,.25,0,.13,0,.25,0,.12,0,.25,0,.12,0,.25,0,.13,0,.25,0,.13,0,.25a.23.23,0,0,1-.21.24c-.15,0-.15,0-.29,0h-.28a.22.22,0,0,1-.23-.22c0-.12,0-.12,0-.25s0-.12,0-.24,0-.13,0-.25,0-.13,0-.25,0-.12,0-.25,0-.12,0-.25V73c0-.13,0-.13,0-.25s0-.13,0-.25,0-.12,0-.25,0-.13,0-.25,0-.13,0-.24,0-.13,0-.26,0-.12,0-.24V71c0-.13,0-.13,0-.25s0-.12,0-.25v-.25c0-.13,0-.13,0-.24v-.25c0-.13,0-.13,0-.25s0-.13,0-.25a.25.25,0,0,1,.15-.21.32.32,0,0,1,.09,0,.21.21,0,0,1,.16.08c.09.08.08.09.17.18s.08.1.17.18l.18.18.18.17.18.18c.09.08.09.09.17.17l.19.17.18.17c.09.09.08.1.17.18l.19.18c.09.09.08.1.16.19s.1.07.19.16l.18.19.18.17.17.18.17.18.19.17c.09.09.07.1.16.19l.18.17.18.18a.29.29,0,0,0,.33,0,.29.29,0,0,0,.19-.27c0-.13,0-.13,0-.26s0-.13,0-.25,0-.13,0-.25,0-.13,0-.26V69.64c0-.13,0-.13,0-.25s0-.13,0-.25a.22.22,0,0,1,.22-.22h.57a.22.22,0,0,1,.23.22"/><path class="cls-1" d="M120.75,75.39a.3.3,0,0,1-.07-.21v-.49c0-.13,0-.13,0-.26v-.25c0-.12,0-.12,0-.25s0-.12,0-.24,0-.13,0-.26v-1c0-.12,0-.12,0-.25s0-.12,0-.25,0-.13,0-.25,0-.12,0-.25v-.25c0-.12,0-.12,0-.25s0-.13,0-.25v-.5a.35.35,0,0,0-.12-.24.34.34,0,0,0-.25-.13h-.26c-.13,0-.13,0-.26,0h-.26c-.14,0-.14,0-.26,0H119a.3.3,0,0,1-.21-.07.29.29,0,0,1-.09-.21v-.35a.35.35,0,0,1,.1-.2.31.31,0,0,1,.2-.09c.12,0,.12,0,.25,0s.13,0,.26,0h.25c.13,0,.13,0,.26,0h.26c.12,0,.12,0,.25,0h.26c.13,0,.13,0,.25,0h1.55c.12,0,.12,0,.25,0h.26c.12,0,.12,0,.25,0a.29.29,0,0,1,.2.09.33.33,0,0,1,.09.2c0,.18,0,.18,0,.35a.31.31,0,0,1-.28.3h-1c-.14,0-.14,0-.27,0a.35.35,0,0,0-.26.09.38.38,0,0,0-.1.26c0,.13,0,.13,0,.25v.5c0,.13,0,.13,0,.25s0,.13,0,.25,0,.13,0,.26v.24c0,.13,0,.13,0,.25s0,.13,0,.25v.75c0,.13,0,.13,0,.25v.26c0,.12,0,.12,0,.25v.49c0,.13,0,.13,0,.26s0,.12,0,.25,0,.12,0,.24a.27.27,0,0,1-.09.21.25.25,0,0,1-.2.06H121a.3.3,0,0,1-.2-.08"/><path class="cls-1" d="M130.76,75.47c-.15,0-.15,0-.29,0h-.29a.17.17,0,0,1-.11-.06l-.17-.2c-.08-.09-.09-.09-.17-.19l-.16-.19-.16-.19c-.08-.1-.07-.12-.15-.22s-.09-.09-.17-.19l-.16-.19c-.08-.1-.09-.08-.17-.18l-.16-.21c-.08-.1-.09-.09-.17-.19s-.07-.1-.15-.2-.09-.09-.17-.19-.08-.1-.16-.2a.26.26,0,0,0-.17-.09l-.09,0a.25.25,0,0,0-.15.23c0,.12,0,.12,0,.25s0,.13,0,.25,0,.13,0,.25v1c0,.13,0,.13,0,.25s0,.13,0,.26a.15.15,0,0,1-.14.16h-.48c-.12,0-.12,0-.23,0a.18.18,0,0,1-.17-.17c0-.13,0-.13,0-.26v-.5c0-.13,0-.13,0-.25V73.06c0-.12,0-.12,0-.25s0-.12,0-.25,0-.13,0-.25v-.25c0-.13,0-.13,0-.26v-.74c0-.13,0-.13,0-.26s0-.12,0-.25,0-.12,0-.25,0-.13,0-.25,0-.13,0-.26,0-.12,0-.25,0-.12,0-.25,0-.13,0-.25a.17.17,0,0,1,.17-.16h.71a.17.17,0,0,1,.16.16c0,.12,0,.12,0,.25v.25c0,.13,0,.13,0,.25s0,.12,0,.25,0,.12,0,.25v.24c0,.13,0,.13,0,.26V71c0,.12,0,.12,0,.24a.26.26,0,0,0,.15.23.25.25,0,0,0,.26-.08c.08-.1.1-.09.18-.19s.06-.1.14-.19.11-.08.19-.18.06-.11.14-.21l.18-.18c.08-.1.09-.1.17-.19l.16-.19.16-.2c.08-.09.07-.1.16-.2l.16-.19.17-.18c.09-.09.08-.1.16-.19s.09-.09.17-.19a.14.14,0,0,1,.11-.07h.88a.13.13,0,0,1,.13.09.15.15,0,0,1,0,.17,1.46,1.46,0,0,0-.16.19c-.08.09-.1.08-.18.17a1.56,1.56,0,0,1-.16.2c-.08.1-.08.11-.16.2s-.09.08-.18.18-.06.11-.14.21-.09.09-.17.19-.07.09-.17.19l-.16.19c-.08.1-.09.09-.17.19s-.08.09-.16.18l-.16.19c-.09.1-.07.11-.16.2l-.17.2-.16.19a.23.23,0,0,0,0,.29l.16.19a1.56,1.56,0,0,0,.16.2l.16.2c.08.1.09.09.17.18s.09.1.17.19.06.12.15.22.09.09.17.19l.16.19.16.2c.08.09.07.09.15.19s.1.09.18.19.08.1.16.19.09.09.17.19.07.11.15.21l.15.2a.11.11,0,0,1,0,.15.17.17,0,0,1-.13.1c-.15,0-.15,0-.29,0"/><path class="cls-1" d="M133.14,69.08v.5c0,.12,0,.12,0,.24v.5c0,.12,0,.12,0,.25v.24c0,.13,0,.13,0,.25v1c0,.11,0,.11,0,.24s0,.13,0,.24V73c0,.12,0,.12,0,.25v.24c0,.13,0,.13,0,.26s0,.11,0,.24,0,.13,0,.25,0,.12,0,.24v.26c0,.11,0,.11,0,.24s0,.13,0,.24a.21.21,0,0,1-.2.22c-.16,0-.16,0-.31,0s-.15,0-.31,0a.22.22,0,0,1-.2-.23c0-.11,0-.11,0-.24v-.25c0-.12,0-.12,0-.25s0-.12,0-.25,0-.11,0-.24,0-.13,0-.24,0-.13,0-.26,0-.12,0-.24,0-.13,0-.25,0-.13,0-.25V72.3c0-.13,0-.13,0-.25s0-.12,0-.25,0-.12,0-.25,0-.12,0-.24v-.25c0-.12,0-.12,0-.25s0-.12,0-.24,0-.13,0-.25,0-.13,0-.25v-.25c0-.12,0-.12,0-.24s0-.13,0-.25,0-.12,0-.25a.2.2,0,0,1,.2-.2H133a.2.2,0,0,1,.19.21"/><path class="cls-1" d="M136.1,75.39a.3.3,0,0,1-.07-.21v-.24c0-.13,0-.13,0-.25s0-.13,0-.26v-.25c0-.12,0-.12,0-.25s0-.12,0-.24,0-.13,0-.26,0-.12,0-.25v-.25c0-.13,0-.13,0-.24s0-.13,0-.26,0-.12,0-.25,0-.12,0-.25,0-.13,0-.25,0-.12,0-.25v-.25c0-.12,0-.12,0-.25s0-.13,0-.25v-.25c0-.12,0-.12,0-.25a.35.35,0,0,0-.12-.24.32.32,0,0,0-.24-.13h-.26c-.14,0-.14,0-.27,0h-.26c-.13,0-.13,0-.26,0h-.26a.3.3,0,0,1-.21-.07.29.29,0,0,1-.09-.21v-.35a.35.35,0,0,1,.1-.2.34.34,0,0,1,.2-.09c.13,0,.13,0,.25,0s.13,0,.26,0h.26c.12,0,.12,0,.25,0h.26c.13,0,.13,0,.25,0h.26c.13,0,.13,0,.26,0H138c.12,0,.12,0,.25,0h.26c.13,0,.13,0,.25,0a.27.27,0,0,1,.2.09.28.28,0,0,1,.09.2c0,.18,0,.18,0,.35a.23.23,0,0,1-.08.2.26.26,0,0,1-.2.1h-1c-.14,0-.14,0-.26,0a.33.33,0,0,0-.26.09.34.34,0,0,0-.1.26v.75c0,.13,0,.13,0,.25s0,.13,0,.25,0,.13,0,.26v.24c0,.13,0,.13,0,.25v.25c0,.13,0,.13,0,.26s0,.12,0,.24,0,.13,0,.25,0,.13,0,.25v.26c0,.12,0,.12,0,.25s0,.12,0,.24v.51c0,.12,0,.12,0,.25s0,.12,0,.24a.27.27,0,0,1-.09.21.25.25,0,0,1-.2.06h-.45a.3.3,0,0,1-.21-.08"/><path class="cls-1" d="M144.43,74.39a1.62,1.62,0,0,1-.18.2l-.18.2-.21.16-.23.14a1.05,1.05,0,0,1-.21.12l-.21.11-.22.1a1.89,1.89,0,0,0-.23,0l-.24.06-.23,0a2,2,0,0,1-.24,0l-.26,0-.24,0-.25,0-.24-.07-.24-.1-.22-.12-.21-.13-.2-.14-.18-.17-.18-.17-.17-.19a1.7,1.7,0,0,1-.15-.22,1.07,1.07,0,0,1-.13-.21,2.53,2.53,0,0,1-.13-.22l-.1-.24c0-.08-.05-.17-.08-.26A2.5,2.5,0,0,1,139,73a2,2,0,0,1-.05-.26,2.6,2.6,0,0,1,0-.26,21.9,21.9,0,0,1,0-.81c0-.09.05-.17.07-.26a2.5,2.5,0,0,1,.07-.26,2.44,2.44,0,0,0,.06-.26l.11-.24a1.53,1.53,0,0,1,.14-.21,1.24,1.24,0,0,1,.12-.23,1.56,1.56,0,0,1,.16-.2l.16-.2.17-.19.2-.14a1,1,0,0,1,.2-.15,1,1,0,0,1,.2-.14l.22-.11.24-.09.24-.07.25-.05.24,0,.26,0,.24,0,.24,0a1.18,1.18,0,0,1,.25,0L143,69c.08,0,.14.07.22.09l.22.11.23.16.23.16c.07.06.15.1.22.17a1.32,1.32,0,0,1,.18.22.27.27,0,0,1,.07.2.32.32,0,0,1-.1.21.83.83,0,0,0-.14.13c-.08.06-.09,0-.17.1a.24.24,0,0,1-.19.08.27.27,0,0,1-.19-.1.85.85,0,0,0-.17-.16c0-.06-.13-.08-.19-.13a2.31,2.31,0,0,0-.19-.14l-.25-.09a2.18,2.18,0,0,0-.23-.09,4,4,0,0,0-.77,0l-.24,0-.23.09a1,1,0,0,0-.24.08l-.21.14-.2.15-.18.17-.17.2-.13.23c-.05.08-.11.14-.15.22a1.44,1.44,0,0,0-.08.25c0,.09,0,.18-.05.26a1.17,1.17,0,0,0,0,.26,2.17,2.17,0,0,0,0,.26,2.26,2.26,0,0,0,0,.26,2.17,2.17,0,0,0,0,.25A2.61,2.61,0,0,0,140,73a2.29,2.29,0,0,0,.1.23l.12.23a1.09,1.09,0,0,0,.14.23,1,1,0,0,0,.17.19,1.54,1.54,0,0,0,.19.17,1.39,1.39,0,0,0,.19.15l.21.14c.07,0,.15.09.23.12a1.68,1.68,0,0,0,.24.06l.24.05.26,0a1.6,1.6,0,0,0,.23,0l.23,0,.24-.08c.07,0,.13-.07.21-.1l.19-.12a2,2,0,0,0,.24-.16l.21-.2.18-.23a.28.28,0,0,1,.18-.09.31.31,0,0,1,.21,0l.16.09c.09,0,.08.06.16.11a.28.28,0,0,1,.14.18.28.28,0,0,1,0,.22,1.82,1.82,0,0,1-.15.23"/><path class="cls-1" d="M149.51,75.25c0-.13,0-.13,0-.26v-.25c0-.13,0-.13,0-.26s0-.13,0-.25,0-.13,0-.25,0-.13,0-.26,0-.12,0-.26,0-.12,0-.25,0-.13,0-.25a.3.3,0,0,0-.1-.23.32.32,0,0,0-.22-.09h-.76c-.13,0-.13,0-.26,0s-.12,0-.25,0-.13,0-.26,0-.13,0-.25,0h-.52a.32.32,0,0,0-.22.07.33.33,0,0,0-.09.23v.25c0,.13,0,.13,0,.25v.26c0,.13,0,.13,0,.26v1c0,.13,0,.13,0,.26a.26.26,0,0,1-.25.24c-.13,0-.13,0-.28,0h-.28a.23.23,0,0,1-.24-.21c0-.13,0-.13,0-.26v-.26c0-.12,0-.12,0-.25s0-.13,0-.25,0-.14,0-.26,0-.13,0-.26,0-.12,0-.25V73.2c0-.13,0-.13,0-.25s0-.13,0-.25v-.52c0-.12,0-.12,0-.26v-.5c0-.13,0-.13,0-.27s0-.12,0-.25v-.25c0-.12,0-.12,0-.26s0-.13,0-.25,0-.13,0-.26,0-.12,0-.26v-.5a.23.23,0,0,1,.22-.24h.56a.23.23,0,0,1,.23.24v.25c0,.13,0,.13,0,.25s0,.14,0,.26,0,.13,0,.26,0,.12,0,.26v.25c0,.13,0,.13,0,.25s0,.13,0,.26,0,.13,0,.26a.35.35,0,0,0,.3.3h1.28c.13,0,.13,0,.26,0h.76a.27.27,0,0,0,.22-.08.31.31,0,0,0,.09-.22c0-.13,0-.13,0-.26s0-.13,0-.26,0-.12,0-.25,0-.12,0-.26,0-.13,0-.25,0-.13,0-.26v-.26c0-.12,0-.12,0-.25s0-.13,0-.25a.23.23,0,0,1,.24-.23h.56a.23.23,0,0,1,.24.24c0,.12,0,.12,0,.25v.77c0,.12,0,.12,0,.26s0,.13,0,.25v1.28c0,.13,0,.13,0,.25s0,.13,0,.25v.27c0,.12,0,.12,0,.25s0,.12,0,.25v1c0,.12,0,.12,0,.25s0,.13,0,.25V75c0,.13,0,.13,0,.26a.24.24,0,0,1-.24.24c-.14,0-.14,0-.28,0s-.13,0-.28,0a.22.22,0,0,1-.21-.23"/><path class="cls-1" d="M156.27,69.35v.22a.26.26,0,0,1-.09.16.23.23,0,0,1-.16.08h-.5c-.12,0-.12,0-.24,0H155c-.12,0-.12,0-.25,0h-1.7a.41.41,0,0,0-.24.08.38.38,0,0,0-.08.24c0,.12,0,.12,0,.25v.25c0,.13,0,.13,0,.25s0,.13,0,.26v.25a.32.32,0,0,0,.1.22.28.28,0,0,0,.23.09c.13,0,.13,0,.25,0h.77c.12,0,.12,0,.25,0s.12,0,.25,0h1a.27.27,0,0,1,.17.08.24.24,0,0,1,.07.18c0,.1,0,.1,0,.21v.22a.23.23,0,0,1-.06.18.26.26,0,0,1-.17.07h-.51c-.13,0-.13,0-.26,0h-.25c-.13,0-.13,0-.25,0h-1.27a.43.43,0,0,0-.24.1.39.39,0,0,0-.09.24c0,.12,0,.12,0,.25s0,.12,0,.26v.76a.34.34,0,0,0,.33.33h.49c.12,0,.12,0,.24,0H155c.12,0,.12,0,.25,0H156a.27.27,0,0,1,.17.06.28.28,0,0,1,.06.18c0,.1,0,.1,0,.21s0,.11,0,.22a.26.26,0,0,1-.07.17.26.26,0,0,1-.16.07h-.51c-.12,0-.12,0-.25,0s-.13,0-.25,0h-.25c-.13,0-.13,0-.26,0h-1.26c-.13,0-.13,0-.24,0h-.51c-.12,0-.12,0-.25,0s-.12,0-.25,0a.24.24,0,0,1-.17-.07.22.22,0,0,1-.07-.17c0-.13,0-.13,0-.26s0-.12,0-.25,0-.12,0-.25,0-.13,0-.26,0-.13,0-.25v-.51c0-.13,0-.13,0-.26s0-.13,0-.25v-.76c0-.13,0-.13,0-.26s0-.13,0-.25,0-.13,0-.25v-.52c0-.12,0-.12,0-.25s0-.13,0-.25v-.77c0-.13,0-.13,0-.25s0-.13,0-.25a.22.22,0,0,1,.08-.18.24.24,0,0,1,.18-.09c.13,0,.13,0,.25,0h.51c.12,0,.12,0,.25,0s.13,0,.25,0,.13,0,.24,0H154c.13,0,.13,0,.25,0h.25c.13,0,.13,0,.26,0H156a.26.26,0,0,1,.18.07.24.24,0,0,1,.06.18c0,.1,0,.1,0,.21"/><path class="cls-1" d="M162.65,69.14c0,.12,0,.12,0,.25v.24c0,.13,0,.13,0,.25s0,.13,0,.26,0,.12,0,.25,0,.13,0,.24,0,.13,0,.25,0,.13,0,.26v.75c0,.12,0,.12,0,.25s0,.12,0,.24,0,.13,0,.25,0,.13,0,.25,0,.13,0,.26,0,.11,0,.24,0,.13,0,.25,0,.13,0,.26,0,.12,0,.24,0,.12,0,.25v.25c0,.13,0,.13,0,.25s0,.12,0,.25a.22.22,0,0,1-.16.2.23.23,0,0,1-.24,0c-.09-.09-.08-.1-.17-.18s-.08-.1-.17-.19-.1-.07-.19-.16-.07-.1-.16-.19-.1-.07-.19-.16-.08-.1-.17-.19l-.18-.17-.17-.18-.19-.17c-.09-.1-.09-.09-.18-.18s-.08-.1-.17-.19-.1-.07-.19-.16A1.45,1.45,0,0,0,160,73l-.17-.18-.18-.17-.19-.17-.18-.17c-.08-.09-.09-.09-.17-.17l-.18-.18-.17-.18a.3.3,0,0,0-.33-.07.28.28,0,0,0-.17.27v.26c0,.12,0,.12,0,.25V73c0,.13,0,.13,0,.26s0,.12,0,.25,0,.12,0,.25,0,.13,0,.25,0,.13,0,.25,0,.12,0,.25,0,.12,0,.25,0,.13,0,.25,0,.13,0,.25a.23.23,0,0,1-.22.24c-.14,0-.14,0-.29,0h-.28a.22.22,0,0,1-.22-.22c0-.12,0-.12,0-.25s0-.12,0-.24,0-.13,0-.25,0-.13,0-.25,0-.12,0-.25,0-.12,0-.25V73c0-.13,0-.13,0-.25s0-.13,0-.25,0-.12,0-.25,0-.13,0-.25,0-.13,0-.24,0-.13,0-.26,0-.12,0-.24V71c0-.13,0-.13,0-.25s0-.12,0-.25v-.25c0-.13,0-.13,0-.24v-.25c0-.13,0-.13,0-.25s0-.13,0-.25a.24.24,0,0,1,.14-.21l.09,0a.23.23,0,0,1,.17.08c.09.08.08.09.17.18s.08.1.17.18l.18.18.18.17.18.18.17.17.19.17.18.17c.09.09.08.1.17.18l.18.18c.09.09.08.1.16.19s.1.07.19.16l.18.19.18.17.17.18.17.18.19.17c.09.09.08.1.16.19l.19.17.18.18a.31.31,0,0,0,.51-.22c0-.13,0-.13,0-.26s0-.13,0-.25,0-.13,0-.25,0-.13,0-.26,0-.13,0-.26,0-.12,0-.25,0-.13,0-.25,0-.14,0-.26v-.77c0-.13,0-.13,0-.25s0-.13,0-.25a.22.22,0,0,1,.23-.22h.56a.23.23,0,0,1,.24.22"/><path class="cls-1" d="M0,13H6.79v7c.68-.85,1.44-1.73,2.27-2.65a19.08,19.08,0,0,1,2.8-2.49A14,14,0,0,1,15.24,13a11,11,0,0,1,4-.72,11.91,11.91,0,0,1,5.52,1.28A12.86,12.86,0,0,1,29,17.06a16.45,16.45,0,0,1,2.7,5.12,20.08,20.08,0,0,1,1,6.27,25.11,25.11,0,0,1-1.17,7.83,18.53,18.53,0,0,1-3.34,6.21,15.19,15.19,0,0,1-5.27,4.09A16.14,16.14,0,0,1,16,48a21.9,21.9,0,0,1-2.65-.15,15.88,15.88,0,0,1-2.3-.45,12.28,12.28,0,0,1-2.12-.79,17.51,17.51,0,0,1-2.09-1.16V61.74H0Zm6.79,25A6.37,6.37,0,0,0,7.47,41a7.25,7.25,0,0,0,1.89,2.36,9.3,9.3,0,0,0,2.89,1.6,11.17,11.17,0,0,0,3.7.58,7,7,0,0,0,3.6-1,9.17,9.17,0,0,0,2.93-2.74,14.23,14.23,0,0,0,2-4.26A19.35,19.35,0,0,0,25.18,32a28.87,28.87,0,0,0-.67-6.63,15.64,15.64,0,0,0-1.86-4.71,8,8,0,0,0-2.82-2.79A7.2,7.2,0,0,0,16.25,17a9,9,0,0,0-2.85.45,11.5,11.5,0,0,0-2.55,1.22A14,14,0,0,0,8.63,20.4a18.39,18.39,0,0,0-1.84,2.12Z"/><polygon class="cls-1" points="82.62 61.74 75.83 61.74 75.83 11.86 80.67 9.95 82.62 9.95 82.62 61.74"/><polygon class="cls-1" points="125.2 28.71 129.97 26.76 131.95 26.76 131.95 61.74 125.2 61.74 125.2 28.71"/><path class="cls-1" d="M40.15,24.36a3.18,3.18,0,0,0,2.08-.67,3.54,3.54,0,0,0,1.15-2.18,20,20,0,0,0,.17-2.32,9,9,0,0,1,2.63-6.49l-1.08.23a18,18,0,0,0-4.41,1.69,9.74,9.74,0,0,0-3,2.55,5.2,5.2,0,0,0-1.1,3.18,3.79,3.79,0,0,0,3.56,4"/><path class="cls-1" d="M62,17.68a6.7,6.7,0,0,0-2.08-2.87A10.29,10.29,0,0,0,56.1,13a17.54,17.54,0,0,0-2.8-.51c1.51,1.12,2.43,3.66,2.43,9.43,0,.34,0,.71,0,1.08v2.14c-1.53.4-3.09.82-4.69,1.26s-3.17.94-4.69,1.52a33.18,33.18,0,0,0-4.3,1.95,17.56,17.56,0,0,0-3.53,2.5,10.94,10.94,0,0,0-2.4,3.17,8.71,8.71,0,0,0-.88,4,9.19,9.19,0,0,0,.62,3.38,7.93,7.93,0,0,0,1.74,2.72,8.13,8.13,0,0,0,2.76,1.81,9.9,9.9,0,0,0,3.66.65,13.37,13.37,0,0,0,3.83-.5,14.6,14.6,0,0,0,3-1.3A19.73,19.73,0,0,0,53.4,44.5c.77-.64,1.56-1.27,2.36-1.9v4.69h6.83V21.43A10.47,10.47,0,0,0,62,17.68M55.76,40.12c-.67.5-1.34,1-2,1.45a17.11,17.11,0,0,1-2,1.2,10.84,10.84,0,0,1-2,.81,7.78,7.78,0,0,1-2.19.3,4.54,4.54,0,0,1-2.09-.51A6.22,6.22,0,0,1,43.77,42a7.08,7.08,0,0,1-1.24-2,6.15,6.15,0,0,1-.47-2.37,5.22,5.22,0,0,1,1.32-3.39,14.1,14.1,0,0,1,3.34-2.91A29,29,0,0,1,51.15,29a43.81,43.81,0,0,1,4.61-1.7Z"/><path class="cls-1" d="M140.77,53.93h.62l-.25-.34Z"/><path class="cls-1" d="M163.24,48.38A9.67,9.67,0,0,0,161,45.55a16.37,16.37,0,0,0-3.19-2.16c-1.19-.63-2.4-1.21-3.65-1.75s-2.48-1.06-3.66-1.57a19.88,19.88,0,0,1-3.19-1.71A9.18,9.18,0,0,1,145,36.28a4.33,4.33,0,0,1-.87-2.69,3.54,3.54,0,0,1,.47-1.76,4.67,4.67,0,0,1,1.33-1.45,7.08,7.08,0,0,1,2.07-1,9.53,9.53,0,0,1,7.82,1.2,14.38,14.38,0,0,1,4.37,4.75l2.48-2.22a22.4,22.4,0,0,0-3-3.28,12.43,12.43,0,0,0-2.84-1.93A10.38,10.38,0,0,0,154,27a19,19,0,0,0-3.19-.25,14.64,14.64,0,0,0-4.69.72,11.28,11.28,0,0,0-3.69,2,9.13,9.13,0,0,0-2.44,3,8.45,8.45,0,0,0-.88,3.83,8.73,8.73,0,0,0,.78,3.83A9.81,9.81,0,0,0,142,43a14.76,14.76,0,0,0,2.94,2.18c1.1.62,2.22,1.21,3.36,1.74l3.36,1.58a17.71,17.71,0,0,1,2.95,1.71,8.45,8.45,0,0,1,2.08,2.1,4.47,4.47,0,0,1,.63,1.45c.69,2.15,1.07,6.65-4.66,8.66l.3,0a16.14,16.14,0,0,0,3.86-.73,12.15,12.15,0,0,0,4.09-2.19,8.8,8.8,0,0,0,2.44-3.29,10.23,10.23,0,0,0,.81-4.07,7.81,7.81,0,0,0-.87-3.75"/><path class="cls-1" d="M130.78,20.87a3.07,3.07,0,0,1-1.84,1.89,3.19,3.19,0,0,1-3.46-.93,3.26,3.26,0,0,1-.72-2.07,5.12,5.12,0,0,1,.69-2.56,6.63,6.63,0,0,1,3.47-2.8,10.86,10.86,0,0,1,3.38-.69h.6c-.2,0-.61.47-.77.63a5.83,5.83,0,0,0-.72.89,3.92,3.92,0,0,0-.36,2.82,5.91,5.91,0,0,1-.27,2.83"/><path class="cls-1" d="M145.88,55.87c0-1.63,0-3.48-1.38-4.53a3.49,3.49,0,0,0-5.1,1.24,5.07,5.07,0,0,0,.62,5.31,9.74,9.74,0,0,0,3,2.55,17.61,17.61,0,0,0,4.41,1.68c.36.09.72.17,1.08.23a8.41,8.41,0,0,1-2.58-5.58c0-.29,0-.59-.05-.9"/><path class="cls-1" d="M64.14,7.28a17.75,17.75,0,0,1-2.09-1,3.9,3.9,0,0,1-1.5-1.76A3.4,3.4,0,0,1,62.69.21a4.16,4.16,0,0,1,3,.17,5.14,5.14,0,0,1,2.52,2.24,9.59,9.59,0,0,1,1.22,3.75,17.28,17.28,0,0,1-.12,4.73c0,.36-.12.72-.2,1.09a8.4,8.4,0,0,0-4.38-4.62l-.62-.29"/><path class="cls-1" d="M93.51,38.8a3.3,3.3,0,0,0,1.67-.37,2.75,2.75,0,0,0,1-1A4.36,4.36,0,0,0,96.74,36a9.66,9.66,0,0,0,.15-1.72,5.85,5.85,0,0,1,0-.6h0a8.92,8.92,0,0,1,2.64-6.48c-.37.07-.73.14-1.08.23a17,17,0,0,0-4.41,1.69,9.27,9.27,0,0,0-3,2.55A5.19,5.19,0,0,0,90,34.79a4.23,4.23,0,0,0,1,2.87,3.26,3.26,0,0,0,2.57,1.14"/><path class="cls-1" d="M115.32,32.12a6.78,6.78,0,0,0-2.09-2.87,10.45,10.45,0,0,0-3.77-1.84,17.54,17.54,0,0,0-2.8-.51c1.51,1.12,2.44,3.66,2.44,9.43h0c0,.35,0,.71,0,1.08v2.14l-4.69,1.26q-2.4.66-4.69,1.52a36,36,0,0,0-4.29,2,17.28,17.28,0,0,0-3.53,2.5A11.07,11.07,0,0,0,89.52,50a8.76,8.76,0,0,0-.89,4,9.07,9.07,0,0,0,.63,3.38,7.76,7.76,0,0,0,4.5,4.52,9.88,9.88,0,0,0,3.65.65,13.1,13.1,0,0,0,3.84-.5,14.08,14.08,0,0,0,3-1.3,18,18,0,0,0,2.51-1.74c.78-.64,1.56-1.27,2.36-1.9v4.69H116V35.88a10.71,10.71,0,0,0-.64-3.76m-6.2,22.45q-1,.75-2,1.44a17.21,17.21,0,0,1-2,1.2,10.75,10.75,0,0,1-2,.81,7.85,7.85,0,0,1-2.2.3,4.5,4.5,0,0,1-2.08-.51,6.22,6.22,0,0,1-1.76-1.35,6.53,6.53,0,0,1-1.24-2,6,6,0,0,1-.47-2.36,5.29,5.29,0,0,1,1.31-3.4,14.78,14.78,0,0,1,3.34-2.91,29.42,29.42,0,0,1,4.43-2.34,44.81,44.81,0,0,1,4.61-1.71Z"/></g></g></svg>