<svg width="1639" height="549" viewBox="0 0 1639 549" fill="none" xmlns="http://www.w3.org/2000/svg">
<g clip-path="url(#clip0)">
<path d="M776.6 342.7C770.9 297.5 770.5 141 803.9 60.0001C810 41.8001 800.4 24.6001 789.9 19.0001C779.4 13.4001 634.7 5.70005 593.1 5.60005C409.7 5.40005 290.1 23.3001 118.6 25.9001C-4.8 27.8001 63.8 99.6 30.2 162C-3.19999 212.9 -2.79999 311.5 2.90001 339.9C34.5 397.1 59.7 389.9 42.6 428.8C-30 594.4 750.3 542.5 791.1 534.5C815.5 529.7 799.6 408.7 776.6 342.7Z" fill="#67BA88"/>
<path d="M1516.1 509.8C1647.8 466.9 1645.2 372.3 1632.3 318.1C1573.3 154.4 1614.7 41.7999 1493.4 17.4999C1272.9 -26.7001 997.8 28.1999 774 16.4999C765.7 16.0999 782.8 51.2999 779.4 91.7999C772.5 173.9 738.3 274.4 761 353.6C780.2 420.7 759.2 538.8 781.9 537.3C811.7 535.4 894 534.3 931.4 532.5C1029.3 527.8 1463 527.1 1516.1 509.8Z" fill="#FDC600"/>
</g>
<defs>
<clipPath id="clip0">
<rect width="1638.1" height="548.5" fill="white"/>
</clipPath>
</defs>
</svg>
