<svg width="17" height="33" viewBox="0 0 17 33" fill="none" xmlns="http://www.w3.org/2000/svg">
<path d="M10 24.5L9.8 28.5H7.5V16C7.5 3.50002 7.5 3.50002 8.1 2.30002C8.9 0.600025 9.7 0.800025 10 2.80002C10.2 4.80002 10.2 18.6 10 24.5Z" fill="#234386"/>
<path d="M15 22.9999C12.3 26.9999 12 31.1 10.8 31.4C9.59997 31.8 10.6 32.2999 8.69997 32.2999C5.69997 32.2999 7.09997 31.5999 4.59997 27.4C2.59997 23.9999 1.19997 20.9999 1.49997 20.5999C1.99997 19.9999 3.09997 19.7999 3.79997 20.1999C4.49997 20.5999 6.19997 23.3999 6.39997 24.6999C6.59997 25.4999 7.99997 28.1999 8.49997 28.5999C8.59997 28.6999 8.79997 28.6999 8.79997 28.4999C9.49997 26.0999 11.5 21.8999 12.3 21.0999C12.6 20.7999 13 20.2999 13.1 20.0999C13.3 19.5999 14.8 19.5999 15.5 20.0999C16.2 20.5999 16.1 21.4999 15 22.9999Z" fill="#234386"/>
<path fill-rule="evenodd" clip-rule="evenodd" d="M9.0428 1.73615C8.9111 1.86571 8.74119 2.1117 8.55238 2.51292L8.54731 2.52369C8.39867 2.82096 8.31011 3.00026 8.24018 3.30197C8.16662 3.61938 8.1117 4.0847 8.07449 4.9344C8.00011 6.63275 7.99997 9.74205 7.99997 16V26.9716C8.142 27.226 8.2821 27.4635 8.41094 27.6661C8.44024 27.7122 8.46867 27.756 8.49614 27.7974C8.74765 27.0403 9.08735 26.1743 9.45858 25.3153L9.50039 24.4791C9.60001 21.5372 9.64997 16.6215 9.64997 12.1875C9.64997 7.75358 9.5997 3.85043 9.50364 2.86188C9.43248 2.39277 9.33665 2.0629 9.23727 1.85335C9.18836 1.75023 9.14823 1.69547 9.12332 1.66758C9.10426 1.68062 9.07762 1.70189 9.0428 1.73615ZM9.16059 1.64819C9.16059 1.64819 9.15823 1.64946 9.15374 1.65015C9.15839 1.64823 9.16059 1.64819 9.16059 1.64819ZM10.5427 23.0059C10.6143 20.0392 10.65 15.9375 10.65 12.1875C10.65 7.76478 10.6006 3.78186 10.4975 2.75027C10.4967 2.74211 10.4957 2.73397 10.4944 2.72585C10.4158 2.20151 10.2999 1.76032 10.1408 1.42482C9.99017 1.10724 9.74923 0.778672 9.36295 0.678526C8.9474 0.570791 8.58965 0.779169 8.34151 1.02327C8.08986 1.27083 7.86063 1.63536 7.65014 2.08163L7.64793 2.08605C7.49849 2.38491 7.36378 2.65432 7.266 3.0762C7.17081 3.48692 7.11323 4.02785 7.07545 4.89065C6.99997 6.61409 6.99997 9.74632 6.99997 15.9652V24.918C6.9496 24.789 6.91201 24.6802 6.89 24.5979C6.76654 23.8471 6.25256 22.7658 5.71828 21.8588C5.44166 21.3891 5.14592 20.9431 4.86965 20.5841C4.6102 20.247 4.3195 19.921 4.04804 19.7659C3.57407 19.4951 2.99964 19.4424 2.48807 19.5326C1.97748 19.6227 1.45929 19.8678 1.11586 20.2799C1.11039 20.2865 1.10509 20.2932 1.09997 20.3C1.01032 20.4196 0.979271 20.549 0.967425 20.6414C0.955091 20.7377 0.958601 20.8337 0.9678 20.9204C0.986165 21.0934 1.03438 21.2916 1.09868 21.5003C1.22846 21.9217 1.44823 22.4633 1.73308 23.0837C2.30476 24.3287 3.16349 25.9442 4.169 27.6535L4.17032 27.6558C4.78079 28.6814 5.15122 29.4897 5.41032 30.1261C5.52152 30.3992 5.61219 30.6405 5.69473 30.8601C5.70904 30.8982 5.7231 30.9357 5.73699 30.9725C5.82891 31.2163 5.91665 31.4442 6.01208 31.6422C6.21369 32.0603 6.47527 32.3965 6.96034 32.5896C7.38951 32.7604 7.9542 32.8 8.69997 32.8C9.18652 32.8 9.53511 32.7692 9.79412 32.6976C10.0852 32.6171 10.2684 32.4836 10.4056 32.3089C10.4438 32.2604 10.4853 32.1978 10.5083 32.1631C10.5141 32.1544 10.5187 32.1474 10.5218 32.1429C10.5462 32.1072 10.5635 32.0855 10.5837 32.0656C10.6187 32.0311 10.7048 31.9605 10.9434 31.8793C11.2154 31.8053 11.4274 31.6352 11.5927 31.4438C11.7611 31.2487 11.9039 31.0051 12.032 30.743C12.2665 30.2633 12.4936 29.6315 12.7443 28.9339C12.7653 28.8753 12.7865 28.8163 12.8079 28.7569C13.3687 27.1991 14.1002 25.2291 15.409 23.2877C15.9687 22.5232 16.3251 21.8467 16.4188 21.253C16.4674 20.9453 16.4479 20.6446 16.3355 20.3661C16.2225 20.086 16.0301 19.8642 15.7906 19.6932C15.326 19.3613 14.6603 19.225 14.1125 19.225C13.8319 19.225 13.5446 19.2603 13.2966 19.3465C13.0733 19.4242 12.7836 19.5791 12.6476 19.8862C12.6174 19.9408 12.5263 20.073 12.3845 20.2502C12.2426 20.4275 12.08 20.6129 11.9464 20.7465C11.6935 20.9994 11.3895 21.4668 11.08 22.0081C10.9086 22.3077 10.7275 22.6446 10.5427 23.0059ZM6.99997 27.2286C6.96501 27.1642 6.93023 27.0993 6.89574 27.0343C6.46103 26.2145 6.03176 25.2887 5.9149 24.8213C5.91116 24.8064 5.90812 24.7913 5.90578 24.7761C5.82144 24.2278 5.39116 23.2737 4.85665 22.3663C4.59577 21.9234 4.32276 21.5132 4.07716 21.194C3.81474 20.853 3.63044 20.679 3.5519 20.6341C3.32586 20.505 3.00029 20.4577 2.66186 20.5174C2.37455 20.5681 2.12852 20.6869 1.96478 20.8362C1.97563 20.9176 2.00306 21.0393 2.05438 21.206C2.16523 21.5659 2.3642 22.0617 2.64185 22.6664C3.19506 23.8711 4.03608 25.4552 5.03029 27.1454C5.66942 28.2193 6.06131 29.0731 6.33649 29.749C6.45324 30.0357 6.54902 30.2907 6.63153 30.5103C6.64563 30.5478 6.65935 30.5843 6.67271 30.6197C6.76633 30.8681 6.83953 31.0558 6.91285 31.2079C7.04875 31.4897 7.15592 31.5911 7.33022 31.6605C7.56043 31.7521 7.94573 31.8 8.69997 31.8C9.16341 31.8 9.40233 31.7684 9.52769 31.7337C9.62094 31.7079 9.61931 31.6911 9.61931 31.6911C9.63145 31.6757 9.6382 31.6654 9.65155 31.6452C9.66136 31.6303 9.67474 31.61 9.69645 31.5783C9.73886 31.5163 9.79739 31.4364 9.88189 31.3532C10.0555 31.1822 10.2917 31.0424 10.6419 30.9257C10.654 30.9216 10.6663 30.9181 10.6787 30.915C10.696 30.9106 10.7488 30.891 10.8358 30.7903C10.924 30.6881 11.0226 30.5309 11.1336 30.3039C11.3427 29.876 11.5513 29.296 11.8111 28.5735C11.8295 28.5224 11.8481 28.4707 11.867 28.4182C12.4305 26.8531 13.1978 24.7763 14.5855 22.7203C14.5892 22.7149 14.5929 22.7096 14.5968 22.7043C15.1337 21.9722 15.3752 21.4513 15.4311 21.097C15.4575 20.9297 15.4395 20.818 15.4082 20.7402C15.3774 20.664 15.3199 20.5858 15.2093 20.5069C14.974 20.3388 14.5397 20.225 14.1125 20.225C13.9055 20.225 13.7366 20.2523 13.6252 20.291C13.583 20.3057 13.5587 20.3183 13.546 20.326C13.4691 20.4787 13.3135 20.6897 13.1654 20.8749C13.0073 21.0725 12.8199 21.2872 12.6535 21.4536C12.5064 21.6007 12.2604 21.9583 11.9481 22.5045C11.6452 23.0341 11.3042 23.6972 10.9643 24.4142C10.7893 24.7833 10.6156 25.1645 10.4482 25.547L10.2993 28.525C10.286 28.7911 10.0664 29 9.79997 29H9.08908C8.99781 29.0834 8.88986 29.1319 8.78552 29.1528C8.56508 29.1969 8.3501 29.1251 8.19769 29H7.49997C7.22382 29 6.99997 28.7762 6.99997 28.5V27.2286ZM13.5345 20.334L13.5357 20.333Z" fill="#234386"/>
</svg>
