<svg width="55" height="54" viewBox="0 0 55 54" fill="none" xmlns="http://www.w3.org/2000/svg">
<path d="M5.17935 12.3094C6.57935 9.30942 9.37935 7.00945 11.5793 5.80945C15.6793 3.50945 17.9793 1.50945 22.7793 1.00945C30.6793 0.209453 30.8793 0.309453 34.1793 1.60945L40.1793 3.90945C44.2793 5.40945 51.0793 12.2094 52.4793 16.2094C56.0793 30.7094 53.1793 35.1094 52.1793 38.3094C51.7793 39.5094 47.8793 44.8094 44.5793 47.4094C37.7793 52.9094 33.0793 54.0094 23.8793 52.3094C20.7793 51.7094 17.4793 51.0094 16.6793 50.6094L10.5793 48.1094C7.47935 46.9094 4.67935 43.7094 2.07935 38.8094C-0.0206506 34.6094 0.57935 35.4094 0.57935 28.8094C0.57935 23.3094 0.37935 21.9094 1.17935 20.6094C1.67935 19.0094 1.97935 17.4094 1.97935 17.0094C1.97935 16.0094 4.57935 13.6094 5.17935 12.3094ZM29.8793 2.50945C24.1793 2.00945 16.4793 5.10945 9.57935 10.5094C5.37935 13.9094 4.77935 19.1094 3.07935 22.3094C2.17935 24.0094 2.77935 31.0094 4.67935 38.2094C6.27935 43.9094 10.4793 47.3094 19.4793 49.9094C26.8793 52.1094 32.1793 51.5094 41.0793 47.3094C46.7793 44.7094 46.1793 42.4094 48.9793 39.1094C52.4793 27.3094 54.1793 20.1094 45.4793 11.1094C40.0793 5.50945 34.3793 2.80945 29.8793 2.50945Z" fill="#234386"/>
<path fill-rule="evenodd" clip-rule="evenodd" d="M30.1742 1.02104C28.7741 0.936554 26.7964 1.10522 22.8304 1.50684C19.1404 1.89135 17.0115 3.16816 14.2193 4.84271C13.481 5.28555 12.6962 5.7562 11.8239 6.24552L11.8188 6.24843C9.67698 7.41669 6.97323 9.64842 5.63282 12.5201C5.45689 12.9008 5.15084 13.3328 4.82145 13.7579C4.57957 14.07 4.30745 14.4003 4.0404 14.7245C3.93943 14.8471 3.83919 14.9688 3.74157 15.0882C3.37901 15.5321 3.05034 15.9484 2.81307 16.3102C2.69471 16.4907 2.60675 16.6461 2.54973 16.7754C2.49014 16.9106 2.47935 16.9839 2.47935 17.0094C2.47935 17.2697 2.39214 17.8194 2.25602 18.4629C2.11569 19.1263 1.91186 19.9417 1.65659 20.7586C1.64421 20.7982 1.62694 20.8361 1.60518 20.8715C1.27088 21.4147 1.1275 21.9891 1.07892 23.1552C1.04829 23.8902 1.05576 24.8196 1.06589 26.0794C1.07212 26.854 1.07935 27.7534 1.07935 28.8094C1.07935 30.2639 1.05032 31.3617 1.0274 32.2283C1.0242 32.3494 1.02112 32.466 1.01825 32.5784C0.994675 33.5025 0.986728 34.1216 1.03947 34.6607C1.1415 35.7037 1.47033 36.4731 2.52383 38.5804C5.10851 43.45 7.83492 46.5109 10.7598 47.6431L10.769 47.6467L16.8689 50.1468C16.8769 50.15 16.8848 50.1535 16.8925 50.1572C16.896 50.1588 16.8995 50.1605 16.9029 50.1622C17.055 50.2383 17.3686 50.3462 17.8403 50.4778C18.2998 50.6061 18.8757 50.7478 19.5282 50.897C20.8321 51.195 22.425 51.5187 23.9723 51.8181C28.542 52.6624 31.9375 52.7996 35.0144 52.0728C38.0877 51.3468 40.8949 49.7464 44.2649 47.0207L44.2699 47.0166C45.8761 45.7511 47.6485 43.81 49.0761 42.0224C49.7877 41.1314 50.4073 40.2864 50.8718 39.5935C51.3467 38.8851 51.6263 38.3836 51.7037 38.1552C51.837 37.7291 51.9972 37.2952 52.1683 36.8316C52.6697 35.4732 53.2654 33.8593 53.5579 31.437C53.9483 28.2043 53.7842 23.5489 51.9998 16.353C51.3308 14.4647 49.3541 11.8413 46.9883 9.47549C44.6149 7.10214 41.9528 5.09069 40.0075 4.37901L40.0003 4.37638L34.0004 2.07633L33.9961 2.07466L33.9752 2.06643C32.3343 1.42 31.5291 1.1028 30.1742 1.02104ZM34.3583 1.14258L34.2819 1.11246C32.6863 0.483767 31.7485 0.114225 30.2344 0.0228606C28.7347 -0.0676436 26.6625 0.113663 22.7289 0.511997L22.7275 0.512144C18.7992 0.921341 16.4581 2.3279 13.6333 4.02507C12.9111 4.45897 12.1573 4.91186 11.3373 5.37194C9.07969 6.60397 6.18541 8.97122 4.72626 12.098L4.72537 12.0999C4.60122 12.3689 4.35754 12.724 4.031 13.1453C3.79891 13.4448 3.5416 13.7572 3.27813 14.077C3.17503 14.2022 3.07098 14.3285 2.96713 14.4556C2.60469 14.8993 2.24585 15.3517 1.97688 15.7618C1.84212 15.9672 1.72226 16.1735 1.63475 16.3719C1.54981 16.5645 1.47935 16.785 1.47935 17.0094C1.47935 17.1492 1.41656 17.5994 1.27767 18.2559C1.1463 18.877 0.956399 19.6389 0.719984 20.4028C0.280234 21.1423 0.12994 21.9098 0.079783 23.1136C0.0481968 23.8717 0.0559166 24.8418 0.0661529 26.1282C0.0722978 26.9005 0.0793496 27.7867 0.0793496 28.8094C0.0793496 30.25 0.0506594 31.3353 0.0277609 32.2015C0.0245536 32.3228 0.0214599 32.4398 0.0185746 32.5529C-0.00472582 33.4663 -0.0155293 34.1473 0.0442249 34.7581C0.167108 36.0142 0.587806 36.9444 1.63214 39.033L1.63767 39.0438C4.25089 43.9687 7.12204 47.3051 10.394 48.5738L16.4738 51.0655C16.7228 51.1868 17.1138 51.3133 17.5715 51.441C18.0526 51.5753 18.6455 51.721 19.3054 51.8718C20.6259 52.1737 22.2323 52.4999 23.7843 52.8003L23.7885 52.8011C28.4177 53.6565 31.9717 53.8191 35.2443 53.046C38.5201 52.2722 41.4623 50.5733 44.8912 47.8002C46.5843 46.4658 48.4108 44.4579 49.8575 42.6464C50.5835 41.7374 51.2201 40.8699 51.7024 40.1503C52.1717 39.4503 52.5292 38.8409 52.6537 38.4675L52.6566 38.4586C52.7725 38.0875 52.9201 37.688 53.0829 37.2473C53.5891 35.8772 54.2426 34.1085 54.5507 31.5569C54.9599 28.168 54.7747 23.3799 52.9646 16.0889C52.9608 16.0738 52.9564 16.0589 52.9512 16.0442C52.2127 13.9341 50.0955 11.1685 47.6954 8.76838C45.2951 6.3681 42.509 4.23062 40.3547 3.44122C40.3535 3.44078 40.3523 3.44033 40.3511 3.43989L34.3626 1.14425L34.3583 1.14258ZM29.9178 2.01091C34.5758 2.32323 40.3828 5.10393 45.839 10.7621C50.2555 15.3309 52.0713 19.4904 52.3037 24.0339C52.5338 28.5342 51.2039 33.3677 49.4587 39.2516C49.4389 39.3182 49.4055 39.3799 49.3606 39.4329C48.6861 40.2279 48.2148 40.9638 47.7955 41.672C47.6898 41.8504 47.586 42.0297 47.4822 42.2091C47.1799 42.7313 46.8773 43.254 46.5274 43.7573C45.5564 45.1538 44.2065 46.4321 41.2897 47.763C36.8181 49.873 33.2135 51.097 29.7759 51.5059C26.3299 51.9159 23.0853 51.5029 19.3389 50.3893C14.8105 49.081 11.4406 47.5584 8.99324 45.6134C6.53204 43.6573 5.02499 41.2908 4.19796 38.3446L4.19584 38.337C3.23957 34.7132 2.60945 31.1365 2.33164 28.2447C2.1928 26.7995 2.14105 25.5161 2.18288 24.4783C2.2237 23.4658 2.35518 22.6087 2.63746 22.0755C3.0445 21.3093 3.39091 20.413 3.75175 19.4226C3.82276 19.2277 3.89434 19.0292 3.96699 18.8276C4.25993 18.015 4.57021 17.1543 4.93047 16.2917C5.83296 14.1308 7.07316 11.8949 9.26475 10.1208L9.27115 10.1156C16.213 4.6829 24.0357 1.49723 29.9178 2.01091ZM9.89075 10.9006C7.88431 12.5261 6.72527 14.5891 5.85323 16.6771C5.50351 17.5145 5.2038 18.3457 4.91159 19.1562C4.83792 19.3605 4.76472 19.5635 4.69133 19.765C4.33036 20.7557 3.96401 21.7098 3.52118 22.5435C3.35348 22.8603 3.2225 23.5157 3.18207 24.5186C3.14265 25.4965 3.1909 26.7318 3.32706 28.1491C3.59915 30.9813 4.21864 34.5031 5.16181 38.0781C5.93499 40.83 7.32769 43.0123 9.61543 44.8305C11.9177 46.6602 15.1473 48.1375 19.6181 49.4291L19.6218 49.4302C23.2746 50.5161 26.3794 50.9029 29.6578 50.5129C32.9444 50.122 36.4389 48.9464 40.8659 46.8572L40.8718 46.8545C43.6529 45.5859 44.8525 44.4145 45.7063 43.1865C46.0306 42.72 46.3035 42.2487 46.5993 41.7378C46.707 41.5518 46.8177 41.3606 46.935 41.1625C47.355 40.4533 47.8406 39.691 48.5296 38.8672C50.269 32.9985 51.5236 28.3603 51.305 24.085C51.0873 19.8285 49.4032 15.888 45.1198 11.4569C39.7782 5.91746 34.1871 3.29775 29.8461 3.00835L29.8356 3.00765C24.3191 2.52375 16.746 5.5366 9.89075 10.9006Z" fill="#234386"/>
</svg>
