<svg xmlns="http://www.w3.org/2000/svg" viewBox="0 0 18.41 18.41"><defs><style>.cls-1{fill:#234386;}</style></defs><title>cooking-time</title><g id="Calque_2" data-name="Calque 2"><g id="contenu"><path class="cls-1" d="M12.48,10.83,9.92,8.9V5A.72.72,0,0,0,8.49,5V9.26a.7.7,0,0,0,.29.57L11.63,12a.68.68,0,0,0,.42.14.71.71,0,0,0,.58-.28A.72.72,0,0,0,12.48,10.83Z"/><path class="cls-1" d="M9.2,0a9.21,9.21,0,1,0,9.21,9.2A9.21,9.21,0,0,0,9.2,0Zm0,17A7.78,7.78,0,1,1,17,9.2,7.79,7.79,0,0,1,9.2,17Z"/></g></g></svg>