<svg width="118" height="36" viewBox="0 0 118 36" fill="none" xmlns="http://www.w3.org/2000/svg">
<g clip-path="url(#clip0)">
<path d="M99.71 0H17.62C7.88874 0 0 7.88874 0 17.62C0 27.3513 7.88874 35.24 17.62 35.24H99.71C109.441 35.24 117.33 27.3513 117.33 17.62C117.33 7.88874 109.441 0 99.71 0Z" fill="white"/>
<path d="M41.6902 16.6999C41.5802 13.5299 37.8802 11.7599 35.2502 13.1499C35.361 11.8593 34.9871 10.5737 34.2013 9.54387C33.4155 8.51404 32.2743 7.81387 31.0002 7.57993C28.3102 7.26993 25.8402 9.50993 25.4902 12.5799C25.4902 12.7699 25.4902 12.9499 25.4902 13.1399C24.4603 12.5516 23.2403 12.3918 22.0935 12.6948C20.9468 12.9979 19.9651 13.7396 19.3602 14.7599C17.0702 19.7599 20.2102 21.2399 24.4302 21.5499L24.1402 26.6599C24.1402 26.9251 24.2456 27.1795 24.4331 27.367C24.6207 27.5546 24.875 27.6599 25.1402 27.6599H35.2002C35.4655 27.6599 35.7198 27.5546 35.9073 27.367C36.0949 27.1795 36.2002 26.9251 36.2002 26.6599L35.9002 21.4699C38.7602 22.1599 42.0502 19.8199 41.6902 16.6999ZM27.7602 25.1699C27.7635 25.3183 27.7108 25.4624 27.6126 25.5736C27.5143 25.6848 27.3778 25.7549 27.2302 25.7699H26.9202C26.8479 25.7637 26.7775 25.7431 26.7132 25.7095C26.6488 25.6759 26.5917 25.6299 26.5452 25.5741C26.4988 25.5183 26.4638 25.4539 26.4423 25.3845C26.4209 25.3151 26.4134 25.2422 26.4202 25.1699L26.5402 21.9299C26.5399 21.7907 26.5923 21.6566 26.6869 21.5545C26.7816 21.4524 26.9114 21.3901 27.0502 21.3799H27.3402C27.4086 21.3838 27.4755 21.401 27.5371 21.4308C27.5987 21.4605 27.6539 21.5021 27.6994 21.5532C27.7449 21.6043 27.7799 21.6639 27.8024 21.7285C27.8248 21.7932 27.8343 21.8616 27.8302 21.9299L27.7602 25.1699ZM30.2702 25.7699H30.0002C29.8534 25.7572 29.7174 25.687 29.622 25.5747C29.5265 25.4624 29.4792 25.3169 29.4902 25.1699V21.9299C29.4848 21.791 29.5341 21.6555 29.6277 21.5526C29.7212 21.4497 29.8514 21.3877 29.9902 21.3799H30.2802C30.4191 21.3877 30.5493 21.4497 30.6428 21.5526C30.7363 21.6555 30.7857 21.791 30.7802 21.9299V25.1699C30.7913 25.3169 30.744 25.4624 30.6485 25.5747C30.553 25.687 30.4171 25.7572 30.2702 25.7699ZM33.2702 25.7699H33.0002C32.8526 25.7549 32.7161 25.6848 32.6179 25.5736C32.5197 25.4624 32.467 25.3183 32.4702 25.1699L32.4002 21.9299C32.3947 21.7926 32.4427 21.6585 32.5341 21.5559C32.6255 21.4533 32.7532 21.3902 32.8902 21.3799H33.1802C33.3191 21.3901 33.4489 21.4524 33.5435 21.5545C33.6382 21.6566 33.6906 21.7907 33.6902 21.9299L33.8102 25.1699C33.8171 25.2422 33.8096 25.3151 33.7881 25.3845C33.7667 25.4539 33.7317 25.5183 33.6852 25.5741C33.6387 25.6299 33.5817 25.6759 33.5173 25.7095C33.453 25.7431 33.3826 25.7637 33.3102 25.7699H33.2702Z" fill="#234386"/>
<path d="M70.3903 16.6999C70.2803 13.5299 66.5903 11.7599 63.9503 13.1499C64.0628 11.856 63.6869 10.5667 62.8967 9.53592C62.1065 8.50511 60.9591 7.80735 59.6803 7.57993C56.9803 7.26993 54.5203 9.50993 54.1703 12.5799C54.1603 12.7665 54.1603 12.9534 54.1703 13.1399C53.1348 12.5426 51.9053 12.3787 50.7495 12.684C49.5938 12.9894 48.6056 13.7391 48.0003 14.7699C45.7203 19.7699 48.8603 21.2499 53.0803 21.5599L52.7803 26.6699C52.7803 26.9351 52.8856 27.1895 53.0732 27.377C53.2607 27.5646 53.5151 27.6699 53.7803 27.6699H63.9103C64.1755 27.6699 64.4298 27.5646 64.6174 27.377C64.8049 27.1895 64.9103 26.9351 64.9103 26.6699L64.6103 21.4799C67.4603 22.1599 70.7503 19.8199 70.3903 16.6999ZM56.4603 25.1699C56.4685 25.3195 56.4175 25.4664 56.3183 25.5786C56.2191 25.6909 56.0797 25.7596 55.9303 25.7699H55.6303C55.5574 25.765 55.4864 25.7453 55.4213 25.7122C55.3563 25.679 55.2987 25.633 55.2519 25.5769C55.2052 25.5208 55.1703 25.4558 55.1494 25.3859C55.1285 25.3159 55.122 25.2425 55.1303 25.1699L55.2403 21.9299C55.2401 21.7891 55.2939 21.6536 55.3906 21.5513C55.4874 21.4489 55.6197 21.3876 55.7603 21.3799H56.0503C56.1182 21.3837 56.1847 21.401 56.2458 21.4309C56.3069 21.4608 56.3614 21.5026 56.4062 21.5538C56.4509 21.6051 56.4849 21.6647 56.5062 21.7293C56.5275 21.7939 56.5357 21.8621 56.5303 21.9299L56.4603 25.1699ZM58.9703 25.7699H58.6703C58.5967 25.7649 58.5248 25.7453 58.4588 25.7124C58.3927 25.6794 58.3339 25.6338 58.2856 25.578C58.2372 25.5223 58.2004 25.4575 58.1772 25.3875C58.154 25.3174 58.1448 25.2435 58.1503 25.1699V21.9299C58.1448 21.791 58.1942 21.6555 58.2877 21.5526C58.3812 21.4497 58.5114 21.3877 58.6503 21.3799H59.0003C59.1373 21.3902 59.265 21.4533 59.3564 21.5559C59.4479 21.6585 59.4958 21.7926 59.4903 21.9299V25.1699C59.5017 25.3138 59.457 25.4565 59.3658 25.5683C59.2745 25.6801 59.1435 25.7523 59.0003 25.7699H58.9703ZM61.9703 25.7699H61.6703C61.5208 25.7596 61.3814 25.6909 61.2822 25.5786C61.183 25.4664 61.132 25.3195 61.1403 25.1699L61.0703 21.9299C61.0648 21.8621 61.073 21.7939 61.0943 21.7293C61.1156 21.6647 61.1497 21.6051 61.1944 21.5538C61.2391 21.5026 61.2936 21.4608 61.3548 21.4309C61.4159 21.401 61.4824 21.3837 61.5503 21.3799H61.8403C61.9809 21.3876 62.1132 21.4489 62.2099 21.5513C62.3067 21.6536 62.3605 21.7891 62.3603 21.9299L62.4703 25.1699C62.4872 25.3118 62.4473 25.4545 62.3592 25.567C62.2711 25.6795 62.142 25.7524 62.0003 25.7699H61.9703Z" fill="#BBBFD8"/>
<path d="M98.7896 16.6999C98.6796 13.5299 94.9796 11.7599 92.3496 13.1499C92.4594 11.855 92.0813 10.5657 91.2894 9.53516C90.4976 8.50464 89.3492 7.80727 88.0696 7.57993C85.3796 7.26993 82.9096 9.50993 82.5596 12.5799C82.5596 12.7699 82.5596 12.9499 82.5596 13.1399C81.5296 12.5516 80.3097 12.3918 79.1629 12.6948C78.0161 12.9979 77.0344 13.7396 76.4296 14.7599C74.1396 19.7599 77.2796 21.2399 81.4996 21.5499L81.2096 26.6599C81.2096 26.9251 81.3149 27.1795 81.5025 27.367C81.69 27.5546 81.9444 27.6599 82.2096 27.6599H92.2996C92.5648 27.6599 92.8191 27.5546 93.0067 27.367C93.1942 27.1795 93.2996 26.9251 93.2996 26.6599L92.9996 21.4799C95.8596 22.1599 99.1496 19.8199 98.7896 16.6999ZM84.8596 25.1699C84.8629 25.3183 84.8101 25.4624 84.7119 25.5736C84.6137 25.6848 84.4772 25.7549 84.3296 25.7699H83.9996C83.9272 25.7637 83.8569 25.7431 83.7925 25.7095C83.7281 25.6759 83.6711 25.6299 83.6246 25.5741C83.5781 25.5183 83.5431 25.4539 83.5217 25.3845C83.5002 25.3151 83.4927 25.2422 83.4996 25.1699L83.6196 21.9299C83.6192 21.7907 83.6716 21.6566 83.7663 21.5545C83.8609 21.4524 83.9907 21.3901 84.1296 21.3799H84.4196C84.4879 21.3838 84.5548 21.401 84.6164 21.4308C84.6781 21.4605 84.7332 21.5021 84.7787 21.5532C84.8243 21.6043 84.8593 21.6639 84.8817 21.7285C84.9042 21.7932 84.9136 21.8616 84.9096 21.9299L84.8596 25.1699ZM87.3696 25.7699H87.0596C86.9127 25.7572 86.7768 25.687 86.6813 25.5747C86.5858 25.4624 86.5385 25.3169 86.5496 25.1699V21.9299C86.5441 21.791 86.5935 21.6555 86.687 21.5526C86.7805 21.4497 86.9107 21.3877 87.0496 21.3799H87.3396C87.4784 21.3877 87.6086 21.4497 87.7021 21.5526C87.7957 21.6555 87.845 21.791 87.8396 21.9299V25.1699C87.8514 25.3108 87.8096 25.4509 87.7224 25.5622C87.6352 25.6735 87.5092 25.7477 87.3696 25.7699V25.7699ZM90.3696 25.7699H90.0996C89.952 25.7549 89.8155 25.6848 89.7172 25.5736C89.619 25.4624 89.5663 25.3183 89.5696 25.1699L89.4996 21.9299C89.4955 21.8616 89.505 21.7932 89.5274 21.7285C89.5499 21.6639 89.5849 21.6043 89.6304 21.5532C89.6759 21.5021 89.7311 21.4605 89.7927 21.4308C89.8544 21.401 89.9212 21.3838 89.9896 21.3799H90.2796C90.4184 21.3901 90.5482 21.4524 90.6429 21.5545C90.7375 21.6566 90.7899 21.7907 90.7896 21.9299L90.9096 25.1699C90.9164 25.2422 90.9089 25.3151 90.8875 25.3845C90.866 25.4539 90.831 25.5183 90.7846 25.5741C90.7381 25.6299 90.681 25.6759 90.6167 25.7095C90.5523 25.7431 90.4819 25.7637 90.4096 25.7699H90.3696Z" fill="#BBBFD8"/>
</g>
<defs>
<clipPath id="clip0">
<rect width="117.33" height="35.24" fill="white"/>
</clipPath>
</defs>
</svg>
