<svg width="73" height="87" viewBox="0 0 73 87" fill="none" xmlns="http://www.w3.org/2000/svg">
<path d="M25.5999 46.7C26.0999 45.1 26.2999 43.5 26.7999 41.9C27.4999 39.5 27.4999 37 27.2999 34.5C27.2999 33.7 26.9999 32.9 26.7999 32.2C26.2999 30.4 25.6999 28.5 25.1999 26.7C24.5999 24.1 24.3999 21.4 24.1999 18.7C23.9999 14.9 25.2999 11.6 27.1999 8.29999C27.1999 8.29999 27.1999 8.19999 27.2999 8.19999C28.5999 6.79999 29.6999 5.29999 31.2999 4.19999C31.9999 3.69999 32.6999 3.29999 33.4999 2.79999C35.6999 1.29999 38.0999 0.599986 40.5999 0.299986C41.7999 0.0999864 43.0999 0.199986 44.3999 0.0999864C44.4999 0.0999864 44.6999 0.0999864 44.7999 0.0999864C45.2999 0.0999864 45.8999 -1.35638e-05 46.3999 0.0999864C47.1999 0.199986 47.8999 0.499986 48.6999 0.699986C49.9999 1.09999 51.3999 1.49999 52.5999 2.09999C54.7999 3.19999 56.9999 4.49999 58.9999 6.29999C59.5999 6.89999 60.1999 7.49999 60.8999 7.99999C62.5999 9.19999 63.7999 10.8 64.9999 12.4C66.3999 14.2 67.4999 16.2 68.6999 18.1C69.7999 19.9 70.6999 21.9 71.2999 24C72.1999 27.2 72.6999 30.4 72.4999 33.6C72.2999 37 71.8999 40.4 71.0999 43.6C70.5999 45.7 69.8999 47.7 69.1999 49.8C68.1999 52.8 67.0999 55.7 65.5999 58.6C64.6999 60.3 63.6999 61.9 62.7999 63.5C61.0999 66.5 59.0999 69.2 56.5999 71.5C54.7999 73.1 52.9999 74.6 51.1999 76.2C49.0999 78.1 46.6999 79.7 44.2999 81C39.3999 83.6 34.1999 85.2 28.6999 85.8C27.0999 86 25.3999 86.2 23.6999 86.2C20.8999 86.1 18.1999 85.5 15.5999 84.8C14.2999 84.4 12.9999 83.8 11.7999 83.1C10.4999 82.3 9.29988 81.4 8.09988 80.5C5.89988 78.8 4.39988 76.6 3.19988 74.2C2.39988 72.6 1.89988 71 1.39988 69.3C0.699879 66.6 0.899879 64 1.69988 61.4C2.29988 59.5 3.29988 57.7 4.49988 56C5.49988 54.7 6.59988 53.5 7.99988 52.6C9.99988 51.4 12.1999 50.6 14.4999 50.3C15.9999 50.2 17.3999 50.1 18.8999 50C20.2999 49.9 21.6999 50.1 22.9999 50.5C23.2999 50.6 23.6999 50.6 24.1999 50.7C24.6999 49.3 25.1999 48 25.5999 46.7ZM61.6999 60.5C62.8999 58.5 64.0999 56.4 65.1999 54.3C65.8999 52.9 66.3999 51.5 66.9999 50C67.6999 48.1 68.3999 46.1 68.9999 44.2C69.6999 41.5 70.2999 38.9 70.5999 36.1C70.8999 34.1 70.9999 32.1 70.7999 30.1C70.5999 28.1 70.1999 26 69.4999 24.1C68.1999 20.2 66.0999 16.7 63.7999 13.4C62.8999 12.1 61.7999 11 60.7999 9.89999C59.9999 8.89999 58.9999 8.09999 58.1999 7.29999C56.4999 5.59999 54.4999 4.39999 52.2999 3.39999C50.3999 2.49999 48.4999 1.59999 46.4999 1.19999C45.5999 0.999986 44.6999 0.899986 43.8999 0.799986C42.1999 0.799986 40.3999 0.599986 38.7999 1.29999C37.5999 1.79999 36.3999 2.29999 35.1999 2.99999C33.9999 3.59999 32.8999 4.39999 31.8999 5.19999C31.1999 5.69999 30.6999 6.29999 30.0999 6.89999C27.8999 9.19999 26.6999 11.9 26.3999 15C26.2999 16.3 26.0999 17.5 26.0999 18.8C26.0999 20.1 26.1999 21.3 26.4999 22.5C26.9999 24.7 27.6999 26.9 28.1999 29.1C28.6999 31.2 29.2999 33.3 29.3999 35.4C29.4999 36.8 29.2999 38.3 29.0999 39.8C28.5999 43 27.8999 46.1 26.7999 49.1C26.5999 49.7 26.3999 50.2 26.0999 50.8C25.6999 51.7 24.8999 52.2 23.8999 52.3C23.0999 52.4 22.1999 52.4 21.3999 52.3C19.7999 52.1 18.1999 52.1 16.4999 52.4C15.2999 52.6 13.9999 52.8 12.7999 53C10.8999 53.4 9.09988 54.3 7.59988 55.6C6.79988 56.3 5.99988 57 5.39988 57.9C4.59988 59.1 4.19988 60.5 3.79988 62C3.29988 64 3.59988 66.1 3.99988 68.1C4.19988 69.3 4.59988 70.5 5.09988 71.7C5.99988 74.1 7.39988 76.2 9.29988 77.8C10.1999 78.6 11.1999 79.4 12.0999 80.2C12.9999 80.9 13.9999 81.2 15.0999 81.6C19.9999 83.4 25.0999 83.6 30.1999 83.1C32.0999 82.9 33.8999 82.4 35.6999 81.8C37.7999 81.1 39.8999 80.3 41.8999 79.4C44.0999 78.4 46.0999 77.1 47.9999 75.5C49.4999 74.3 50.9999 73.2 52.3999 71.9C53.3999 71 54.2999 69.9 55.2999 68.9C57.8999 66.4 59.8999 63.5 61.6999 60.5Z" fill="#6F7FB5"/>
<path d="M12.0999 57.9C9.69988 60 7.29988 62 6.29988 65.2C5.29988 61.7 8.49988 56.9 12.9999 56C12.7999 55.5 12.3999 55.6 11.9999 55.6C11.0999 55.8 10.2999 56.2 9.59988 56.7C7.79988 57.9 6.49988 59.5 5.69988 61.5C5.09988 63.2 4.99988 64.9 5.89988 66.5C5.99988 66.7 6.09988 66.9 6.09988 67.1C6.19988 69.9 7.49988 72.2 9.19988 74.4C9.49988 74.8 9.89988 75 10.5999 75C10.4999 74.8 10.4999 74.6 10.3999 74.4C9.99988 74 9.59988 73.6 9.29988 73.1C8.99988 72.5 8.59988 72 8.59988 71.3C8.59988 70.7 8.19988 70.1 7.99988 69.5C7.39988 67.5 7.69988 65.7 8.69988 64C9.59988 62.4 10.8999 61.1 12.2999 59.9C12.6999 59.6 13.0999 59.3 13.5999 59.1C15.0999 58.5 16.4999 57.9 17.9999 57.2C19.6999 56.4 21.5999 56 23.3999 55.8C24.2999 55.7 25.2999 55.4 26.1999 55.2C26.4999 55.1 26.7999 55 27.1999 55C29.1999 54.8 30.8999 53.9 32.5999 52.8C33.4999 52.2 33.8999 51.2 34.4999 50.4C34.0999 50.7 33.5999 51 33.2999 51.4C31.9999 52.7 30.2999 53.2 28.5999 53.6C26.2999 54.2 23.9999 54.3 21.6999 54.4C20.8999 54.4 20.0999 54.6 19.3999 54.9C18.5999 55.1 17.7999 55.5 17.0999 55.7C15.9999 56.1 14.8999 56.5 13.6999 56.8C11.3999 57.3 9.59988 58.7 8.09988 60.6C7.79988 61 7.39988 61.5 6.99988 62.1C8.09988 61.5 8.69988 60.8 9.39988 60.1C10.1999 59.3 10.9999 58.6 11.9999 58.2C11.8999 57.9 11.9999 57.9 12.0999 57.9Z" fill="#6F7FB5"/>
<path d="M38.6999 15.5C38.8999 15.4 38.9999 15.4 39.1999 15.3C40.0999 15.1 40.5999 14.5 40.6999 13.5C40.6999 13.1 40.7999 12.8 41.1999 12.6C41.5999 12.4 41.7999 12 41.7999 11.6C41.8999 10.4 41.6999 9.29999 40.6999 8.59999C40.0999 8.19999 39.4999 7.99999 38.5999 8.29999C38.8999 8.49999 39.0999 8.59999 39.2999 8.69999C40.9999 9.39999 41.2999 9.99999 40.9999 11.8C40.9999 12 40.8999 12.2 40.8999 12.4C40.3999 12.9 39.8999 12.8 39.2999 12.5C38.6999 12.2 38.1999 12 37.4999 11.8C37.6999 12.7 38.1999 13.2 38.7999 13.6C38.4999 13.6 38.0999 13.7 37.8999 13.5C36.9999 13.1 36.1999 12.7 35.3999 12.3C35.1999 12.2 35.0999 11.9 34.9999 11.7C34.8999 11.4 34.7999 11.1 34.7999 10.7C33.9999 11.2 33.6999 12 34.1999 12.9C34.6999 13.8 35.2999 14.6 36.2999 15C36.4999 15.1 36.6999 15.2 36.8999 15.3C36.8999 16.9 36.9999 18.5 37.3999 20.1C37.9999 22.4 38.4999 24.8 39.0999 27C40.1999 30.8 40.2999 34.5 39.5999 38.4C38.8999 42.3 37.3999 45.7 35.1999 48.9C35.1999 48.9 35.1999 49 35.0999 49.2C35.5999 48.7 35.9999 48.3 36.3999 47.8C37.9999 45.7 39.1999 43.4 39.8999 40.8C40.8999 36.5 41.6999 32.2 40.8999 27.7C40.5999 25.8 40.2999 23.9 39.9999 22C39.7999 20.8 39.3999 19.7 39.0999 18.5C38.8999 17.5 38.6999 16.6 38.7999 15.5C38.5999 15.8 38.6999 15.7 38.6999 15.5Z" fill="#6F7FB5"/>
<path d="M35.1999 79C34.8999 79 34.5999 78.9 34.3999 79C31.1999 79.4 27.9999 79.2 24.7999 78.7C21.9999 78.3 19.2999 77.7 16.6999 76.7C14.9999 76 13.3999 75.1 11.8999 74C11.6999 73.9 11.4999 73.8 11.1999 73.5C11.2999 74.3 11.7999 74.8 12.2999 75.2C13.1999 75.8 14.0999 76.4 15.0999 76.9C16.9999 77.9 18.9999 78.4 20.9999 78.9C24.0999 79.6 27.2999 79.9 30.4999 79.8C31.6999 79.8 32.8999 79.6 34.0999 79.5C34.4999 79.5 34.8999 79.4 35.1999 79Z" fill="#6F7FB5"/>
<path d="M38.2999 76.4C35.7999 77.4 33.2999 77.5 30.7999 77.4C24.9999 77 19.3999 75.7 13.9999 73.5C13.5999 73.4 13.2999 73.2 12.6999 73C13.0999 73.6 13.3999 73.9 13.8999 74.1C15.1999 74.7 16.5999 75.3 17.8999 75.7C21.6999 76.9 25.5999 77.7 29.5999 78C32.0999 78.2 34.4999 78 36.8999 77.3C37.4999 77.3 37.9999 77.1 38.2999 76.4Z" fill="#6F7FB5"/>
<path d="M35.4999 23.2C35.1999 23.8 35.2999 24.3 35.4999 24.8C35.8999 26 36.3999 27.1 36.6999 28.3C37.2999 30.1 37.3999 32 36.9999 33.9C36.6999 35.7 36.2999 37.5 35.8999 39.3C35.5999 40.5 35.0999 41.6 34.6999 42.8C34.5999 43.2 34.3999 43.5 34.3999 44C34.8999 43.7 35.0999 43.3 35.2999 42.9C36.3999 41.1 37.0999 39.1 37.4999 37.1C37.5999 36.3 37.7999 35.5 37.8999 34.7C38.2999 32.7 38.1999 30.7 37.5999 28.8C37.3999 28.1 37.0999 27.5 36.7999 26.9C36.4999 25.5 35.9999 24.3 35.4999 23.2Z" fill="#6F7FB5"/>
<path d="M39.6999 73.7C39.2999 73.5 38.9999 73.7 38.7999 73.8C37.5999 74.4 36.2999 74.6 34.8999 74.7C30.8999 75 26.9999 74.6 23.0999 73.6C21.3999 73.2 19.6999 72.6 17.9999 72.1C17.7999 72 17.5999 72 17.2999 71.9C17.3999 72.4 17.6999 72.5 17.8999 72.7C19.0999 73.4 20.4999 73.9 21.7999 74.3C25.0999 75.2 28.3999 75.7 31.7999 75.7C33.5999 75.7 35.2999 75.6 36.9999 75.1C38.1999 74.8 38.9999 74.4 39.6999 73.7Z" fill="#6F7FB5"/>
<path d="M11.5999 75.9C11.6999 76.1 11.6999 76.2 11.7999 76.3C12.4999 77 13.1999 77.9 14.0999 78.5C15.6999 79.7 17.3999 80.7 19.4999 81C21.6999 81.4 23.9999 81.4 26.1999 81.2C26.4999 81.2 26.8999 81.2 27.2999 80.8C27.0999 80.7 26.8999 80.7 26.7999 80.7C25.8999 80.7 25.0999 80.7 24.1999 80.6C23.6999 80.6 23.2999 80.5 22.7999 80.5C19.1999 79.9 15.9999 78.5 12.8999 76.6C12.5999 76.4 12.2999 76.2 11.8999 76.1C11.7999 75.9 11.7999 75.9 11.5999 75.9Z" fill="#6F7FB5"/>
<path d="M45.2999 73.6C45.7999 73.7 46.0999 73.4 46.3999 73.3C48.2999 72.4 49.8999 71.1 51.5999 69.8C53.6999 68.1 55.6999 66.3 57.3999 64.2C58.7999 62.6 59.9999 60.9 60.8999 59C60.9999 58.7 61.0999 58.3 61.0999 58C60.2999 59.1 59.4999 60.3 58.6999 61.4C57.6999 62.7 56.5999 63.9 55.4999 65.1C52.8999 67.9 49.8999 70.2 46.7999 72.4C46.1999 72.7 45.5999 73 45.2999 73.6Z" fill="#6F7FB5"/>
<path d="M20.4999 71.1C20.6999 71.4 21.0999 71.5 21.4999 71.7C24.1999 72.7 26.9999 73.3 29.7999 73.4C32.0999 73.5 34.3999 73.4 36.5999 72.9C37.0999 72.8 37.6999 72.6 38.1999 72.3C38.4999 72.1 38.7999 71.8 38.9999 71.4C38.8999 71.4 38.6999 71.4 38.5999 71.4C36.9999 72.1 35.1999 72.4 33.4999 72.5C30.2999 72.7 27.0999 72.4 23.9999 71.6C23.1999 71.4 22.2999 71.2 21.4999 71C21.1999 70.9 20.8999 70.9 20.5999 70.9C20.5999 70.9 20.5999 71 20.4999 71.1Z" fill="#6F7FB5"/>
<path d="M63.1999 51.7C63.6999 51.6 63.6999 51.2 63.7999 50.9C65.0999 48.4 65.9999 45.8 66.6999 43.2C67.3999 40.6 67.9999 37.9 68.1999 35.2C68.2999 33.3 68.2999 31.4 68.0999 29.4C68.0999 29.1 67.9999 28.8 67.6999 28.4C67.6999 28.6 67.5999 28.7 67.5999 28.9C68.0999 35.6 66.6999 42 64.2999 48.2C63.9999 49.1 63.5999 50 63.2999 50.9C63.2999 51.1 63.2999 51.4 63.1999 51.7Z" fill="#6F7FB5"/>
<path d="M52.2999 59.9C51.0999 60.8 49.9999 61.7 48.8999 62.5C47.6999 63.3 46.5999 64.1 45.3999 64.9C44.1999 65.6 42.9999 66.3 41.7999 67C40.5999 67.7 39.2999 68.1 37.9999 69C38.4999 69.2 38.7999 69.1 39.1999 69C40.1999 68.6 41.0999 68.2 41.9999 67.8C44.6999 66.5 46.9999 64.9 49.3999 63.1C50.0999 62.5 50.7999 61.9 51.4999 61.3C51.8999 61 52.1999 60.6 52.2999 59.9Z" fill="#6F7FB5"/>
<path d="M65.0999 35.1C65.0999 35.7 64.9999 36.4 64.9999 37C64.8999 39.9 63.9999 42.6 63.0999 45.3C62.3999 47.3 61.5999 49.2 60.8999 51.2C60.7999 51.5 60.6999 51.8 60.5999 52.1C60.6999 52.1 60.6999 52.2 60.7999 52.2C60.9999 51.9 61.1999 51.6 61.3999 51.2C63.0999 47.5 64.6999 43.7 65.3999 39.7C65.5999 38.5 65.5999 37.3 65.5999 36C65.5999 35.7 65.4999 35.4 65.3999 35.1C65.2999 35.1 65.1999 35.1 65.0999 35.1Z" fill="#6F7FB5"/>
<path d="M26.2999 59.7C26.0999 59.7 25.8999 59.6 25.6999 59.6C22.3999 59.7 19.1999 60.6 16.3999 62.4C15.8999 62.7 15.3999 63.1 14.9999 63.5C14.8999 63.6 14.7999 63.9 14.5999 64.2C14.9999 64 15.1999 63.9 15.3999 63.8C16.9999 62.7 18.7999 62 20.5999 61.5C22.1999 61 23.7999 60.6 25.4999 60.1C25.7999 60 25.9999 59.9 26.1999 59.9C26.2999 59.8 26.2999 59.7 26.2999 59.7Z" fill="#6F7FB5"/>
<path d="M35.4999 31C35.0999 33.5 34.7999 35.9 34.2999 38.2C33.7999 40.5 32.7999 42.6 31.7999 44.9C34.2999 42.8 36.4999 34.6 35.4999 31Z" fill="#6F7FB5"/>
<path d="M56.0999 52.9C55.3999 53.8 54.6999 54.7 53.8999 55.6C53.6999 55.9 53.3999 56.2 53.0999 56.5C50.8999 58.7 48.5999 60.7 46.1999 62.6C45.3999 63.2 44.5999 63.7 43.8999 64.6C46.8999 63.7 54.8999 56.6 56.0999 52.9Z" fill="#6F7FB5"/>
<path d="M30.2999 45.3C30.4999 45 30.7999 44.7 30.9999 44.4C32.6999 41.3 33.6999 37.9 33.8999 34.4C33.9999 33.5 33.8999 33.2 33.5999 32.3C33.4999 32.8 33.4999 33 33.4999 33.3C33.0999 37.1 32.0999 40.8 30.3999 44.2C30.2999 44.5 30.0999 44.9 29.9999 45.2C30.0999 45.2 30.1999 45.3 30.2999 45.3Z" fill="#6F7FB5"/>
<path d="M28.0999 17.4C27.6999 17.6 27.5999 18 27.5999 18.4C27.4999 19 27.4999 19.5 27.4999 20.1C27.4999 23.2 28.2999 26.1 30.0999 28.6C30.1999 28.8 30.3999 29 30.7999 29.1C30.5999 28.7 30.4999 28.2 30.2999 27.8C29.6999 26.6 29.1999 25.3 28.7999 24C28.2999 21.9 28.0999 19.8 28.2999 17.7C28.1999 17.5 28.1999 17.5 28.0999 17.4Z" fill="#6F7FB5"/>
<path d="M49.6999 68.8C50.3999 68.2 50.9999 67.7 51.4999 67.2C52.9999 65.7 54.3999 64.1 55.8999 62.6C56.8999 61.5 57.7999 60.3 58.4999 59C58.6999 58.7 58.7999 58.3 58.7999 57.8C58.5999 58 58.3999 58.2 58.1999 58.4C57.0999 60.2 55.5999 61.8 54.1999 63.4C52.8999 64.9 51.4999 66.3 50.0999 67.8C49.8999 67.9 49.5999 68.1 49.6999 68.8Z" fill="#6F7FB5"/>
<path d="M48.9999 72.1C47.7999 72.7 46.7999 73.6 45.6999 74.3C44.4999 75 43.2999 75.7 42.0999 76.4C40.8999 77.1 39.7999 77.7 38.4999 78.5C38.6999 78.6 38.8999 78.7 38.9999 78.7C39.3999 78.6 39.7999 78.5 40.1999 78.3C42.1999 77.2 44.2999 76.3 46.0999 74.9C46.7999 74.4 47.4999 73.8 48.1999 73.3C48.4999 73 48.7999 72.7 49.0999 72.4C49.0999 72.2 48.9999 72.2 48.9999 72.1Z" fill="#6F7FB5"/>
<path d="M33.8999 66.2C34.3999 66.4 34.7999 66.2 35.1999 66.1C37.1999 65.6 39.0999 64.7 40.8999 63.6C41.8999 63 42.7999 62.4 43.6999 61.7C44.2999 61.2 44.7999 60.7 45.1999 60.1C43.3999 61.2 41.5999 62.5 39.6999 63.5C37.8999 64.5 35.8999 65.3 33.8999 66.2Z" fill="#6F7FB5"/>
<path d="M24.2999 62.1C26.3999 62.4 34.0999 59 35.5999 57.2C33.6999 58.1 31.7999 59 29.9999 59.8C28.1999 60.6 26.2999 61.3 24.2999 62.1Z" fill="#6F7FB5"/>
<path d="M48.2999 48C50.0999 43.9 51.3999 39.7 50.7999 35.1C50.4999 35.9 50.5999 36.8 50.4999 37.6C50.3999 38.5 50.2999 39.4 50.1999 40.3C50.0999 41.1 49.8999 42 49.5999 42.8C49.3999 43.7 49.0999 44.5 48.8999 45.4C48.5999 46.3 48.3999 47.1 48.0999 48C48.0999 48 48.1999 48 48.2999 48Z" fill="#6F7FB5"/>
<path d="M31.8999 34.8C31.7999 35.5 31.6999 36.2 31.4999 36.8C30.8999 39 30.1999 41.2 29.5999 43.4C29.4999 43.7 29.3999 44.1 29.2999 44.5C29.7999 44.4 29.8999 44 30.0999 43.8C31.0999 41.8 31.5999 39.7 31.9999 37.5C32.0999 36.8 32.0999 36 32.1999 35.2C32.1999 35.1 32.0999 34.9 32.0999 34.7C31.9999 34.8 31.8999 34.8 31.8999 34.8Z" fill="#6F7FB5"/>
<path d="M40.3999 69.4C42.7999 69.1 48.3999 65.6 49.8999 63.4C48.8999 64.1 47.8999 64.9 46.8999 65.6C45.8999 66.3 44.7999 66.9 43.6999 67.5C42.5999 68.1 41.3999 68.6 40.3999 69.4Z" fill="#6F7FB5"/>
<path d="M56.5999 57.6C54.9999 60.7 52.4999 63 50.5999 65.8C50.6999 65.8 50.7999 65.7 50.8999 65.7C52.9999 63.7 54.9999 61.5 56.4999 59C56.7999 58.6 56.9999 58.2 56.5999 57.6Z" fill="#6F7FB5"/>
<path d="M28.9999 18.1C27.8999 20.2 28.9999 25.3 30.6999 26.7C30.2999 25.3 29.7999 23.9 29.4999 22.5C29.1999 21 29.0999 19.6 28.9999 18.1Z" fill="#6F7FB5"/>
<path d="M9.69988 66.5C9.59988 67.6 10.1999 68.4 10.7999 69.2C11.7999 70.6 12.9999 71.8 14.8999 71.9C14.1999 71.4 13.4999 71 12.8999 70.4C12.2999 69.8 11.7999 69.2 11.2999 68.5C10.7999 67.8 10.3999 67.1 9.99988 66.4C9.89988 66.4 9.79988 66.5 9.69988 66.5Z" fill="#6F7FB5"/>
<path d="M59.4999 51.7C61.2999 48.5 62.6999 45 63.0999 41.3C62.4999 43 61.9999 44.8 61.2999 46.5C60.5999 48.2 59.8999 49.9 59.1999 51.6C59.2999 51.7 59.3999 51.7 59.4999 51.7Z" fill="#6F7FB5"/>
<path d="M31.4999 27C31.6999 26.5 31.4999 26.3 31.3999 26C31.0999 24.8 30.6999 23.6 30.4999 22.5C30.2999 21.7 30.3999 20.8 30.3999 19.9C30.3999 19.6 30.3999 19.3 30.3999 18.9C29.7999 19.2 29.7999 19.6 29.7999 20C29.5999 22 29.9999 24 30.7999 25.8C30.9999 26.1 31.1999 26.5 31.4999 27Z" fill="#6F7FB5"/>
<path d="M40.9999 70.9C42.3999 70.9 47.5999 67.5 48.3999 66.3C48.1999 66.4 47.9999 66.4 47.8999 66.5C45.5999 67.9 43.2999 69.4 40.9999 70.9Z" fill="#6F7FB5"/>
<path d="M61.5999 21.6C61.1999 19.3 57.7999 14.3 55.8999 13.5C58.3999 16.1 59.8999 18.9 61.5999 21.6Z" fill="#6F7FB5"/>
<path d="M34.4999 70.6C33.0999 70.8 31.6999 71 30.2999 71.1C28.8999 71.2 27.4999 71.1 25.9999 71C26.7999 71.6 27.9999 71.7 30.2999 71.6C32.5999 71.5 33.7999 71.2 34.4999 70.6Z" fill="#6F7FB5"/>
<path d="M32.1999 60.9C33.9999 60.8 37.4999 58.6 38.5999 57C38.3999 57 38.1999 57 38.0999 57.1C36.3999 58.4 34.6999 59.4 32.7999 60.4C32.5999 60.5 32.4999 60.6 32.1999 60.9Z" fill="#6F7FB5"/>
<path d="M62.4999 16.3C61.1999 14.1 56.0999 9.79999 54.1999 9.29999C55.5999 10.4 57.0999 11.4 58.4999 12.6C59.8999 13.7 61.1999 15 62.4999 16.3Z" fill="#6F7FB5"/>
<path d="M48.8999 40.7C47.9999 43.4 47.0999 46.1 46.1999 48.8C47.3999 47.6 48.9999 42.8 48.8999 40.7Z" fill="#6F7FB5"/>
<path d="M41.8999 72.5C43.3999 72.3 46.9999 69.9 47.5999 68.7C47.3999 68.8 47.1999 68.8 47.0999 68.9C45.6999 69.8 44.1999 70.7 42.7999 71.7C42.3999 71.9 41.9999 72.1 41.8999 72.5Z" fill="#6F7FB5"/>
<path d="M58.4999 19.8C58.9999 21 59.4999 22 59.8999 23.1C60.2999 24.2 60.4999 25.3 60.8999 26.5C61.1999 25.7 61.1999 25.3 60.5999 23.2C60.0999 22 59.6999 20.7 58.4999 19.8Z" fill="#6F7FB5"/>
<path d="M42.5999 29C42.5999 31.5 42.5999 34.1 42.5999 36.7C43.1999 35.4 43.2999 30.7 42.5999 29Z" fill="#6F7FB5"/>
<path d="M60.4999 44.5C60.2999 45.3 60.0999 46.1 59.7999 46.9C59.4999 47.7 59.1999 48.5 58.8999 49.2C58.5999 50 58.0999 50.7 57.8999 51.7C59.0999 50.6 60.6999 46.2 60.4999 44.5Z" fill="#6F7FB5"/>
<path d="M48.4999 19.1C49.1999 21.2 50.0999 23.2 50.3999 25.5C50.7999 24.7 50.7999 24.5 50.4999 23.3C50.2999 22.5 49.9999 21.8 49.6999 21.1C49.3999 20.3 49.0999 19.6 48.4999 19.1Z" fill="#6F7FB5"/>
<path d="M31.3999 47.6C30.0999 48.9 28.8999 50.1 27.5999 51.4C27.4999 51.5 27.5999 51.6 27.4999 51.8C29.3999 50.9 30.5999 49.4 31.4999 47.7C31.4999 47.7 31.4999 47.6 31.3999 47.6Z" fill="#6F7FB5"/>
<path d="M31.9999 66C33.9999 65.7 35.6999 64.8 37.1999 63.5C36.1999 63.6 35.3999 64.2 34.4999 64.6C33.6999 65 32.6999 65.2 31.9999 66Z" fill="#6F7FB5"/>
<path d="M31.4999 20.2C30.8999 21.6 31.2999 24.6 32.2999 26.1C31.9999 24.1 31.6999 22.1 31.4999 20.2Z" fill="#6F7FB5"/>
<path d="M30.3999 36.9C31.2999 35.2 31.2999 31.6 30.3999 30.3C30.2999 30.9 30.4999 31.4 30.5999 31.9C30.5999 32.5 30.5999 33 30.5999 33.6C30.5999 34.1 30.4999 34.7 30.4999 35.2C30.3999 35.6 30.3999 36.1 30.3999 36.9Z" fill="#6F7FB5"/>
<path d="M27.9999 15.3C28.5999 14.6 29.0999 13.9 29.7999 13.4C30.3999 12.9 31.1999 12.5 31.8999 11.9C30.5999 12 29.5999 12.7 28.7999 13.6C28.2999 14.1 27.7999 14.5 27.9999 15.3Z" fill="#6F7FB5"/>
<path d="M12.6999 67C13.6999 68.8 15.7999 70.1 17.1999 69.9C16.8999 69.7 16.6999 69.6 16.4999 69.5C15.4999 69 14.4999 68.4 13.6999 67.7C13.3999 67.5 12.9999 67.3 12.6999 67Z" fill="#6F7FB5"/>
<path d="M32.3999 48.3C31.0999 49.7 29.8999 51 28.5999 52.3C29.1999 52.2 29.7999 51.8 30.8999 50.7C31.8999 49.7 32.1999 49.2 32.3999 48.3Z" fill="#6F7FB5"/>
<path d="M11.0999 64.8C11.2999 64.6 11.4999 64.4 11.5999 64.2C11.9999 63.2 12.5999 62.3 12.8999 61.2C12.2999 61.3 12.0999 61.6 11.8999 62C11.4999 62.9 10.8999 63.7 10.7999 64.7C10.8999 64.7 10.9999 64.8 11.0999 64.8Z" fill="#6F7FB5"/>
<path d="M13.1999 54.7C14.0999 54.8 14.8999 54.5 15.6999 54.4C16.4999 54.3 17.2999 54.2 18.0999 54.1C16.8999 53.5 14.0999 53.9 13.1999 54.7Z" fill="#6F7FB5"/>
<path d="M29.4999 11.9C30.4999 11.4 31.3999 10.9 32.3999 10.4C32.3999 10.4 32.3999 10.3 32.4999 10.2C31.6999 9.89999 31.0999 10.4 30.4999 10.7C30.0999 11 29.4999 11.2 29.4999 11.9Z" fill="#6F7FB5"/>
<path d="M12.3999 65C12.9999 63.9 13.4999 63 14.0999 62C13.4999 61.9 13.2999 62.2 13.0999 62.5C12.5999 63.2 12.1999 63.9 12.3999 65Z" fill="#6F7FB5"/>
<path d="M40.8999 56.3C39.6999 57.3 38.4999 58.3 37.2999 59.3C37.2999 59.4 37.3999 59.4 37.3999 59.5C38.6999 58.6 40.0999 57.8 40.9999 56.5C40.8999 56.4 40.8999 56.4 40.8999 56.3Z" fill="#6F7FB5"/>
<path d="M10.5999 71.2C9.89988 70.3 9.49988 69.4 8.79988 68.9C8.49988 69.2 8.69988 69.4 8.79988 69.6C9.09988 70.3 9.69988 70.8 10.5999 71.2Z" fill="#6F7FB5"/>
<path d="M50.8999 20.9C50.8999 21.6 51.2999 23.4 51.5999 24C51.8999 23.1 51.5999 21.9 50.8999 20.9Z" fill="#6F7FB5"/>
<path d="M43.3999 28.8C43.4999 30 43.6999 31.2 43.8999 32.4C44.1999 31.6 44.0999 30 43.3999 28.8Z" fill="#6F7FB5"/>
<path d="M14.9999 53.6C13.8999 53.4 12.5999 53.8 11.6999 54.6C11.9999 54.5 12.1999 54.5 12.3999 54.5C13.2999 54.2 14.0999 53.9 14.9999 53.6Z" fill="#6F7FB5"/>
<path d="M18.9999 66.9C18.1999 66.6 17.3999 66.2 16.1999 66.4C17.2999 66.8 18.0999 67.1 18.9999 66.9Z" fill="#6F7FB5"/>
<path d="M52.8999 21.9C52.9999 22.4 52.9999 22.9 53.0999 23.5C53.1999 23.5 53.1999 23.5 53.2999 23.5C53.3999 23 53.3999 22.5 53.1999 22L52.8999 21.9Z" fill="#6F7FB5"/>
</svg>
