<svg width="84" height="86" viewBox="0 0 84 86" fill="none" xmlns="http://www.w3.org/2000/svg">
<path d="M56.8 49.6C57.5 49.1 58.1 48.7 58.7 48.3C59.7 47.6 60.8 47.2 62 46.9C63.7 46.5 65.4 46.2 67.2 46.1C68.5 46.1 69.7 46 71 46C73.1 46.1 75.1 46.6 76.9 47.7C78.7 48.8 80.2 50.2 81.2 52.1C81.7 53 82.1 53.9 82.4 54.9C82.9 56.5 83.3 58 83.4 59.7C83.5 61.5 83.6 63.3 83.4 65.1C83.3 65.5 83.3 65.9 83.3 66.3C83.3 67.1 83 67.8 82.8 68.5C82.4 69.8 81.8 71.1 81.1 72.3C80.5 73.2 80 74.1 79.4 75C78.5 76.2 77.7 77.4 76.6 78.3C76.4 78.5 76.1 78.7 75.9 78.8C75 79.3 74.2 79.9 73.3 80.4C71.7 81.3 70.2 82.1 68.5 82.8C66.3 83.7 64.1 84.3 61.9 84.7C60.9 84.9 59.9 85.1 58.8 85.2C58.2 85.3 57.6 85.3 57 85.3C56 85.3 54.9 85.2 53.9 85.2C53.6 85.2 53.3 85.3 53 85.2C52.1 85.1 51.3 85 50.5 84.9C49.9 84.8 49.4 84.8 48.8 84.7C47.2 84.6 45.7 84.2 44.1 83.8C42.6 83.4 41.2 82.9 39.8 82.4C38.3 81.9 36.9 81.3 35.5 80.7C34 80 32.5 79.3 31 78.5C29.2 77.5 27.4 76.4 25.6 75.3C22.3 73.1 19.3 70.5 16.5 67.7C14 65.2 12 62.7 10.1 60C8.89998 58.3 7.69998 56.5 6.59998 54.8C5.99998 53.8 5.39998 52.8 4.89998 51.7C4.09998 50.2 3.39998 48.7 2.69998 47.1C1.99998 45.5 1.39998 43.9 0.999976 42.2C0.699976 41.2 0.499976 40.2 0.399976 39.1C0.299976 38.3 0.299976 37.6 0.199976 36.8C0.199976 36.3 0.0999756 35.8 0.0999756 35.3C0.0999756 34.7 0.0999756 34.1 0.0999756 33.5C0.199976 32.5 0.199976 31.4 0.399976 30.4C0.499976 29.7 0.599976 29 0.799976 28.3C1.29998 26 2.09998 23.8 2.79998 21.6C3.09998 20.6 3.59998 19.7 3.99998 18.7C4.79998 16.9 5.79998 15.2 6.79998 13.4C7.49998 12.2 8.29998 11 9.19998 9.90001C9.59998 9.40001 10.1 9.00001 10.5 8.50001C11.1 7.90001 11.6 7.20001 12.2 6.70001C12.7 6.30001 13.2 5.90001 13.7 5.60001C14.4 5.10001 15.2 4.60001 15.9 4.10001C17.3 3.10001 18.7 2.40001 20.3 2.00001C21.6 1.60001 22.9 1.40001 24.3 1.20001C24.5 1.20001 24.8 1.30001 25.1 1.20001C25.5 1.20001 26 1.10001 26.4 1.00001C27.4 0.800008 28.3 0.900008 29.3 1.10001C31 1.60001 32.7 2.00001 34.4 2.70001C35.9 3.30001 37.2 4.00001 38.4 5.00001C38.8 5.40001 39.3 5.70001 39.7 6.00001C39.9 6.20001 40.2 6.30001 40.4 6.60001C41.6 7.80001 42.6 9.00001 43.4 10.5C44.2 11.9 44.9 13.3 45.5 14.8C45.8 15.4 45.9 16 46 16.6C46.2 17.9 46.5 19.3 46.5 20.7C46.5 22.1 46.4 23.6 46.4 25C46.4 26 46.3 27 46.4 28C46.4 28.9 46.6 29.9 46.6 30.8C46.6 32 46.9 33.2 47.3 34.4C47.6 35.3 48 36.2 48.3 37.1C48.8 38.2 49.3 39.4 49.9 40.4C50.5 41.6 51.2 42.7 51.9 43.9C52.7 45.3 53.6 46.7 54.6 47.9C55.4 48.5 56.1 49 56.8 49.6ZM55.1 51.7C55.2 51.6 55.4 51.5 55.6 51.4C55.9 51.1 56.1 50.7 56.4 50.4C55.7 50 55.1 49.4 54.6 48.8C53.1 47 51.7 45.1 50.6 43C49.5 41.1 48.4 39.1 47.6 37C46.8 35.2 46.3 33.4 46.2 31.5C46.1 30.4 46 29.3 46 28.3C45.9 25.9 45.7 23.4 45.7 21C45.7 19.5 45.5 18 45.1 16.5C44.3 13.6 43.1 10.8 41.4 8.20001C41.1 7.70001 40.7 7.20001 40.2 6.80001C39.2 6.00001 38.1 5.30001 37.1 4.60001C36 3.90001 34.9 3.50001 33.6 3.10001C31.7 2.50001 29.7 2.00001 27.7 1.70001C26.3 1.50001 24.9 1.40001 23.5 1.90001C22.6 2.20001 21.6 2.50001 20.7 2.80001C19.2 3.30001 17.9 4.10001 16.6 5.00001C15.7 5.60001 14.8 6.20001 13.9 6.90001C13.5 7.20001 13.1 7.50001 12.7 7.90001C12.3 8.30001 12 8.70001 11.7 9.10001C11.4 9.50001 11.1 9.90001 10.8 10.2C10.4 10.7 9.89998 11.2 9.49998 11.8C8.69998 12.9 7.89998 14 7.29998 15.2C6.59998 16.4 5.99998 17.6 5.29998 18.9C4.79998 19.9 4.29998 20.8 3.99998 21.8C3.29998 23.8 2.69998 25.8 2.09998 27.8C1.69998 29 1.49998 30.2 1.39998 31.4C0.999976 33.2 1.09998 35.1 1.29998 37C1.39998 37.9 1.49998 38.8 1.69998 39.8C2.09998 42.2 2.69998 44.4 3.79998 46.6C3.99998 47 4.19998 47.4 4.39998 47.8C4.79998 48.9 5.39998 49.9 5.89998 51C6.29998 51.6 6.59998 52.2 6.89998 52.9C7.39998 53.7 7.79998 54.6 8.29998 55.3C9.39998 57 10.6 58.6 11.8 60.2C12.6 61.3 13.5 62.4 14.4 63.4C15.2 64.3 15.9 65.2 16.8 66C18.6 67.7 20.4 69.3 22.2 70.9C23 71.6 23.9 72.2 24.7 72.9C26.4 74.3 28.2 75.5 30.2 76.6C30.4 76.7 30.7 76.8 30.9 77C31.6 77.4 32.3 77.8 33 78.2C34.5 78.9 36 79.6 37.5 80.3C38.6 80.8 39.8 81.2 40.9 81.6C42.1 82 43.4 82.3 44.6 82.7C45.3 82.9 46.1 83.1 46.8 83.2C47.7 83.4 48.6 83.5 49.5 83.6C50.4 83.7 51.3 83.9 52.2 84C53.5 84.1 54.9 84.2 56.2 84.2C56.7 84.2 57.2 84.2 57.8 84.2C58.5 84.1 59.2 84 59.9 83.9C61.3 83.6 62.6 83.4 64 83.1C65.8 82.7 67.4 82 69.1 81.3C69.8 81 70.5 80.6 71.2 80.3C72.2 79.8 73.2 79.2 74.1 78.6C74.6 78.3 75.1 77.9 75.6 77.6C76.2 77.2 76.8 76.7 77.2 76.1C77.9 75.2 78.6 74.3 79.2 73.3C79.4 73 79.5 72.7 79.7 72.5C80.4 71.5 80.9 70.4 81.4 69.3C81.8 68.2 82.1 67.2 82.4 66C82.7 64.8 82.8 63.5 82.7 62.3C82.7 62 82.7 61.7 82.7 61.4C82.8 60.2 82.7 59 82.4 57.8C82.1 56.7 81.9 55.6 81.5 54.6C81 53.5 80.3 52.5 79.6 51.6C79.2 51.1 78.7 50.6 78.3 50.2C76.7 48.8 74.7 48.2 72.7 47.6C71.3 47.2 69.8 47.2 68.4 47.4C67.4 47.5 66.4 47.7 65.4 47.8C63.9 48 62.4 48.3 60.9 48.9C60.3 49.2 59.6 49.4 59.1 49.8C57.9 50.6 57.1 51.8 56 52.8C56.7 52.6 57.4 52.5 58.1 52.3C59.6 51.9 61 51.7 62.6 51.7C63.3 51.7 64 51.7 64.6 52.1C64.7 52.2 64.9 52.2 65 52.2C65.6 52.2 66.2 52.3 66.7 52.6C67 52.7 67.3 52.9 67.6 53C68.6 53.4 69 54.1 69.3 55.1C69.3 55.2 69.3 55.3 69.3 55.5C69 55.2 68.9 54.9 68.8 54.6C68.6 54.1 68.2 53.8 67.8 53.6C67.5 53.5 67.3 53.4 67 53.3C66 52.8 64.9 52.5 63.7 52.4C62.3 52.3 61 52.3 59.7 52.6C58.6 52.8 57.5 53.1 56.3 53.2C56 53.2 55.7 53.2 55.4 53.4C54.8 53.6 54.2 53.7 53.6 53.7C52.6 53.7 51.6 53.5 50.6 53.3C49.3 53.1 48.1 52.5 46.9 51.7C46.5 51.4 46.2 51.2 45.9 50.7C47.8 51.9 49.9 52.6 52.2 52.7C49.9 52.3 47.6 51.7 45.8 50.1C45.9 50.1 46 50.1 46 50.1C46.1 50.2 46.2 50.2 46.4 50.3C48.7 51.6 51.2 52.3 53.8 52.4C54 52.4 54.2 52.4 54.4 52.3C53.4 52.3 52.4 52.1 51.5 51.9C49.9 51.5 48.5 51 47.2 50C47 49.9 46.9 49.7 46.7 49.6C46.7 49.6 46.7 49.6 46.8 49.5C47.2 49.7 47.7 49.9 48.1 50.1C49.9 51 51.8 51.5 53.8 51.8C54.1 51.8 54.5 51.8 54.8 52C54.8 52 54.9 52 55 52C54.7 51.8 54.9 51.8 55.1 51.7Z" fill="#6F7FB5"/>
<path d="M55.1 51.7C52.9 51.7 50.8 51.1 48.8 50.1C48.5 50 48.2 49.8 48 49.6C47.9 49.5 47.8 49.4 47.8 49.2C48 49.3 48.1 49.3 48.3 49.4C50.3 50.4 52.3 51 54.5 51.4C54.7 51.4 55 51.4 55.1 51.7Z" fill="#6F7FB5"/>
<path d="M19.9 60.2C19.9 60.1 19.8 60 19.8 59.9C18.9 58.8 18 57.6 17.3 56.4C16.7 55.5 16.1 54.7 15.4 53.8C14.2 52.1 13.1 50.3 12.2 48.3C12.2 48.2 12.2 48.2 12.2 48.1C12.3 48.3 12.4 48.4 12.5 48.6C14 51.4 15.8 53.9 17.8 56.4C20.3 59.5 23.2 62.3 26.3 64.8C28.7 66.7 31.2 68.4 33.9 69.9C37.3 71.8 40.9 73.4 44.7 74.5C47 75.2 49.4 75.7 51.9 75.9C54.2 76.1 56.5 76.2 58.7 75.8C60.3 75.6 61.8 75.3 63.3 74.8C64.8 74.3 66.3 73.6 67.6 72.8C68.9 72 70 71.1 71.1 70.1C71.7 69.5 72.3 68.9 72.9 68.3C72.9 68.3 73 68.2 73.1 68.2C73.1 68.2 73.2 68.2 73.2 68.3C73.1 68.5 73 68.7 72.9 68.9C72.4 69.5 71.9 70.1 71.3 70.6C70.1 71.8 68.8 72.7 67.4 73.6L67.3 73.7C67.6 73.6 67.9 73.4 68.2 73.3C68.5 73.2 68.8 73 69.1 72.9C70.5 72.4 71.5 71.4 72.4 70.4C72.6 70.2 72.8 70 73 69.8C72.8 70.3 72.5 70.7 72.1 71.1C71.7 71.5 71.3 71.9 70.9 72.3C70.5 72.7 70 73 69.6 73.4C69.7 73.4 69.8 73.4 69.9 73.3C70.6 73 71.3 72.6 71.9 72.3C72.2 72.1 72.4 71.9 72.7 71.7C73.8 70.6 74.7 69.3 75.6 68C75.8 67.7 76 67.3 76.2 67C76.2 66.9 76.3 66.9 76.4 66.8C76.6 66.9 76.5 67.1 76.5 67.2C76.1 67.9 75.7 68.6 75.3 69.2C74.7 70.2 73.9 71.1 73.1 71.9C73 72 72.9 72.1 72.9 72.2C72.9 72.2 72.9 72.3 72.8 72.4C73.4 72.2 73.9 71.9 74.2 71.5C74.8 70.7 75.3 70 75.9 69.2C76 69.1 76 69 76.2 68.9C76.1 69.4 76 69.8 75.8 70.1C75.5 70.5 75.2 70.9 74.9 71.3C73.9 72.5 72.9 73.6 71.7 74.6C72 74.4 72.4 74.3 72.7 74.1C72.7 74.1 72.7 74.2 72.8 74.2C72.6 74.3 72.5 74.5 72.3 74.6C71.3 75.2 70.3 75.7 69.3 76.3C68.1 77 66.8 77.6 65.5 78.1C63 79 60.4 79.6 57.7 79.7C56.9 79.7 56 79.7 55.2 79.8C55 79.8 54.9 79.8 54.8 79.8C53.8 80.1 52.8 80 51.8 79.9C50.9 79.8 50.1 79.7 49.2 79.5C48.4 79.3 47.7 79.1 46.9 78.9C46.8 78.9 46.8 78.8 46.6 78.8C46.7 78.8 46.8 78.7 46.9 78.7C37.1 76.3 28.8 71.4 21.3 64.8C21.4 64.9 21.5 65.1 21.6 65.2C22.6 66.5 23.9 67.6 25.2 68.6C28.1 70.9 31.1 72.8 34.3 74.5C36.2 75.5 38.2 76.4 40.2 77.2C40.4 77.3 40.5 77.5 40.7 77.2C40.7 77.2 40.8 77.2 40.9 77.2C41.7 77.5 42.5 77.8 43.3 78C43.4 78 43.4 78.1 43.6 78.1C43.4 78.1 43.3 78.1 43.2 78.2C43.2 78.2 43.2 78.2 43.2 78.3C44.4 78.6 45.6 79 46.8 79.3C49.5 79.9 52.2 80.4 54.9 80.4C56.1 80.4 57.4 80.3 58.6 80.2C60.8 79.9 63.1 79.5 65.2 78.8C66.8 78.3 68.4 77.6 69.9 76.7C71.2 76 72.3 75.1 73.3 74C73.8 73.5 74.3 73 74.7 72.5C74.7 72.4 74.8 72.4 74.9 72.4C74.4 73.7 73.2 74.5 72.2 75.5C72.5 75.4 72.8 75.3 73 75.2C73 75.2 73 75.2 73 75.3C72.9 75.4 72.7 75.6 72.6 75.7C71.9 76.1 71.2 76.5 70.5 76.9C69.1 77.7 67.7 78.4 66.2 79C66.1 79 66 79.1 65.9 79.2C66 79.2 66.2 79.2 66.3 79.1C67.7 78.5 69.1 78 70.5 77.4C71 77.2 71.4 76.9 71.8 76.6C71.9 76.5 72 76.4 72.2 76.5C72.2 76.5 72.4 76.5 72.5 76.4C72.9 76.2 73.3 76 73.7 75.9C73.8 75.8 74 75.8 74.1 75.7C73.5 76.7 72.6 77.4 71.8 78.2C72.2 78 72.6 77.9 73 77.7C73 77.8 73 77.8 73 77.8C72.4 78.2 71.9 78.7 71.4 79.1C70.8 79.6 70.2 80 69.6 80.3C65.7 82.3 61.4 83.2 57 83.3C55.1 83.3 53.3 83.2 51.5 83C47.9 82.5 44.3 81.6 40.9 80.4C38.8 79.6 36.7 78.7 34.6 77.7C32.7 76.7 30.9 75.7 29.1 74.6C26.8 73.1 24.5 71.5 22.4 69.8C19.9 67.8 17.6 65.6 15.4 63.3C13.1 60.8 11 58.1 9.09998 55.2C7.49998 52.8 6.19998 50.3 4.99998 47.7C4.09998 45.6 3.29998 43.4 2.69998 41.1C2.19998 39.2 1.89998 37.3 1.69998 35.4C1.59998 34.8 1.69998 34.2 1.69998 33.6C1.69998 33.1 1.79998 32.5 1.89998 32C2.09998 30.8 2.29998 29.6 2.59998 28.4C3.09998 26.1 3.99998 24 4.89998 21.8C5.39998 20.8 6.09997 19.9 6.69998 19L6.79998 18.9C6.99998 18.5 6.99998 18.5 7.09998 18.9C7.29998 18.7 7.39998 18.6 7.49998 18.4C8.89998 16.9 10.5 15.6 12.3 14.6C12.5 14.5 12.7 14.4 12.9 14.3C13 14.3 13.1 14.3 13.2 14.3C11.4 15.3 9.89998 16.5 8.49998 18C7.09998 19.4 5.79998 21 5.09998 22.8L5.19998 22.9C5.29998 22.8 5.29998 22.7 5.39998 22.6C6.59998 20.9 7.89997 19.2 9.39997 17.7C9.99997 17.1 10.6 16.6 11.3 16.2C11.4 16.1 11.6 16.1 11.8 16C11.9 16 11.9 16 12.1 16.1C11.8 16.3 11.6 16.4 11.4 16.5C10.9 16.9 10.4 17.3 9.89997 17.8C7.99997 19.8 6.19998 22 4.89998 24.4C4.29998 25.4 3.89998 26.5 3.39998 27.6C2.99998 28 2.99998 28.4 2.99998 28.9C2.99998 28.9 2.99998 28.8 3.09998 28.8C3.99998 26.3 5.29998 24 6.89998 22C7.49998 21.2 8.29998 20.5 9.09998 19.9C9.29998 19.8 9.39998 19.7 9.59998 19.6C9.39998 19.8 9.19998 20 8.99998 20.2C7.59998 21.6 6.39998 23.1 5.39998 24.8C4.79998 25.8 4.29998 26.7 3.79998 27.7C3.59998 28.2 3.39998 28.8 3.19998 29.4C3.19998 29.5 3.19998 29.6 3.19998 29.8C3.59998 29.4 3.59998 28.7 3.99998 28.3C3.79998 29.3 3.49998 30.3 3.49998 31.3C3.79998 29.3 4.59998 27.4 5.59998 25.7C6.89998 23.4 8.69998 21.3 9.49998 21.2C9.49998 21.3 9.49997 21.4 9.39997 21.4C8.99997 21.8 8.59998 22.2 8.19998 22.6C6.89998 24.1 5.89998 25.8 4.99998 27.6C4.79998 27.9 4.89998 28.3 4.79998 28.6C4.69998 28.9 4.59998 29.3 4.49998 29.6C4.39998 29.9 4.39998 30.1 4.39998 30.4C5.09998 28.7 5.79998 26.9 6.99998 25.5C7.09998 25.4 7.19998 25.3 7.29998 25.2C7.29998 25.2 7.39998 25.2 7.49998 25.1C7.39998 25.2 7.39998 25.3 7.39998 25.4C6.19998 27.1 5.39998 29 4.69998 30.9C4.59998 31.3 4.39998 31.7 4.19998 32.1C4.09998 32.3 4.09998 32.5 4.09998 32.7C4.09998 33.3 3.99998 34 4.09998 34.6C4.09998 34.3 4.19998 34 4.19998 33.8C4.49998 32.5 4.99998 31.3 5.49998 30.1C5.79998 29.5 6.19998 28.9 6.49998 28.4C6.49998 28.3 6.59998 28.3 6.59998 28.2L6.69998 28.3C6.59998 28.4 6.59998 28.6 6.49998 28.7C5.89998 29.8 5.39998 30.9 4.99998 32C4.99998 32.6 4.99998 33.4 4.89998 34.2C4.89998 35.4 4.89998 36.5 4.89998 37.7C4.89998 38.1 4.99998 38.5 5.09998 38.9C5.29998 39.6 5.39998 40.3 5.59998 41C5.59998 41.1 5.69998 41.1 5.69998 41.2L5.79998 41.1C5.79998 41.1 5.79998 41.1 5.79998 41.2C6.59998 44.4 7.89997 47.5 9.39997 50.4C10.6 52.7 12 54.9 13.6 56.9C15.7 59.6 17.9 62.1 20.4 64.5C20.5 64.6 20.5 64.6 20.6 64.7C20.2 64.1 20 63.5 19.5 63C19.3 62.8 19 62.5 18.8 62.3C18.6 62.1 18.4 62 18.2 61.8C17.2 60.6 16.2 59.5 15.3 58.3C13.2 55.7 11.3 52.9 9.69998 49.9C8.89998 48.3 8.09998 46.7 7.49998 45C7.49998 44.9 7.49998 44.9 7.49998 44.8C7.59998 44.9 7.69998 45.1 7.69998 45.2C8.69998 47.6 9.89998 49.9 11.2 52.1C11.9 53.3 12.7 54.4 13.5 55.6C13.5 55.6 13.6 55.6 13.6 55.5C13.4 55.1 13.1 54.7 12.9 54.3C11.8 52.2 10.6 50.2 9.59998 48.1C7.99998 44.6 6.79998 41 6.19998 37.2C5.99998 36.2 5.99998 35.1 6.09998 34C6.09998 33.7 6.19998 33.3 6.29998 33H6.39998C6.39998 33.4 6.39998 33.9 6.39998 34.3C6.39998 36.3 6.59997 38.3 7.19998 40.2C7.39998 40.9 7.49998 41.7 7.69998 42.4C8.29998 44.4 9.09998 46.3 9.99998 48.1C11.6 51.1 13.2 54 15.4 56.6C15.6 56.9 15.9 57.2 16.1 57.5C16.1 57.5 16.2 57.6 16.3 57.6C16.1 57.3 15.9 57 15.8 56.8C15 55.6 14.2 54.3 13.6 53C13.1 52.1 12.5 51.2 12 50.3C11.2 48.9 10.5 47.4 9.89997 45.8C9.79997 45.6 9.69998 45.3 9.69998 45C9.79998 45.2 9.89997 45.3 9.89997 45.5C10.7 47 11.4 48.5 12.2 50C14 53.3 16.2 56.2 18.7 59C19.1 59.4 19.5 59.8 19.9 60.2C20 60.3 20 60.3 20.1 60.4C20.8 61.1 21.5 61.9 22.3 62.6C24.7 64.8 27.2 66.8 30 68.7C32 70 34.1 71.2 36.2 72.3C38.9 73.6 41.6 74.7 44.5 75.6C47.2 76.4 50 76.9 52.8 77.2C54.3 77.3 55.7 77.3 57.2 77.2C58.6 77.1 60 76.9 61.4 76.6C61.1 76.6 60.7 76.6 60.4 76.6C60.1 76.6 59.8 76.6 59.5 76.6C62.7 76.2 65.7 75.4 68.4 73.7C68 73.8 67.6 74 67.3 74.2C65.6 74.9 63.9 75.6 62.1 76C60.7 76.3 59.3 76.4 58 76.6C55.3 76.9 52.7 76.7 50 76.3C49.4 76.1 49 76 48.7 76C48.4 76 48 76 47.7 75.9C46.9 75.7 46.2 75.5 45.4 75.2C44.7 75 43.9 74.8 43.2 74.5C38 72.8 33.2 70.3 28.8 67.2C25.9 65.1 23.2 62.9 20.7 60.3C20.5 60.1 20.2 59.8 20 59.6C20 59.8 20.1 59.9 20.1 60C20.2 60.1 20.2 60.2 20.3 60.4C20.1 60.3 20 60.3 19.9 60.2ZM19.7 66.8C19.9 67 20 67.1 20.2 67.3C20.5 67.8 20.9 68.1 21.4 68.4C21.5 68.5 21.5 68.6 21.6 68.6C22.1 69 22.7 69.5 23.2 69.9C23.3 70 23.5 70.1 23.7 70.2C24 70.6 24.4 70.8 24.7 71L24.8 70.9C24.4 70.7 24.1 70.4 23.7 70.2C23.6 70.1 23.6 70 23.5 70C23 69.6 22.6 69.2 22.1 68.9C21.9 68.7 21.7 68.6 21.5 68.4C21.1 68 20.7 67.7 20.3 67.3C20.1 67.1 19.9 66.9 19.7 66.8C19.4 66.4 19.1 66.1 18.7 65.9C18.7 65.8 18.6 65.7 18.6 65.7C17.7 64.8 16.8 63.8 15.9 62.9C15.9 62.9 15.8 62.8 15.7 62.8C15.7 62.8 15.7 62.8 15.6 62.9C16.4 63.7 17.3 64.6 18.1 65.4C18.3 65.6 18.5 65.7 18.7 65.9C19 66.2 19.3 66.5 19.7 66.8ZM13.4 60.1V60C12.9 59.3 12.3 58.7 11.8 58H11.7C11.5 57.8 11.4 57.5 11.2 57.3C9.99997 55.5 8.89998 53.8 7.79998 52C7.69998 51.9 7.59998 51.7 7.49998 51.6C7.39998 51.3 7.29998 51.1 7.19998 50.8C6.99998 50.4 6.69998 50 6.49998 49.5C6.49998 49.4 6.49998 49.3 6.39998 49.2C5.89998 48.1 5.39998 46.9 4.89998 45.8C4.29998 44.4 3.79998 42.9 3.49998 41.4C3.19998 40 2.89998 38.5 2.59998 37.1C2.39998 36 2.29998 34.9 2.39998 33.7C2.49998 32.5 2.59998 31.4 2.79998 30.2C2.69998 30.3 2.59998 30.5 2.59998 30.6C2.29998 32.1 2.19998 33.5 2.19998 35C2.19998 35.3 2.19998 35.6 2.29998 35.9C2.59998 38.3 3.19998 40.7 3.89998 43C4.49998 45 5.29998 47 6.19998 48.9C6.29998 49.1 6.39998 49.3 6.49998 49.5C6.49998 49.6 6.59998 49.8 6.59998 49.9C6.79998 50.3 6.99998 50.7 7.19998 51.1C7.29998 51.3 7.39998 51.4 7.49998 51.5C7.89998 52.2 8.19998 52.8 8.59998 53.5C9.39998 54.7 10.1 55.9 10.9 57C11.1 57.3 11.4 57.6 11.7 58C11.8 58.2 12 58.5 12.1 58.7C12.5 59.1 13 59.6 13.4 60.1C13.4 60.2 13.5 60.3 13.5 60.3C14 60.9 14.5 61.5 15 62.1C15 62.1 15.1 62.2 15.2 62.2C15.2 62.1 15.2 62.1 15.2 62C14.7 61.4 14.1 60.8 13.6 60.2C13.5 60.2 13.4 60.2 13.4 60.1ZM29.7 74.2C29.6 74.1 29.5 74 29.4 73.9C29.4 73.9 29.4 74 29.3 74C29.4 74.1 29.5 74.2 29.7 74.2C29.8 74.3 29.9 74.4 30 74.5C31.5 75.5 33.1 76.4 34.8 77.2C38.5 79 42.3 80.5 46.4 81.5C49.6 82.3 52.8 82.7 56.1 82.7C56.8 82.7 57.6 82.6 58.3 82.6C58.1 82.5 58 82.5 57.9 82.5C57.3 82.5 56.8 82.6 56.2 82.6C54.2 82.6 52.3 82.4 50.3 82.1C48.5 81.8 46.7 81.4 44.9 80.9C41.2 79.8 37.5 78.5 34.1 76.7C32.7 76 31.4 75.2 30 74.5C29.9 74.3 29.8 74.3 29.7 74.2ZM27.2 68.9C27.3 69.1 27.5 69.2 27.6 69.3C27.6 69.3 27.6 69.3 27.7 69.2C27.5 69.1 27.4 69 27.2 68.9C27.1 68.8 27 68.7 26.9 68.6C26.7 68.4 26.4 68.2 26.3 68C26.2 67.7 25.9 67.5 25.7 67.4C25.1 66.9 24.4 66.4 23.8 65.8C21 63.5 18.5 60.9 16.2 58.1C15.9 57.7 15.5 57.3 15.2 56.9C15.9 58 16.5 59.2 17.4 60.1C18.3 61.1 19.3 62.1 20.3 63.1C22.3 65.1 24.6 67 26.9 68.7C27 68.8 27.1 68.8 27.2 68.9ZM17.6 62.3C17.6 62.4 17.6 62.4 17.6 62.4C19.8 65.1 22.3 67.6 25.2 69.7C28.8 72.4 32.5 74.7 36.5 76.5C37.5 77 38.5 77.5 39.6 77.7C40.5 77.9 41.4 78.3 42.3 78.6C42.4 78.6 42.6 78.7 42.6 78.8C42.7 79 42.9 79 43 79C46 80 49.2 80.6 52.3 81C53.8 81.2 55.3 81.2 56.8 81C58.1 80.8 59.5 80.6 60.8 80.3C61.7 80.1 62.5 79.9 63.3 79.7C63.1 79.7 63 79.7 62.9 79.7C60.7 80.2 58.5 80.5 56.2 80.5C54.7 80.5 53.3 80.4 51.8 80.3C50.3 80.2 48.9 80.1 47.4 79.7C46.3 79.4 45.3 79.1 44.3 78.8C42.1 78.1 39.9 77.3 37.7 76.4C37.6 76.4 37.6 76.3 37.5 76.3C37.1 76.4 36.8 76.2 36.5 76C33.7 74.6 31.1 73.1 28.5 71.4C25.1 69.1 22.1 66.5 19.2 63.7C18.6 63.3 18.1 62.8 17.6 62.3ZM67.7 75.4C67.7 75.4 67.7 75.3 67.6 75.3C67.4 75.4 67.3 75.4 67.1 75.5C64.8 76.5 62.5 77.3 60.1 77.7C58.9 77.9 57.7 78 56.5 77.6C56.4 77.6 56.2 77.6 56.1 77.6C55.4 77.6 54.7 77.6 54 77.6C51.9 77.5 49.8 77.2 47.7 76.8C44.1 76.1 40.7 74.8 37.4 73.3C35.3 72.3 33.3 71.2 31.3 70C31.2 69.9 31.1 69.9 31 69.8V69.9C31.4 70.2 31.9 70.5 32.3 70.8C33.5 71.5 34.7 72.2 35.9 72.9C36 73 36.1 73.1 36.3 73.2C36.3 73.2 36.3 73.2 36.3 73.3C36.2 73.3 36.1 73.2 35.9 73.2C35.9 73.2 35.9 73.2 35.9 73.3C36.7 73.7 37.5 74 38.3 74.4C38.3 74.4 38.3 74.4 38.3 74.3L37.9 73.9C37.9 73.9 37.9 73.9 37.9 73.8C38.1 73.9 38.2 73.9 38.4 74C39.6 74.7 40.8 75.2 42 75.6C42.9 75.9 43.7 76.1 44.6 76.4C45.6 76.7 46.6 76.8 47.4 77.4H47.5C49.2 77.8 51 78.1 52.8 78.2C53.6 78.3 54.4 78.2 55.3 78.2C55.9 78.2 56.4 78.3 57 78.3C57.7 78.3 58.3 78.2 59 78.1C61.5 77.8 64 77.2 66.3 76.1C66.7 75.9 67.2 75.7 67.7 75.4ZM16.6 61.9C16.6 61.8 16.6 61.7 16.5 61.6C14.9 59.4 13.3 57.3 11.8 55.1C10.1 52.7 8.69998 50.1 7.49998 47.4C6.79998 45.8 6.19998 44.2 5.69998 42.6C5.19998 40.9 4.79998 39.2 4.49998 37.5C4.49998 37.3 4.39998 37.1 4.29998 36.8H4.19998C4.19998 37.2 4.19998 37.5 4.09998 37.9C4.09998 38.1 3.99998 38.3 4.09998 38.5C4.89998 42.5 6.19998 46.2 8.09998 49.8C8.99998 51.5 9.99998 53.2 11 54.8C12.1 56.5 13.3 58.1 14.6 59.6C15.2 60.3 15.9 61.1 16.6 61.9ZM16.3 56.8C16.3 56.9 16.3 57 16.4 57.1C17.1 58.2 17.8 59.2 18.5 60.3C18.6 60.4 18.7 60.5 18.7 60.6C20.4 62.4 22.2 64.2 24.2 65.8C26.6 67.8 29.2 69.6 31.9 71.3C32 71.4 32.2 71.5 32.4 71.6C32.3 71.4 32.2 71.4 32.1 71.3C31.6 70.9 31.1 70.5 30.7 70C30.5 69.8 30.3 69.5 30 69.3C28.1 68 26.3 66.7 24.5 65.2C21.8 62.9 19.3 60.4 17 57.7C16.8 57.3 16.6 57 16.3 56.8ZM56.6 79.1C56.5 79.1 56.4 79.1 56.3 79.1C56.2 79.1 56.1 79.1 56 79V78.9C57.2 78.9 58.4 78.7 59.6 78.4C59.5 78.4 59.3 78.4 59.2 78.4C58.7 78.5 58.2 78.5 57.7 78.5C56.6 78.6 55.6 78.6 54.5 78.6C53.4 78.6 52.2 78.6 51.1 78.6C50.4 78.6 49.7 78.4 49.1 78.3C49 78.3 48.8 78.2 48.7 78.2C48.7 77.9 48.4 77.9 48.2 77.9C43.8 77 39.6 75.5 35.6 73.5C32.8 72.1 30.1 70.5 27.6 68.7C27.5 68.6 27.4 68.6 27.3 68.5C27.4 68.7 27.5 68.8 27.6 68.8C29 69.7 30.4 70.7 31.8 71.6C33.7 72.8 35.5 74 37.5 74.9C41.9 76.9 46.5 78.3 51.4 78.9C53.2 79.1 54.9 79.2 56.6 79.1ZM27.2 71.9C22.6 68.4 18.3 64.5 14.5 60.1C18 64.7 22.3 68.7 27.2 71.9ZM72.9 72.5C72.8 72.5 72.7 72.5 72.7 72.6C71.9 73.1 71.2 73.6 70.4 74.1C68.9 75.2 67.3 76.1 65.6 76.8C64.9 77.1 64.2 77.3 63.5 77.6C67.1 76.9 70.3 75.3 72.9 72.5ZM3.19998 36.8C3.19998 37.1 3.09998 37.4 3.09998 37.6C3.09998 37.8 3.19998 38.1 3.19998 38.3C3.99998 42 5.19998 45.6 6.89998 49C6.99998 49.1 6.99998 49.2 7.09998 49.4H7.19998C5.19998 45.4 3.99998 41.2 3.19998 36.8ZM36.9 77.5C37.9 77.8 38.7 78.5 39.8 78.5C39.9 78.5 39.9 78.5 40 78.6C40.5 78.8 40.9 78.9 41.4 79.1C41.7 79.2 41.9 79.3 42.2 79.4L42 79.5C42.4 79.6 42.8 79.8 43.1 79.9C43.2 79.9 43.4 80 43.4 79.9C43.6 79.7 43.8 79.9 44 79.9C44.3 80 44.7 80 45 80.1C42.2 79.3 39.5 78.3 36.9 77.1C37 77.3 37 77.3 36.9 77.5ZM60 81.7C62.1 81.7 68.5 79.7 69.5 78.7C68 79.3 66.5 79.9 64.9 80.4C63.3 80.9 61.6 81.3 60 81.7ZM64.6 76C64.7 76 64.8 76 64.9 76C65.2 75.9 65.6 75.7 65.9 75.6C67.6 74.9 69.2 74.2 70.7 73.3C70.9 73.2 71 73.1 71.2 73C71.2 73 71.2 73 71.2 72.9C69 74 66.8 75 64.6 76ZM10.3 54.9C11.2 56.4 12.2 57.9 13.4 59.3C13.2 58.6 13.2 58.6 12.9 58.2C12.4 57.5 11.9 56.8 11.4 56.1C11.3 56 11.2 55.9 11.1 55.8C10.9 55.6 10.7 55.5 10.6 55.3C10.5 55.1 10.4 55 10.3 54.9ZM4.09998 30.2C3.49998 31.2 3.19998 35.7 3.79998 37.3C3.69998 34.9 3.59998 32.5 4.09998 30.2ZM48.3 81.2C49.5 81.5 50.7 81.6 51.9 81.6C53.1 81.7 54.3 81.7 55.5 81.7C53.1 81.5 50.7 81.3 48.3 81.2ZM63.7 81.8C65 81.6 68.1 80.5 68.7 80C67 80.6 65.4 81.2 63.7 81.8ZM70.8 77.5C70.8 77.5 70.8 77.6 70.9 77.6C71.5 77.3 72.1 77.1 72.7 76.7V76.6C72 76.9 71.4 77.2 70.8 77.5ZM60.6 77.2L59.6 77.3C59.6 77.3 59.6 77.3 59.6 77.4L60.6 77.2ZM61.3 78.6C61.6 78.6 61.8 78.6 62.1 78.5C62.1 78.5 62.1 78.5 62.1 78.4L61.3 78.6ZM3.19998 30.9C3.19998 31.1 3.19998 31.2 3.19998 31.4C3.19998 31.3 3.19998 31.1 3.19998 30.9ZM61.8 76.9C61.9 76.9 62.1 76.9 62.2 76.9C62 76.8 61.9 76.8 61.8 76.9Z" fill="#6F7FB5"/>
<path d="M33.5 9.80001C33.6 9.90001 33.7 10 33.8 10.1C34.3 11.2 34.6 12.3 34.3 13.5C34.1 14.2 33.8 14.7 33.1 14.9C33 14.9 33 15 32.9 15C32.7 15.2 32.5 15.4 32.2 15.7C32.2 15.8 32.3 15.9 32.3 16.1C32.7 17.2 32.9 18.2 32.8 19.4C32.8 19.8 32.8 20.2 32.8 20.6C32.8 21.2 32.7 21.9 32.7 22.5C32.7 23.3 32.7 24 32.7 24.8C32.7 28 33.2 31 34.1 34C34.5 35.2 35 36.4 35.6 37.6C36.3 39 37 40.4 37.7 41.8C38.1 42.5 38.5 43.1 39 43.7C39.9 44.8 40.8 45.9 41.7 46.9C42.4 47.7 43.3 48.4 44.1 49.1C44.5 49.4 44.8 49.7 45.2 50C45.2 50 45.2 50.1 45.1 50.1C44.9 50 44.8 50 44.6 49.9C43.2 49.1 42 48.1 40.9 46.9C40 45.9 39 44.8 38.1 43.7C37.4 42.9 37 42 36.5 41.1C35.6 39.3 34.8 37.5 34 35.7C33.4 34.3 33 32.8 32.8 31.2C32.5 29.6 32.3 28 32.1 26.3C31.9 25.1 31.8 23.9 31.7 22.8C31.6 22 31.7 21.3 31.6 20.5C31.5 19.3 31.5 18.2 31.2 17C31 16.4 30.7 15.9 30.5 15.4C30.3 15.4 30.2 15.5 30 15.5C29.7 15.6 29.5 15.4 29.4 15.1C29.4 15 29.3 14.9 29.2 14.7C29.3 14.6 29.5 14.6 29.6 14.5C29.9 14.4 30.1 14.4 30.3 14.2C30.5 14 30.8 14 31 13.9C31.6 13.5 32.2 13 32.8 12.5C32.9 12.4 33 12.3 33.1 12.2C33.7 11.8 33.7 11.2 33.6 10.5C33.6 10.3 33.5 10.2 33.5 10C33.5 9.90001 33.5 9.70001 33.5 9.60001C33.5 9.80001 33.5 9.80001 33.5 9.80001Z" fill="#6F7FB5"/>
<path d="M70 68.3C69.6 68.9 69.1 69.3 68.6 69.7C68.1 70.1 67.5 70.5 67 71C67.5 70.9 67.9 70.7 68.4 70.6C68.3 70.9 68.1 71 68 71.1C67.5 71.3 66.9 71.6 66.4 71.8C64.4 72.4 62.4 73.3 60.3 73.8C58.4 74.2 56.5 74.4 54.6 74.4C49.8 74.4 45.2 73.3 40.8 71.6C37.9 70.5 35.2 69.1 32.6 67.4C30.1 65.8 27.7 64.1 25.5 62.2C22.8 59.9 20.3 57.3 18.2 54.5C16.9 52.8 15.7 51 14.6 49.1C13.5 47.1 12.5 45.1 11.9 42.9C11.8 42.7 11.8 42.5 11.7 42.3C11.7 42.3 11.7 42.2 11.7 42.1C11.9 42.6 12.1 43.1 12.3 43.5C12.9 45 13.6 46.5 14.4 48C15.9 50.8 17.8 53.4 19.8 55.9C22.7 59.3 25.9 62.3 29.5 64.9C33.2 67.6 37.1 69.7 41.4 71.3C44.4 72.4 47.5 73.2 50.7 73.6C53 73.9 55.3 73.9 57.6 73.6C59.9 73.3 62.1 72.7 64.3 71.7C66.1 70.8 67.8 69.7 69.3 68.4C69.5 68.3 69.6 68.1 69.8 68C70 68.3 70 68.3 70 68.3Z" fill="#6F7FB5"/>
<path d="M71.5 68.2C71.7 68.5 71.5 68.6 71.4 68.7C70.6 69.5 69.8 70.2 69 70.9C68.6 71.3 68.1 71.6 67.7 72C68.2 71.8 68.7 71.7 69.2 71.5V71.6C69 71.7 68.8 71.9 68.7 71.9C66.5 73 64.2 74.1 61.7 74.6C59.8 75 57.9 75.4 56 75.4C53.9 75.5 51.8 75.3 49.7 75C44.7 74.2 40.1 72.5 35.7 70.2C31.9 68.2 28.4 65.8 25.2 63C22.4 60.6 19.9 57.9 17.7 55C16.3 53.1 15 51.2 13.9 49.2C13.3 48.2 12.9 47.1 12.3 46.1C12.3 46.1 12.4 46.1 12.4 46C12.6 46.3 12.8 46.7 12.9 47C14.6 50.5 16.8 53.7 19.3 56.6C21.6 59.3 24.2 61.8 27 64.1C28.9 65.6 31 67 33.1 68.3C36.5 70.3 40 72 43.8 73.2C45.9 73.9 48.1 74.4 50.2 74.7C53.5 75.2 56.7 75.2 60 74.6C62.4 74.1 64.8 73.3 66.9 72C68.5 71 69.9 69.9 71.2 68.5C71.2 68.4 71.3 68.3 71.5 68.2Z" fill="#6F7FB5"/>
<path d="M11.5 36.6C11.6 36.8 11.6 36.9 11.7 37.1C12.1 39.4 12.8 41.7 13.7 43.9C14.6 46.2 15.8 48.5 17.2 50.6C19.9 54.9 23.3 58.6 27.2 61.8C29.7 63.9 32.3 65.7 35.2 67.3C38.3 69.1 41.5 70.5 45 71.5C46.9 72.1 48.9 72.5 50.9 72.7C53.1 73 55.4 73 57.6 72.8C60.5 72.5 63.2 71.6 65.7 70.2C66.4 69.8 67.1 69.3 67.8 68.8C67.9 68.7 68 68.7 68.2 68.6C68 69 67.6 69.2 67.3 69.6C67.7 69.5 68.1 69.4 68.4 69.4V69.5C68.2 69.6 68.1 69.7 67.9 69.7C67.4 69.8 67 69.9 66.5 70.1C66.4 70.1 66.3 70.2 66.2 70.2C64.7 71.1 63 71.9 61.3 72.4C59.6 72.9 57.8 73.2 56.1 73.3C52.2 73.5 48.5 73 44.8 71.9C40.8 70.7 37 69 33.4 66.8C30.4 64.9 27.5 62.8 24.9 60.4C22.7 58.4 20.8 56.2 19 53.9C17.5 51.9 16.1 49.8 14.9 47.5C13.5 44.7 12.4 41.8 11.7 38.7C11.6 38.2 11.5 37.6 11.4 37.1C11.4 37 11.4 36.9 11.4 36.8C11.4 36.6 11.4 36.6 11.5 36.6Z" fill="#6F7FB5"/>
<path d="M12.8 38C12.8 38.1 12.9 38.3 13 38.5C13.8 42 15.1 45.3 16.9 48.4C18.8 51.8 21.1 54.8 23.8 57.5C25.2 59 26.7 60.3 28.3 61.6C30.9 63.7 33.6 65.5 36.5 67C39.2 68.4 41.9 69.6 44.8 70.4C47.9 71.3 51 71.9 54.2 71.8C57.6 71.8 60.8 71.2 63.9 69.7C64.4 69.4 64.9 69.1 65.5 68.8C65.6 68.7 65.8 68.6 65.9 68.6C66 68.6 66.1 68.6 66.1 68.6C66.1 68.7 66 68.8 66 68.8C64.8 69.5 63.6 70.2 62.4 70.7C59.8 71.7 57.1 72.1 54.3 72.1C50.4 72.1 46.7 71.4 43 70.1C38.6 68.6 34.5 66.4 30.7 63.7C28.4 62.1 26.3 60.3 24.3 58.3C22.3 56.3 20.5 54.2 18.8 51.8C17.7 50.2 16.7 48.5 15.8 46.8C14.6 44.4 13.6 41.9 13 39.2C12.9 38.8 12.9 38.5 12.8 38.1C12.7 38.1 12.7 38.1 12.8 38Z" fill="#6F7FB5"/>
<path d="M62.9 69C62.2 69.4 61.5 69.6 60.8 69.9C58.1 70.8 55.2 71 52.3 70.9C48.5 70.7 44.9 69.8 41.5 68.4C37.4 66.8 33.7 64.6 30.2 62C28 60.4 26 58.6 24.2 56.6C22.1 54.4 20.3 52.1 18.7 49.6C17.8 48.1 16.9 46.6 16.3 44.9C16.3 44.8 16.2 44.7 16.3 44.6C16.5 44.9 16.6 45.2 16.8 45.5C17.5 46.8 18.2 48.1 19 49.3C20.1 51.1 21.4 52.8 22.8 54.5C25.3 57.4 28 59.9 31.1 62.1C34.5 64.6 38.1 66.6 42 68.1C44.6 69.1 47.3 69.8 50 70.2C53.2 70.7 56.4 70.6 59.6 69.8C60.3 69.6 60.9 69.4 61.5 69.2C62 69 62.5 68.9 63 68.7C62.8 69 62.8 69 62.9 69Z" fill="#6F7FB5"/>
<path d="M55.2 67.7C55 67.7 54.8 67.8 54.6 67.8C53.4 67.8 52.3 67.8 51.1 67.7C49 67.6 47 67.1 45 66.5C42.7 65.8 40.5 64.9 38.4 63.8C36.5 62.8 34.6 61.7 32.9 60.4C30.8 58.9 28.9 57.3 27 55.5C24.7 53.2 22.6 50.7 20.9 47.9C20 46.4 19.2 44.9 18.6 43.3C18.5 43.1 18.5 43 18.4 42.8H18.5C18.6 43 18.7 43.2 18.8 43.3C19.9 45.8 21.3 48.1 22.8 50.3C25.5 54 28.8 57.2 32.5 59.9C35.5 62.1 38.7 63.9 42.2 65.2C45.7 66.5 49.2 67.4 53 67.4C53.6 67.4 54.2 67.4 54.8 67.4C54.9 67.4 55.1 67.4 55.2 67.4C55.2 67.6 55.2 67.7 55.2 67.7Z" fill="#6F7FB5"/>
<path d="M56.2 69C53.4 69.6 50.6 69.3 47.9 68.8C44.7 68.2 41.7 67.1 38.8 65.7C35.2 64 31.8 61.8 28.7 59.2C26 56.9 23.5 54.3 21.4 51.5C20.2 49.9 19.2 48.3 18.3 46.5C18.2 46.3 18.1 46 18 45.8C18.1 46 18.3 46.3 18.4 46.5C20.6 50.5 23.3 54 26.6 57.1C29.1 59.5 31.9 61.6 34.8 63.4C38.3 65.5 42.1 67.2 46.1 68.2C48.2 68.7 50.3 69.1 52.4 69.1C53.5 69.1 54.7 69.1 55.8 69.1C56.1 69 56.1 69 56.2 69Z" fill="#6F7FB5"/>
<path d="M51.7 66.4C47.2 66.2 42.9 64.9 38.9 62.9C35.2 61.1 31.8 58.7 28.8 55.9C26.6 53.9 24.7 51.7 23 49.3C22.2 48.2 21.5 47.1 21 45.9C20.9 45.7 20.8 45.5 20.8 45.3C20.8 45.3 20.9 45.3 20.9 45.2C21 45.4 21.2 45.6 21.3 45.8C22.3 47.5 23.3 49.1 24.5 50.6C26.3 52.9 28.3 55 30.6 56.9C32.7 58.7 34.9 60.2 37.3 61.6C40 63.1 42.8 64.3 45.8 65.2C47.4 65.6 48.9 65.9 50.5 66.1C50.9 66.1 51.3 66.2 51.7 66.3C51.7 66.3 51.7 66.3 51.7 66.4Z" fill="#6F7FB5"/>
<path d="M6.69998 17.9C6.79998 17.7 6.79998 17.5 6.89998 17.3C7.29998 16.4 7.69998 15.5 8.29998 14.7C9.09998 13.6 9.79998 12.6 10.8 11.7C11.3 11.3 11.8 10.9 12.4 10.7C12.7 10.6 13.1 10.6 13.5 10.5C13.3 10.7 13.2 10.8 13.1 11C13.4 10.9 13.6 10.8 13.8 10.8C13.8 10.8 13.8 10.8 13.8 10.9C13.5 11.1 13.1 11.3 12.8 11.5C13.8 11.2 14.7 10.9 15.7 10.9V11C15.5 11.1 15.3 11.1 15.1 11.2C14.2 11.4 13.4 11.6 12.6 12C12 12.3 11.5 12.6 11.1 13.1C12.1 12.6 12.9 12 14 12V12.1C13.9 12.1 13.8 12.2 13.7 12.2C11.6 13.1 9.69998 14.3 8.09998 15.9C7.59998 16.4 7.19998 17 6.89998 17.6C6.99998 17.7 6.79998 17.8 6.79998 18C6.69998 17.9 6.69998 17.9 6.69998 17.9ZM10.3 13.5C10.2 13.5 10.1 13.6 9.99998 13.7C9.99998 13.7 9.99998 13.7 10.1 13.8C10.2 13.7 10.3 13.6 10.3 13.5Z" fill="#6F7FB5"/>
<path d="M23.3 46.9C27.8 53.9 33.9 59 41.4 62.5H41.2C38.6 61.5 36.3 60.1 34 58.5C32.2 57.2 30.4 55.8 28.8 54.2C27.1 52.5 25.5 50.7 24.2 48.7C23.8 48.2 23.5 47.6 23.2 47.1C23.2 46.9 23.2 46.9 23.3 46.9Z" fill="#6F7FB5"/>
<path d="M24.3 10.1C25 10.1 25.6 10.4 26.3 10.6C26.4 10.4 26.5 10.3 26.6 10.1C25.8 9.60001 25 9.10001 24.2 8.70001V8.60001C24.3 8.60001 24.4 8.60001 24.5 8.60001C25.1 8.70001 25.7 9.10001 26.2 9.50001C26.4 9.60001 26.5 9.80001 26.7 9.90001C26.9 9.80001 26.9 9.70001 26.7 9.60001C26.2 9.20001 25.7 8.90001 25.3 8.50001C25.2 8.40001 25 8.30001 24.9 8.10001C25.3 8.10001 25.6 8.30001 25.9 8.50001C26.2 8.70001 26.5 9.00001 26.8 9.20001C26.5 8.70001 26 8.40001 25.6 7.90001C25.7 7.90001 25.8 7.90001 26 8.00001C26 7.90001 25.9 7.80001 25.9 7.60001C26.7 7.90001 27.2 8.50001 27.7 9.10001C28.1 9.00001 28.4 8.90001 28.8 8.80001C29 8.80001 29.2 8.80001 29.4 8.80001C29.6 8.80001 29.8 8.70001 30 8.80001C29.9 8.90001 29.9 9.00001 29.8 9.00001C29.5 9.20001 29.1 9.30001 28.8 9.50001C28.4 9.70001 28.1 9.80001 27.7 10C27.4 10.2 27 10.4 26.9 10.8C26.8 11.1 26.5 11.2 26.3 11.1C25.7 10.9 25.1 10.7 24.4 10.5C24.3 10.2 24.3 10.2 24.3 10.1Z" fill="#6F7FB5"/>
<path d="M34.9 8.70001C35 8.80001 35.1 8.90001 35.2 9.00001C35.8 10 36.1 11 36 12.1C36 12.3 35.9 12.4 35.9 12.6C35.9 12.8 35.7 12.9 35.5 12.8C35.4 13.1 35.3 13.3 35 13.5C34.9 13.6 34.9 13.8 34.8 14C34.7 14.3 34.6 14.5 34.2 14.5C34.3 14.2 34.4 13.9 34.4 13.6C34.6 12.8 34.5 12 34.3 11.2C34.2 10.9 34.2 10.6 34 10.3C33.8 9.90001 33.8 9.60001 34.1 9.20001C34.6 9.50001 35.2 10.8 35.3 12C35.4 11.6 35.4 11.5 35.3 10.9C35.2 10.5 35.1 10.2 35 9.80001C35.1 9.50001 34.9 9.20001 34.9 8.70001Z" fill="#6F7FB5"/>
<path d="M34.9 18.3C35 18.9 35.1 19.5 35.2 20.1C35.3 21.6 35.4 23 35.5 24.5C35.7 26.5 36 28.4 36.3 30.4C36.4 31 36.5 31.6 36.6 32.2H36.5C36.4 32.1 36.4 31.9 36.3 31.8C36.1 31 35.9 30.2 35.7 29.4C35.3 27.4 35.1 25.4 34.9 23.4C34.8 22.1 34.8 20.8 34.7 19.5C34.7 19.1 34.7 18.7 34.6 18.3H34.9Z" fill="#6F7FB5"/>
<path d="M35.2 15.7C35.3 15.9 35.3 16 35.4 16.2C35.9 17.8 36.1 19.5 36.3 21.2C36.5 23 36.6 24.8 36.7 26.6C36.7 27 36.7 27.4 36.6 27.8C36.6 27.7 36.5 27.6 36.5 27.6C36.4 26.4 36.2 25.2 36.2 24.1C36 22 35.7 19.8 35.4 17.7C35.3 17.2 35.2 16.8 35.2 16.3C35.1 16 35.1 15.9 35.2 15.7Z" fill="#6F7FB5"/>
<path d="M44.4 24.2C44.4 24.9 44.5 25.6 44.5 26.4C44.4 29.8 45.1 33.1 46.3 36.2C46.4 36.5 46.5 36.8 46.6 37.1C46.6 37.1 46.6 37.2 46.6 37.3C46.5 37 46.3 36.8 46.2 36.6C45.3 34.7 44.7 32.7 44.4 30.6C44.1 28.8 44.1 27 44.2 25.1C44.2 25 44.2 24.8 44.3 24.7C44.2 24.4 44.3 24.3 44.4 24.2Z" fill="#6F7FB5"/>
<path d="M37.1 26.9C37.1 26.5 37.1 26 37 25.6C36.9 24 36.7 22.5 36.6 20.9C36.4 19.4 36.3 18 36.1 16.5C36.1 16.3 36.1 16.2 36.2 16C36.3 16.2 36.3 16.4 36.4 16.5C36.6 17.9 36.9 19.4 37.1 20.8C37.2 21.8 37.3 22.9 37.4 23.9C37.5 24.6 37.5 25.2 37.5 25.9C37.5 26.2 37.5 26.4 37.4 26.7C37.4 26.8 37.3 26.8 37.2 26.9H37.1Z" fill="#6F7FB5"/>
<path d="M22.9 25.8C22.2 27.8 21.8 29.9 21.7 32C21.6 34.1 21.7 36.2 22 38.3H21.9C21.8 38.1 21.8 38 21.7 37.8C21.3 36.2 21.1 34.6 21.2 32.9C21.3 31.7 21.3 30.4 21.6 29.2C21.8 28.1 22.1 27.1 22.6 26.1C22.7 26.1 22.8 25.9 22.9 25.8Z" fill="#6F7FB5"/>
<path d="M33.4 22.2C33.5 23.3 33.5 24.5 33.6 25.6C33.8 28.4 34.2 31.1 34.9 33.7C35 34 35.1 34.3 35.2 34.6L35.1 34.7C35 34.6 34.9 34.5 34.8 34.4C34.7 34.1 34.6 33.9 34.5 33.6C33.9 31.8 33.6 30 33.4 28.1C33.3 26.7 33.2 25.3 33.2 23.8C33.2 23.3 33.3 22.7 33.4 22.2C33.3 22.2 33.3 22.2 33.4 22.2Z" fill="#6F7FB5"/>
<path d="M8.69998 24.7C8.69998 24.2 8.99998 23.8 9.19998 23.3C8.79998 23.4 8.79997 23.8 8.39997 24C8.59997 23.7 8.69998 23.4 8.79998 23.2C9.59998 21.9 10.5 20.8 11.7 19.8C11.9 19.6 12.1 19.5 12.4 19.3C12.5 19.2 12.7 19.2 12.8 19.2C12.5 19.7 12 20 11.6 20.4C11.2 20.8 10.8 21.2 10.5 21.6C10.7 21.5 10.9 21.3 11.1 21.2C10.3 22.4 9.49998 23.6 8.69998 24.7Z" fill="#6F7FB5"/>
<path d="M35.3 32.9C35.2 32.7 35.1 32.4 35 32.2C34.8 31.1 34.6 30.1 34.4 29C34.1 26.9 34.1 24.8 34.1 22.8C34.1 22.5 34.1 22.3 34.2 22C34.5 23.8 34.4 25.6 34.6 27.5C34.9 29.3 35.1 31.1 35.3 32.9Z" fill="#6F7FB5"/>
<path d="M38.1 25.1C38.1 25 38.1 24.9 38.1 24.8C38.2 23.5 38 22.2 37.8 21C37.5 19.4 37.3 17.7 37 16.1C37 16 37 15.8 37 15.7H37.1C37.2 15.9 37.3 16.1 37.3 16.3C37.5 17.3 37.8 18.4 38 19.4C38.2 20.7 38.4 21.9 38.5 23.2C38.6 23.7 38.5 24.2 38.5 24.8C38.5 25 38.4 25.1 38.4 25.3C38.1 25.1 38.1 25.1 38.1 25.1Z" fill="#6F7FB5"/>
<path d="M36.1 35.8C36.6 37.4 37.1 39.1 38 40.6C38.9 42.1 39.8 43.5 41 44.7C39.2 44.2 35.8 38 36.1 35.8Z" fill="#6F7FB5"/>
<path d="M10.5 36.1C9.49998 34 10.7 27.7 12.3 26.4C11 29.5 10.1 32.6 10.5 36.1Z" fill="#6F7FB5"/>
<path d="M73.7 53.7C73.8 53.7 74 53.7 74.1 53.7C74.9 53.7 75.6 53.9 76.2 54.4C76.3 54.5 76.5 54.7 76.7 54.6C76.7 54.6 76.8 54.6 76.9 54.7C77.5 55.3 78.1 55.8 78.2 56.7C78.2 56.8 78.2 56.8 78.2 56.9C78.2 57 78.1 57.1 78 57.2C78 57.1 77.9 57 77.8 57C77.5 56.3 77 55.8 76.4 55.4C75.6 54.8 74.8 54.3 73.9 54C73.9 53.9 73.8 53.8 73.7 53.7C73.6 53.7 73.6 53.8 73.7 53.7Z" fill="#6F7FB5"/>
<path d="M40.1 13.7C40.1 13.8 40.2 14 40.2 14.1C40.9 16.1 41.3 18.1 41.5 20.2C41.5 20.5 41.5 20.9 41.5 21.2C41.5 21.4 41.4 21.5 41.4 21.7H41.3C41.3 21.6 41.2 21.6 41.3 21.5C41.5 20.8 41.3 20.2 41.2 19.5C40.9 17.8 40.6 16.1 40.1 14.5C39.9 13.9 39.6 13.3 39.4 12.7C39.4 12.6 39.3 12.5 39.3 12.3L39.8 12.8L40.1 13.7Z" fill="#6F7FB5"/>
<path d="M20 31.7C19.9 31.2 19.9 30.8 20 30.3C20.2 28.5 20.8 26.9 21.7 25.3C22 24.8 22.3 24.2 22.5 23.7C22.6 23.6 22.6 23.5 22.7 23.4C22.9 23.7 22.8 23.9 22.7 24.1C22.5 24.6 22.2 25 22 25.5C21.3 26.9 20.7 28.3 20.4 29.8C20.3 30.2 20.3 30.7 20.2 31.1C20.2 31.3 20.1 31.6 20.1 31.8C20.1 31.7 20.1 31.7 20 31.7Z" fill="#6F7FB5"/>
<path d="M40.7 43C39.4 42.2 36.4 37.1 36.8 35.3C36.9 35.5 37 35.6 37 35.7C37.8 38.1 39 40.3 40.4 42.3C40.5 42.5 40.6 42.7 40.7 43Z" fill="#6F7FB5"/>
<path d="M45.6 36.6C45.5 36.4 45.4 36.3 45.3 36.1C44.3 33.9 43.5 31.7 43.2 29.3C43.1 28.6 43.1 27.8 43.3 27.1C43.3 27.2 43.4 27.3 43.4 27.4C43.6 30.4 44.4 33.2 45.5 36C45.6 36.1 45.7 36.4 45.6 36.6C45.7 36.6 45.7 36.6 45.6 36.6Z" fill="#6F7FB5"/>
<path d="M25.3 34.8C25 34.6 25 34.3 25 34C25 33.1 24.9 32.1 25 31.2C25.1 29.6 25.5 28.2 26.2 26.8C26.2 26.7 26.3 26.6 26.3 26.6L26.4 26.5C26 27.9 25.5 29.2 25.4 30.6C25.3 32 25.3 33.4 25.3 34.8Z" fill="#6F7FB5"/>
<path d="M38.9 24.6C38.9 24.1 38.8 23.6 38.8 23.1C38.5 21.4 38.3 19.6 38 17.9C37.9 17.2 37.7 16.6 37.8 15.8C38 16 38 16.2 38 16.3C38.3 17.7 38.6 19.1 38.8 20.5C39 21.6 39 22.6 39.1 23.7C39.1 24.1 39.1 24.4 38.9 24.6Z" fill="#6F7FB5"/>
<path d="M6.49998 30.5C5.69998 33 5.39998 35.6 5.79998 38.3H5.69998C5.69998 38.2 5.59998 38.1 5.59998 38C5.49998 37.8 5.59998 37.6 5.29998 37.5L5.19998 37.3C5.19998 36.1 5.19998 35 5.29998 33.8C5.39998 33 5.69998 32.1 5.99998 31.2C6.09998 30.9 6.29998 30.7 6.39998 30.5H6.49998Z" fill="#6F7FB5"/>
<path d="M33.5 42.6C34.9 45 36.5 47.2 38.6 49.1C38.2 49 38.1 49 37.8 48.7C37.1 48.1 36.5 47.5 35.9 46.8C35.1 45.7 34.3 44.6 33.7 43.4C33.6 43.2 33.5 43 33.5 42.8C33.5 42.7 33.5 42.7 33.5 42.6Z" fill="#6F7FB5"/>
<path d="M41 50.1C40.7 49.9 40.4 49.7 40.1 49.5C39.4 48.8 38.7 48.2 38 47.4C37 46.3 36 45 35.3 43.7C35.1 43.3 34.9 42.9 34.7 42.5C36.6 45.1 38.5 47.8 41 49.9C41 50 41 50.1 41 50.1Z" fill="#6F7FB5"/>
<path d="M73.1 52.5C73 52.4 72.9 52.3 72.8 52.2C72.3 51.4 71.5 50.9 70.7 50.5C69.5 49.9 68.3 49.4 67 49.1C66.9 49.1 66.7 49 66.6 49V48.9C66.8 48.9 67 48.8 67.1 48.9C68 49 68.8 49.2 69.6 49.6C70.8 50.1 71.9 50.7 72.7 51.7C73.1 52 73.1 52.1 73.1 52.5Z" fill="#6F7FB5"/>
<path d="M40.1 13.7L39.7 12.8C39.6 12.6 39.5 12.3 39.4 12.1C39.4 12.1 39.5 12.1 39.5 12C39.6 12.1 39.8 12.2 39.8 12.3C40.2 13 40.7 13.8 41 14.6C41.6 16 42.1 17.4 42.3 18.8C42.3 19 42.3 19.1 42.3 19.3H42.2C42.1 19.1 42 18.8 42 18.6C41.6 17 41 15.4 40.2 13.9C40.2 13.9 40.2 13.8 40.1 13.7Z" fill="#6F7FB5"/>
<path d="M18.6 21.4C18.6 21.8 18.5 22 18.3 22.2C18 22.7 17.7 23.1 17.5 23.6C16.8 24.8 16.4 26 16 27.3C15.9 27.7 15.7 28.1 15.6 28.5C15.5 28 15.6 27.6 15.7 27.2C16.1 25.5 16.8 24 17.8 22.6C17.9 22.4 18.1 22.2 18.2 22C18.3 21.7 18.4 21.6 18.6 21.4Z" fill="#6F7FB5"/>
<path d="M23.7 33C23.9 30.4 24.3 27.8 25.8 25.5C25.8 25.5 25.9 25.5 25.9 25.6C25.8 25.8 25.8 26 25.7 26.2C25.4 27.1 25 27.9 24.8 28.8C24.5 29.8 24.3 30.9 24.1 32C24 32.3 23.9 32.7 23.7 33Z" fill="#6F7FB5"/>
<path d="M38.7 12.5C39.6 13.6 40.8 19.4 40.4 20.7C40.1 18 39.3 15.3 38.7 12.5Z" fill="#6F7FB5"/>
<path d="M42.3 16.9C42 16.2 41.8 15.6 41.5 14.9C41.2 14.2 40.8 13.6 40.4 13C40 12.4 39.5 11.9 39.2 11.3C39.5 11.3 39.7 11.5 39.9 11.6C40.6 12.2 41.1 13 41.5 13.8C41.9 14.6 42.3 15.5 42.5 16.4C42.4 16.6 42.4 16.7 42.3 16.9C42.3 16.8 42.4 16.8 42.3 16.9Z" fill="#6F7FB5"/>
<path d="M65.5 49.5C65.7 49.5 65.9 49.5 66.1 49.5C67.5 49.6 68.8 50 70.1 50.6C70.6 50.8 71 51.2 71.5 51.5C71.6 51.6 71.8 51.7 71.7 51.9C71.6 51.9 71.5 51.9 71.5 51.8C70.9 51.2 70.1 50.8 69.2 50.5C68 50.3 67 50 65.9 49.7C65.8 49.7 65.6 49.6 65.5 49.6C65.5 49.5 65.5 49.5 65.5 49.5Z" fill="#6F7FB5"/>
<path d="M33.9 7.30001C34.2 6.80001 34.7 6.70001 35.1 6.40001C34.9 6.50001 34.7 6.50001 34.5 6.60001C34.3 6.70001 34.1 6.80001 33.9 6.90001C33.7 7.00001 33.5 7.10001 33.3 7.20001C33.3 7.00001 33.4 6.90001 33.5 6.80001C34.1 6.30001 34.8 6.00001 35.5 5.90001C36.2 6.00001 36.8 6.00001 37.5 5.90001C37.5 5.90001 37.6 5.90001 37.6 6.00001C37.6 6.20001 37.4 6.30001 37.3 6.30001C37.2 6.40001 37 6.40001 36.9 6.40001C36.1 6.50001 35.4 6.80001 34.6 7.10001C34.4 7.30001 34.2 7.40001 33.9 7.30001Z" fill="#6F7FB5"/>
<path d="M49.2 45C48.3 44.5 45.5 40.1 45.3 38.7C46 39.8 46.6 40.9 47.2 41.9C47.9 43 48.7 44 49.2 45Z" fill="#6F7FB5"/>
<path d="M17.9 18.1C18.7 16.5 22.2 14.8 24.3 15C24.1 15.1 24 15.2 23.9 15.2C23.7 15.3 23.4 15.3 23.2 15.4C21.8 15.6 20.6 16.2 19.5 17C19.2 17.3 18.8 17.5 18.5 17.8C18.2 17.9 18.1 18 17.9 18.1Z" fill="#6F7FB5"/>
<path d="M21.7 19.5C21 20.3 20.4 21.2 19.9 22.2C19.4 23.1 19.2 24.2 18.6 25.1C18.4 23.9 20.4 19.7 21.7 19.5Z" fill="#6F7FB5"/>
<path d="M73.8 76.8C75.8 75.6 77.2 73.7 78.6 71.9C78.6 71.9 78.6 71.9 78.7 71.9C78.6 72 78.6 72.1 78.5 72.3C77.6 73.9 76.4 75.3 74.9 76.4C74.7 76.5 74.5 76.7 74.3 76.8C74.1 76.9 74 76.9 73.8 76.9C73.9 76.9 73.9 76.9 73.8 76.8Z" fill="#6F7FB5"/>
<path d="M75 52C75.1 52.2 75.1 52.3 75.2 52.5C75.2 52.6 75.3 52.8 75.1 52.8C75.1 52.8 75 52.8 75 52.7C74.6 51.6 73.7 50.9 72.8 50.3C72.2 49.9 71.5 49.5 70.9 49.2C70.8 49.1 70.6 49 70.4 48.9C70.7 48.8 70.9 48.9 71.1 48.9C72.4 49.4 73.6 50.2 74.5 51.2C74.6 51.3 74.7 51.5 74.9 51.6C74.9 51.9 74.9 51.9 75 52Z" fill="#6F7FB5"/>
<path d="M13.3 13.3C10.9 14.4 9.09998 16.3 7.19998 18C7.29998 17.9 7.39998 17.7 7.49998 17.6C8.59998 16.3 9.89997 15 11.4 14.1C11.8 13.8 12.3 13.6 12.7 13.4C12.9 13.3 13 13.3 13.2 13.3C13.2 13.3 13.3 13.3 13.3 13.3Z" fill="#6F7FB5"/>
<path d="M68.6 48.9C70.4 48.8 73.9 51.2 74.3 52.9C74.1 52.6 73.9 52.3 73.7 52.1C72.8 51.2 71.8 50.4 70.6 49.8C70.1 49.6 69.6 49.3 69.1 49.1C69 49.1 68.8 49 68.6 48.9Z" fill="#6F7FB5"/>
<path d="M79 70.1C79 70.2 78.9 70.3 78.9 70.4C78 72.3 76.8 73.9 75.3 75.2C75.1 75.4 74.9 75.5 74.6 75.5V75.4C75.7 74.7 76.5 73.6 77.3 72.6C77.8 71.9 78.2 71.2 78.6 70.6C78.7 70.4 78.8 70.2 79 70.1C78.9 70.1 78.9 70.1 79 70.1Z" fill="#6F7FB5"/>
<path d="M23.2 30.9C23 30.4 23.1 30 23.2 29.6C23.5 28.3 23.9 27.1 24.4 26C24.7 25.4 25 24.8 25.2 24.3C25.3 24.2 25.3 24.1 25.4 23.9C25.4 24.3 25.3 24.5 25.2 24.8C24.8 25.8 24.3 26.8 24 27.9C23.7 28.8 23.5 29.7 23.3 30.6C23.3 30.7 23.2 30.8 23.2 30.9Z" fill="#6F7FB5"/>
<path d="M34.5 47C34.3 46.8 34.1 46.7 33.9 46.5C32.9 45.1 32.1 43.6 31.6 41.9C31.6 41.8 31.6 41.7 31.6 41.6C31.7 41.7 31.8 41.8 31.8 42C32.3 43 32.8 43.9 33.3 44.9C33.7 45.6 34.1 46.2 34.4 46.8C34.6 46.9 34.6 46.9 34.5 47C34.6 47 34.6 47 34.5 47Z" fill="#6F7FB5"/>
<path d="M42.1 14C42 13.9 42 13.8 41.9 13.8C41.3 12.5 40.4 11.5 39.4 10.7C39.2 10.5 39 10.4 38.8 10.2C38.7 10.1 38.7 10 38.6 9.90001C39.9 9.90001 42.1 12.6 42.1 14Z" fill="#6F7FB5"/>
<path d="M10.6 28.4C10.6 28.3 10.7 28.1 10.7 28C11.3 26.3 12.2 24.8 13.3 23.4C13.5 23.1 13.8 22.9 14 22.7C14.1 22.6 14.3 22.6 14.5 22.5C12.7 24.1 11.7 26.3 10.6 28.4Z" fill="#6F7FB5"/>
<path d="M47.7 40.9L51.9 47C51.1 46.6 47.9 42 47.7 40.9Z" fill="#6F7FB5"/>
<path d="M78.7 69.2C78.7 70.5 76.6 73.4 75.5 73.9C75.5 73.8 75.5 73.7 75.6 73.7C76.8 72.5 77.7 71.1 78.5 69.6C78.5 69.4 78.6 69.3 78.7 69.2Z" fill="#6F7FB5"/>
<path d="M19.9 24.1C20.1 22.4 22.1 19 23.2 18.5C22.5 19.3 21.9 20.2 21.4 21.2C20.9 22.1 20.4 23.1 19.9 24.1Z" fill="#6F7FB5"/>
<path d="M39.7 32.7C39 30.8 38.3 29 38.1 26.9C38.4 27 38.4 27.2 38.4 27.4C38.7 28.3 38.9 29.3 39.2 30.2C39.4 30.8 39.6 31.4 39.7 32.1C39.8 32.3 39.8 32.5 39.8 32.7C39.8 32.7 39.8 32.7 39.7 32.7Z" fill="#6F7FB5"/>
<path d="M75 52C74.9 51.9 74.9 51.8 74.8 51.7C74.1 50.4 73.1 49.5 71.8 48.8V48.7C71.9 48.7 72 48.7 72.1 48.7C72.4 48.8 72.7 48.9 72.9 49.1C74 49.9 74.8 50.9 75.3 52.1C75.4 52.3 75.4 52.5 75.4 52.7C75.4 52.6 75.2 52.3 75 52Z" fill="#6F7FB5"/>
<path d="M37.7 35C38 35.3 40.2 39.4 40.2 39.7C39.9 39.6 39.4 39 38.7 37.5C38.3 36.8 37.9 36 37.7 35Z" fill="#6F7FB5"/>
<path d="M79.7 68.3C80 67.4 80.3 66.5 80.5 65.6C80.7 64.7 80.8 63.7 81 62.7C81.5 63.7 80.7 67.2 79.7 68.3Z" fill="#6F7FB5"/>
<path d="M63.4 50C64.5 49.5 68.1 50.4 69.1 51.3C68.7 51.3 68.5 51.1 68.2 51C67.9 50.9 67.6 50.8 67.3 50.7C67 50.6 66.7 50.5 66.3 50.5C66 50.4 65.7 50.4 65.3 50.3C65 50.2 64.7 50.2 64.4 50.2C64.1 50.1 63.8 50.1 63.4 50Z" fill="#6F7FB5"/>
<path d="M65.6 57C65 57.3 61.2 57.4 60.6 57.2C61.2 56.9 64.9 56.7 65.6 57Z" fill="#6F7FB5"/>
<path d="M21.9 8.00001C20.9 7.30001 19.8 7.00001 18.7 6.90001C18.1 6.80001 17.4 6.90001 16.8 6.90001C16.6 6.90001 16.3 6.90001 16.1 6.90001C16.3 6.80001 16.5 6.70001 16.8 6.70001C18.4 6.40001 19.9 6.70001 21.4 7.40001C21.6 7.50001 21.7 7.60001 21.8 7.70001C21.9 7.70001 21.9 7.80001 21.9 8.00001Z" fill="#6F7FB5"/>
<path d="M18.8 30.4C18.3 29.4 19.6 26 20.4 25.4C20.1 26.3 19.7 27.1 19.4 27.9C19.2 28.7 19.1 29.5 18.8 30.4Z" fill="#6F7FB5"/>
<path d="M78.3 68.5C78.3 69.4 76.8 72 76.1 72.4C76.1 72 76.4 71.7 76.6 71.4C76.8 71.1 77 70.7 77.2 70.4C77.4 70.1 77.6 69.7 77.7 69.4C77.9 69.1 78.1 68.8 78.2 68.4C78.3 68.5 78.3 68.5 78.3 68.5Z" fill="#6F7FB5"/>
<path d="M16.4 17.7C16.8 17.4 17.1 17.1 17.5 16.8C18.3 16.2 19.2 15.7 20.2 15.3C20.4 15.2 20.7 15.1 21 15.1C21.2 15.1 21.3 15.1 21.5 15.2C21.5 15.2 21.4 15.2 21.4 15.3C20.1 15.6 19.1 16.2 18 16.9C17.6 17.1 17.3 17.4 16.9 17.7C16.8 17.8 16.7 17.8 16.5 17.9C16.5 17.8 16.5 17.8 16.4 17.7Z" fill="#6F7FB5"/>
<path d="M6.99998 33.8C6.99998 35.4 7.29998 37 7.39998 38.6C6.79998 38.1 6.49998 34.6 6.99998 33.8Z" fill="#6F7FB5"/>
<path d="M76.2 52.4C75.7 52.1 75.5 51.5 75.2 51.1C74.8 50.4 74.2 49.8 73.5 49.3C73.3 49.1 73 48.9 72.7 48.7C73.9 48.6 76 50.9 76.2 52.4Z" fill="#6F7FB5"/>
<path d="M72.3 54.2C72.7 54 73 54 73.3 54.1C74.4 54.4 75.3 55.1 75.9 56.1C76 56.3 76.1 56.5 75.9 56.8C75.5 56.1 75 55.6 74.4 55.1C73.8 54.6 73.1 54.4 72.3 54.2Z" fill="#6F7FB5"/>
<path d="M30.8 34.6C30.7 34.4 30.6 34.2 30.6 34.1C30.4 32.9 30.3 31.7 30.6 30.5C30.6 30.4 30.7 30.3 30.7 30.2C30.7 30.1 30.8 30.1 30.8 30.1C30.9 30.8 30.8 31.6 30.8 32.3C30.9 33 30.9 33.8 31 34.5C30.8 34.6 30.8 34.6 30.8 34.6Z" fill="#6F7FB5"/>
<path d="M14.6 20.9C13.2 22 12.3 23.5 11 24.7C11 24.7 10.9 24.7 10.9 24.6C11 24.5 11 24.3 11.1 24.2C11.9 23.1 12.8 22.1 13.8 21.2C14 21 14.3 20.8 14.6 20.6C14.5 20.9 14.5 20.9 14.6 20.9Z" fill="#6F7FB5"/>
<path d="M13.2 18.4C13.6 17.2 16.5 15.2 17.7 15.2C16.9 15.7 16.1 16.1 15.3 16.6C14.6 17.2 13.9 17.8 13.2 18.4Z" fill="#6F7FB5"/>
<path d="M20.1 9.00001C19.1 8.70001 18.2 8.50001 17.2 8.40001C16.3 8.30001 15.3 8.40001 14.4 8.70001C14.5 8.50001 14.7 8.40001 14.9 8.30001C15.5 8.10001 16.2 8.00001 16.8 8.10001C17.7 8.10001 18.6 8.30001 19.5 8.50001C19.7 8.70001 19.9 8.70001 20.1 9.00001Z" fill="#6F7FB5"/>
<path d="M68.3 55.8C67.8 55.7 67.4 55.5 66.9 55.4C66 55.3 65.2 55.2 64.3 55.2C63.6 55.2 62.9 55.2 62.1 55.2C61.9 55.2 61.8 55.2 61.5 55.2C62.6 54.6 67.5 55.1 68.3 55.8Z" fill="#6F7FB5"/>
<path d="M11.9 29.2C11.6 31 11.3 32.8 11 34.7C10.6 33.9 11.3 30 11.9 29.2Z" fill="#6F7FB5"/>
<path d="M54 50.5C53 50.6 50.1 49.4 49.3 48.6C49.9 48.8 50.4 49 50.9 49.3C51.4 49.5 51.9 49.7 52.4 49.9C52.9 50 53.5 50.1 54 50.5Z" fill="#6F7FB5"/>
<path d="M8.09998 38.4C8.79998 40.4 9.39998 42.3 9.99998 44.2C9.99998 44.2 9.99997 44.2 9.89997 44.2C9.79997 44.1 9.69998 44 9.69998 43.9C8.99998 42.3 8.39998 40.6 8.09998 38.8C8.09998 38.7 8.09998 38.6 8.09998 38.4Z" fill="#6F7FB5"/>
<path d="M15 8.00001C15.3 7.80001 15.7 7.70001 16 7.60001C17.1 7.40001 18.2 7.50001 19.2 7.60001C19.6 7.70001 20 7.80001 20.5 7.90001C20.8 7.90001 20.8 8.00001 21 8.30001C19 7.60001 17 7.40001 15 8.00001Z" fill="#6F7FB5"/>
<path d="M58.6 54.2C57.9 54.6 54.7 55 53.5 54.8C53.6 54.7 53.7 54.7 53.8 54.7C54.5 54.6 55.3 54.6 56 54.5C56.7 54.4 57.4 54.4 58.1 54.3C58.3 54.2 58.4 54.2 58.6 54.2Z" fill="#6F7FB5"/>
<path d="M80.5 62.6C80.8 63.5 80.1 66.4 79.5 66.8C79.8 65.4 80.1 64.1 80.5 62.6Z" fill="#6F7FB5"/>
<path d="M37.9 28.5C38.5 30.3 39.1 32.1 39.7 33.8C39.7 33.8 39.7 33.9 39.7 34C39 33.1 37.9 29.7 37.9 28.5Z" fill="#6F7FB5"/>
<path d="M17.7 30.2C17.7 30 17.6 29.8 17.6 29.6C17.7 28.4 18.1 27.2 18.7 26.1C18.7 26 18.8 26 18.9 25.8C18.9 26 18.9 26.1 18.9 26.1C18.5 27.2 18.1 28.4 18 29.6C18 29.7 17.9 29.9 17.9 30C17.9 30 17.9 30 17.8 30.1C17.8 30.2 17.8 30.2 17.7 30.2Z" fill="#6F7FB5"/>
<path d="M24.6 19.2C24.2 19.7 23.7 20.3 23.3 20.8C22.9 21.4 22.6 22 22.2 22.6C22 22.4 22.1 22.2 22.2 22C22.4 21.4 22.7 20.9 23.1 20.4C23.5 19.9 23.8 19.4 24.4 19.1C24.5 19.2 24.5 19.1 24.6 19.2Z" fill="#6F7FB5"/>
<path d="M61.5 56.1C63.1 55.9 64.8 55.9 66.4 56.3C64.8 56.3 63.1 56.3 61.5 56.2C61.5 56.2 61.5 56.1 61.5 56.1Z" fill="#6F7FB5"/>
<path d="M44.3 35.6C43.5 34.7 42.6 31.6 42.8 30.7C42.8 30.7 42.9 30.7 42.9 30.8C43.3 32.5 43.7 34.1 44.3 35.6Z" fill="#6F7FB5"/>
<path d="M36.2 9.40001C36.3 9.70001 36.3 9.90001 36.4 10.2C36.5 10.6 36.7 11.1 36.6 11.6C36.6 11.8 36.5 11.9 36.5 12.1C36.3 11.4 36.2 10.8 36 10.2C35.8 9.60001 35.5 9.10001 35.3 8.50001C35.3 8.50001 35.4 8.50001 35.4 8.40001C35.6 8.60001 35.7 8.70001 35.9 8.90001C35.9 9.00001 36 9.10001 36.2 9.40001C36.2 9.30001 36.2 9.30001 36.2 9.40001Z" fill="#6F7FB5"/>
<path d="M8.49998 29.9C8.09998 31.6 8.09998 33.2 8.09998 35C7.49998 34.1 7.79998 30.5 8.49998 29.9Z" fill="#6F7FB5"/>
<path d="M14.3 36.4C13.6 35.5 13.4 32.7 13.9 31.9C13.9 32.7 13.9 33.4 13.9 34.2C14.1 34.9 14.2 35.6 14.3 36.4Z" fill="#6F7FB5"/>
<path d="M22.3 7.30001C20.7 6.40001 19.1 5.80001 17.2 6.00001C17.5 5.70001 17.9 5.70001 18.3 5.70001C18.8 5.70001 19.3 5.80001 19.7 5.90001C20.4 6.10001 21 6.40001 21.7 6.60001C21.9 6.80001 22.2 6.90001 22.3 7.30001Z" fill="#6F7FB5"/>
<path d="M33.6 5.80001C33.3 6.00001 32.9 6.20001 32.6 6.40001C32.4 6.60001 32.1 6.80001 31.9 6.90001L31.8 6.80001C31.9 6.70001 31.9 6.50001 32 6.40001C32.4 6.10001 32.7 5.70001 33.2 5.50001C33.8 5.20001 34.5 4.90001 35.2 4.70001C35.3 4.70001 35.4 4.70001 35.5 4.70001C35.5 4.70001 35.6 4.70001 35.6 4.80001C35.5 4.90001 35.4 4.90001 35.3 5.00001C34.8 5.20001 34.3 5.40001 33.8 5.60001C33.7 5.70001 33.7 5.70001 33.6 5.80001Z" fill="#6F7FB5"/>
<path d="M26.4 12.4C26.4 12.5 26.5 12.5 26.5 12.6C26.7 13.4 26.9 14.2 27.1 15.1C27.1 15.1 27.1 15.2 27 15.3C26.6 15.1 26.5 14.6 26.3 14.2C26.1 13.6 25.9 13 26.2 12.4C26.3 12.4 26.3 12.4 26.4 12.4Z" fill="#6F7FB5"/>
<path d="M13.9 9.90001C14.5 9.10001 17.6 8.90001 18.5 9.60001C18.3 9.60001 18.2 9.60001 18 9.50001C17.1 9.30001 16.2 9.30001 15.4 9.50001C15 9.60001 14.7 9.70001 14.4 9.80001C14.2 9.80001 14 9.80001 13.9 9.90001Z" fill="#6F7FB5"/>
<path d="M78.2 54.3C78.1 53.5 77.9 52.8 77.8 52C78.5 52.6 79.1 53.2 79.1 54.1C79.1 54.1 79 54.1 79 54.2C78.8 53.9 78.7 53.6 78.5 53.2C78.5 53.6 78.5 54 78.2 54.3Z" fill="#6F7FB5"/>
<path d="M36.2 9.40001C36.2 9.30001 36.2 9.30001 36.2 9.40001C36 9.10001 35.9 9.00001 35.8 8.80001C35.8 8.60001 35.7 8.50001 35.7 8.20001C35.9 8.30001 36 8.40001 36 8.50001C36.5 9.20001 36.9 10 37.1 10.8C37.2 11.1 37.1 11.2 36.9 11.4C36.8 10.7 36.5 10 36.2 9.40001Z" fill="#6F7FB5"/>
<path d="M29.3 20.3C29.7 21.2 29.3 23.9 28.6 24.5C28.8 23.8 28.9 23.1 29 22.4C29.2 21.8 29.3 21.1 29.3 20.3Z" fill="#6F7FB5"/>
<path d="M29.9 32C29.9 32.9 29.9 33.7 30 34.5C30.1 35.3 30.4 36 30.5 36.8C29.9 36.1 29.2 33.1 29.9 32Z" fill="#6F7FB5"/>
<path d="M14.9 17.8C15.4 16.8 18 15.2 19.2 15C18.4 15.4 17.7 15.8 17 16.2C16.3 16.7 15.7 17.3 14.9 17.8Z" fill="#6F7FB5"/>
<path d="M9.49998 26.3C8.89998 27.5 8.19998 28.7 7.59998 29.9C7.49998 29.2 8.79998 26.7 9.49998 26.3Z" fill="#6F7FB5"/>
<path d="M72.8 64.3C73.5 63.4 73.9 62.4 74.5 61.4C74.7 61.7 74.6 61.9 74.4 62.4C73.8 63.6 73.4 64.1 72.8 64.3Z" fill="#6F7FB5"/>
<path d="M15.4 42C14.8 41.3 14 38.8 14.3 38C14.6 39.3 15 40.6 15.4 42Z" fill="#6F7FB5"/>
<path d="M15.1 33.8C15.1 35.5 15.6 37 16 38.6C15.3 37.1 14.9 35.5 15.1 33.8Z" fill="#6F7FB5"/>
<path d="M31.2 6.70001C31.3 5.70001 33 4.70001 34.1 4.80001C33.7 5.00001 33.4 5.10001 33 5.30001C32.7 5.50001 32.3 5.70001 32 5.90001C31.8 6.10001 31.5 6.40001 31.2 6.70001Z" fill="#6F7FB5"/>
<path d="M18.9 5.10001C19.8 4.60001 22.4 5.60001 22.8 6.80001C22.6 6.60001 22.4 6.40001 22.1 6.30001C21.9 6.10001 21.6 6.00001 21.4 5.90001C21.1 5.80001 20.9 5.60001 20.6 5.50001C20.3 5.40001 20.1 5.30001 19.8 5.30001C19.5 5.20001 19.2 5.20001 18.9 5.10001Z" fill="#6F7FB5"/>
<path d="M41.7 60.9C42.8 61.2 44 61.5 45.2 61.9L45.3 62C44.6 62.2 42.5 61.5 41.7 60.9Z" fill="#6F7FB5"/>
<path d="M78.9 65.7C79.1 64.5 79.4 63.4 79.6 62.2C80 62.8 79.6 64.9 78.9 65.7Z" fill="#6F7FB5"/>
<path d="M15.3 24C15.1 24.9 14.7 25.6 14.5 26.4C14.5 26.5 14.4 26.6 14.3 26.8C14.1 26.2 14.7 24.5 15.3 24Z" fill="#6F7FB5"/>
<path d="M67.3 54.7C66 54.5 64.7 54.3 63.3 54.2C63.3 54.2 63.3 54.2 63.2 54.1C64.7 53.9 66 54.1 67.3 54.7Z" fill="#6F7FB5"/>
<path d="M19.8 4.40001C20.6 4.20001 23 5.60001 23.3 6.40001C23.2 6.30001 23.1 6.30001 23 6.30001C22.2 5.80001 21.5 5.30001 20.7 4.80001C20.4 4.60001 20.1 4.50001 19.8 4.40001Z" fill="#6F7FB5"/>
<path d="M46.2 42.4C45.6 42.2 44.7 40.6 44.6 39.7C45.1 40.6 45.7 41.5 46.2 42.4Z" fill="#6F7FB5"/>
<path d="M36.2 7.80001C36.9 8.10001 37.7 9.50001 37.6 10.2C37.2 10 37.2 9.70001 37 9.40001C36.8 9.10001 36.7 8.90001 36.5 8.60001C36.4 8.40001 36.2 8.10001 36.2 7.80001C36.1 7.80001 36.1 7.80001 36.2 7.80001Z" fill="#6F7FB5"/>
<path d="M80.5 59.9C80.1 59.5 80.1 59 79.8 58.6C79.6 58.2 79.3 57.8 79 57.4C79.2 57.2 79.3 57.3 79.4 57.5C79.6 57.7 79.7 57.8 79.8 58C80 58.6 80.2 59.1 80.4 59.7C80.6 59.7 80.6 59.7 80.5 59.9Z" fill="#6F7FB5"/>
<path d="M31.1 54.5C32.3 55.3 33.4 56.2 34.7 57C33.9 56.9 31.5 55.2 31.1 54.5Z" fill="#6F7FB5"/>
<path d="M37.5 30.2C37.9 31.3 38.2 32.4 38.5 33.7C38 33.2 37.4 31 37.5 30.2Z" fill="#6F7FB5"/>
<path d="M67.4 66.8C67.7 66.5 69.6 65.7 70.1 65.7C69.7 66.2 68.1 66.9 67.4 66.8Z" fill="#6F7FB5"/>
<path d="M8.99998 38.2C8.59998 36.9 8.29998 35.5 8.59998 34.1C8.79998 35.5 8.99998 36.8 9.19998 38.2C9.09998 38.2 9.09998 38.2 8.99998 38.2Z" fill="#6F7FB5"/>
<path d="M75.4 61.6C75.5 62.3 74.5 64.9 74 65.2V65.1C74.6 64 75 62.8 75.4 61.6Z" fill="#6F7FB5"/>
<path d="M50.7 56.1C52 56.2 53.4 56.3 54.8 56.4C54.2 56.7 51.3 56.5 50.7 56.1Z" fill="#6F7FB5"/>
<path d="M12.7 20.8C11.9 21.7 11.1 22.7 10.4 23.6C10.4 23.6 10.3 23.6 10.3 23.5C10.4 23.1 10.7 22.8 11 22.5C11.2 22.2 11.5 21.8 11.8 21.5C12 21.3 12.3 21 12.7 20.8Z" fill="#6F7FB5"/>
<path d="M52.3 64.6C51.7 64.9 49.6 64.8 48.9 64.4C50 64.4 51.1 64.5 52.3 64.6Z" fill="#6F7FB5"/>
<path d="M62 50.8C63.3 50.5 64.4 50.8 65.6 51.1V51.2L62 50.8Z" fill="#6F7FB5"/>
<path d="M32.7 4.60001C31.7 4.90001 31 5.60001 30.2 6.30001C30.3 5.40001 31.8 4.40001 32.7 4.60001Z" fill="#6F7FB5"/>
<path d="M10.4 20.5C10.6 19.9 11.1 19.5 11.6 19C11.8 18.9 12 18.7 12.2 18.8C12.1 19.1 10.8 20.3 10.4 20.5Z" fill="#6F7FB5"/>
<path d="M31.4 27.3C31.4 28.6 31.5 29.9 31.3 31.2C31 30.7 31.1 27.8 31.4 27.3Z" fill="#6F7FB5"/>
<path d="M8.79998 39.5C9.19998 40.5 9.49998 41.6 9.79998 42.6C9.39998 42.2 8.69998 40.1 8.79998 39.5Z" fill="#6F7FB5"/>
<path d="M13.6 16C14.5 15.1 15.5 14.5 16.7 14V14.1C15.7 14.6 14.8 15.4 13.8 16.1C13.8 16.1 13.7 16.1 13.6 16C13.6 16.1 13.6 16.1 13.6 16Z" fill="#6F7FB5"/>
<path d="M23.2 19.4C22.6 20.5 22 21.6 21.4 22.6C21.4 22.1 22.4 20.2 23.2 19.4Z" fill="#6F7FB5"/>
<path d="M44.4 21.6C44.3 20.3 44.2 18.9 44.1 17.6C44.5 18.9 44.6 20.2 44.4 21.6Z" fill="#6F7FB5"/>
<path d="M68.2 52.2C68.8 52.6 69.3 53.1 69.5 53.9C69.6 54.1 69.6 54.3 69.4 54.4C69.2 54 69.1 53.7 68.8 53.3C68.6 53 68.3 52.7 68.2 52.2C68.1 52.3 68.1 52.3 68.2 52.2Z" fill="#6F7FB5"/>
<path d="M26.4 14.9C25.7 14.6 25.4 13.4 25.9 12.9C26 13.5 26.2 14.1 26.4 14.9Z" fill="#6F7FB5"/>
<path d="M31.2 4.30001C30.5 4.70001 30 5.40001 29.3 5.90001C29.4 5.20001 30.5 4.30001 31.2 4.30001Z" fill="#6F7FB5"/>
<path d="M76.8 51.4C77.3 51.9 77.7 53.4 77.5 53.9C77.3 53.7 76.9 52.2 76.8 51.4Z" fill="#6F7FB5"/>
<path d="M9.59998 32.6V36.3C9.19998 35.1 9.39998 33.9 9.59998 32.6Z" fill="#6F7FB5"/>
<path d="M56.9 65.3C56.5 65.6 55.1 65.8 54.5 65.5C55.2 65.3 55.8 65.3 56.5 65.2C56.6 65.1 56.7 65.2 56.9 65.3Z" fill="#6F7FB5"/>
<path d="M72.4 54.6C73 54.5 73.8 55.1 74.1 55.8C73.7 55.7 73.5 55.3 73.2 55.2C72.9 55 72.6 54.9 72.4 54.6Z" fill="#6F7FB5"/>
<path d="M28.4 14.7C29.3 14.5 29.9 13.9 30.7 13.6C30.2 14.3 29 14.9 28.4 14.7Z" fill="#6F7FB5"/>
<path d="M16.2 24C15.8 24.9 15.5 25.9 15.1 26.8C15.1 26.7 15.1 26.6 15.1 26.5C15.1 25.5 15.6 24.7 16.2 24Z" fill="#6F7FB5"/>
<path d="M78.5 61.4C78.6 61.6 78.7 61.7 78.7 61.8C78.7 62.4 78.7 63 78.4 63.6C78.2 63.3 78.3 61.9 78.5 61.4Z" fill="#6F7FB5"/>
<path d="M53.3 55.6C54.2 55.4 55.2 55.5 56.1 55.5C55.6 55.7 53.9 55.8 53.3 55.6Z" fill="#6F7FB5"/>
<path d="M30.1 20.7C30.3 21.5 30.4 22.4 30 23.2C30 22.4 30 21.6 30 20.7C30.1 20.7 30.1 20.7 30.1 20.7Z" fill="#6F7FB5"/>
<path d="M30.7 12.8C30.4 13.3 30 13.7 29.6 14C29.4 14.1 29.2 14.1 29 14C29.5 13.6 30.1 13.2 30.7 12.8Z" fill="#6F7FB5"/>
<path d="M43.8 20C44.1 20.6 44.1 21.5 43.8 22.4C43.8 22.1 43.8 21.9 43.8 21.7C43.8 21.4 43.8 21.2 43.8 20.9C43.7 20.6 43.8 20.3 43.8 20Z" fill="#6F7FB5"/>
<path d="M26 5.10001C25.8 4.70001 26.1 4.00001 26.7 3.60001C26.7 4.10001 26.3 4.90001 26 5.10001Z" fill="#6F7FB5"/>
<path d="M43.1 21.7C43.1 22.5 43 23.2 43 23.9C42.7 23.5 42.8 22.2 43.1 21.7Z" fill="#6F7FB5"/>
<path d="M51.2 48.2C51.9 48.6 52.6 48.9 53.4 49.3C52.8 49.4 51.6 48.8 51.2 48.2Z" fill="#6F7FB5"/>
<path d="M8.99998 25.4C8.59998 26 8.29998 26.7 7.89998 27.3C7.89998 27.3 7.79998 27.3 7.79998 27.2C7.99998 26.5 8.39997 25.9 8.89997 25.3C8.89997 25.4 8.99998 25.4 8.99998 25.4Z" fill="#6F7FB5"/>
<path d="M61.9 66.6C61.3 67 60.6 67.2 59.9 67.1C60.5 66.9 61.2 66.7 61.9 66.6Z" fill="#6F7FB5"/>
<path d="M71.9 62.8C72.2 62.3 72.5 61.9 73 61.5C72.9 62.1 72.4 62.7 71.9 62.8Z" fill="#6F7FB5"/>
<path d="M33.6 5.80001C33.8 5.70001 34 5.60001 34.2 5.60001C34.4 5.60001 34.5 5.50001 34.7 5.60001C34.4 5.80001 34 5.90001 33.7 6.10001C33.4 6.30001 33.1 6.50001 32.8 6.70001C32.8 6.70001 32.8 6.70001 32.7 6.60001C32.8 6.50001 32.9 6.30001 33 6.20001C33.2 6.10001 33.4 6.00001 33.6 5.80001Z" fill="#6F7FB5"/>
<path d="M80.2 58C79.8 57.5 79.5 57.1 79.2 56.7C79.4 56.6 79.5 56.6 79.6 56.7C80 57 80.2 57.5 80.2 58Z" fill="#6F7FB5"/>
<path d="M39.5 28.2C39.7 28.9 39.8 29.7 40 30.4H39.9C39.6 29.7 39.4 29 39.4 28.2H39.5Z" fill="#6F7FB5"/>
<path d="M68.7 51.7C69.2 51.9 69.8 52.4 70 53.1C69.5 52.6 69 52.2 68.7 51.7C68.6 51.7 68.6 51.8 68.7 51.7Z" fill="#6F7FB5"/>
<path d="M72.4 55.5C72 55.3 71.6 55.1 71.1 55C71.7 54.6 72.1 54.8 72.4 55.5Z" fill="#6F7FB5"/>
<path d="M51.2 63.1C51.6 63 52.5 62.9 53.1 63C52.8 63.2 51.9 63.3 51.2 63.1Z" fill="#6F7FB5"/>
<path d="M27.3 5.10001C27.4 4.50001 27.6 4.10001 28 3.70001C27.9 4.20001 27.6 4.70001 27.3 5.10001Z" fill="#6F7FB5"/>
<path d="M12.8 32.3C12.8 31.8 12.8 31.2 12.8 30.6C13 30.9 13 31.9 12.8 32.3Z" fill="#6F7FB5"/>
<path d="M10.4 19.4C10.5 19.1 10.7 18.9 11.1 18.8C11 19.1 10.7 19.3 10.4 19.4Z" fill="#6F7FB5"/>
<path d="M71.3 66.4C71.1 66.7 70.8 66.9 70.5 67C70.5 67 70.5 66.9 70.4 66.9C70.7 66.7 70.9 66.5 71.3 66.4C71.2 66.4 71.2 66.3 71.3 66.4Z" fill="#6F7FB5"/>
<path d="M79 55.8C79.4 56 79.4 56 79.7 56.5C79.4 56.2 79.2 56.1 79 55.8Z" fill="#6F7FB5"/>
<path d="M30.7 19.7V20C30.6 19.9 30.6 19.8 30.7 19.7C30.6 19.7 30.6 19.7 30.7 19.7Z" fill="#6F7FB5"/>
</svg>
