<svg width="9" height="16" viewBox="0 0 9 16" fill="none" xmlns="http://www.w3.org/2000/svg">
<path d="M2.20002 1.90001C4.80002 4.60001 7.40002 4.90001 7.70002 6.10001C8.00002 7.30001 8.30002 6.30001 8.30002 8.30001C8.30002 11.3 7.80002 9.90001 5.10002 12.4C2.90002 14.4 0.90002 15.8 0.60002 15.5C0.20002 15 0.10002 13.9 0.30002 13.2C0.60002 12.5 2.40002 10.8 3.20002 10.6C3.70002 10.4 5.50002 9.00001 5.70002 8.50001C5.80002 8.40001 5.70002 8.20001 5.60002 8.20001C4.10002 7.30001 1.40002 5.30001 0.90002 4.50001C0.70002 4.20001 0.40002 3.90001 0.30002 3.80001C-0.0999802 3.60001 1.97589e-05 2.10001 0.30002 1.40001C0.60002 0.70001 1.20002 0.90001 2.20002 1.90001Z" fill="#234386"/>
</svg>
